<svg xmlns="http://www.w3.org/2000/svg" xmlns:xlink="http://www.w3.org/1999/xlink" xmlns:svgjs="http://svgjs.com/svgjs" width="40" height="40"><svg width="40" height="40" fill="none" xmlns="http://www.w3.org/2000/svg"><path fill-rule="evenodd" clip-rule="evenodd" d="M0 19.793c.006.581.23 1.16.654 1.587 2.837 2.857 7.183 4.676 12.048 4.641 2.175-.016 4.251-.397 6.114-1.084-.27-.114-.521-.247-.811-.399-4.137-2.299-7.215-7.147-7.873-12.995a17.704 17.704 0 01-4.398 4.113 5.061 5.061 0 01-.537.332c2.628 4.023 5.826 6.888 9.32 8.191-4.396-.95-8.152-3.733-10.49-7.528-.64.329-1.319.568-1.986.832-.593.234-1.21.435-1.606.96-.288.385-.43.845-.435 1.305v.045z" fill="#3F66FF"/><path fill-rule="evenodd" clip-rule="evenodd" d="M15.655 34.266c.117.172.233.345.33.537 4.024-2.629 6.89-5.826 8.192-9.32-.95 4.396-3.733 8.151-7.528 10.49.329.639.569 1.318.832 1.986.234.592.435 1.21.961 1.605.881.662 2.159.553 2.936-.218 2.857-2.838 4.677-7.184 4.641-12.048-.016-2.176-.397-4.252-1.084-6.114-.114.27-.247.521-.399.811-2.299 4.137-7.147 7.214-12.995 7.873a17.703 17.703 0 014.114 4.398z" fill="#1A79FF"/><path fill-rule="evenodd" clip-rule="evenodd" d="M21.995 15.464c4.137 2.299 7.214 7.147 7.873 12.995a17.696 17.696 0 014.398-4.113c.172-.117.345-.234.537-.332-2.629-4.024-5.826-6.888-9.32-8.191 4.396.95 8.152 3.733 10.49 7.528.64-.329 1.318-.569 1.986-.832.592-.234 1.21-.435 1.605-.96.662-.882.553-2.16-.218-2.937-2.838-2.857-7.183-4.677-12.048-4.641-2.175.016-4.252.397-6.114 1.084.27.114.521.247.811.399z" fill="#14AEFF"/><path fill-rule="evenodd" clip-rule="evenodd" d="M13.981 12.702c.016 2.175.397 4.251 1.085 6.114.113-.27.246-.521.398-.811 2.3-4.137 7.147-7.215 12.995-7.873a17.691 17.691 0 01-4.113-4.398 5.013 5.013 0 01-.332-.537c-4.023 2.628-6.888 5.827-8.19 9.32.949-4.396 3.733-8.152 7.528-10.49-.33-.639-.57-1.318-.833-1.986-.234-.592-.435-1.21-.96-1.605A2.2 2.2 0 0020.253 0h-.046c-.58.006-1.159.23-1.586.654-2.83 2.81-4.642 7.1-4.642 11.908l.001.14z" fill="#09CBFF"/></svg><style>@media (prefers-color-scheme:light){:root{filter:none}}</style></svg>
