<svg width="360" height="260" fill="none" xmlns="http://www.w3.org/2000/svg"><path fill="#fff" d="M0 0h360v260H0z"/><path d="M97.878 191.889h139.829s-19.932-49.978-73.222-49.978c-52.857 7.149-66.607 49.978-66.607 49.978z" fill="url(#prefix__paint0_linear_648_7888)"/><path d="M32.994 199.237a91.592 91.592 0 0122.134-25.231c7.924-6.164 12.91-7.724 15.414-8.461a32.708 32.708 0 0119.63.206c17.679 6.023 28.356 20.421 32.931 27.462a74.114 74.114 0 013.544 6.024H32.994z" fill="url(#prefix__paint1_linear_648_7888)"/><path d="M221.524 197.396H334.97a127.433 127.433 0 00-3.36-5.081c-.293-.423-2.32-3.25-4.726-6.359a97.285 97.285 0 00-10.84-12.134c-6.384-5.915-14.091-10.66-22.698-12.155-11.392-2.004-23.023 1.864-33.374 7.053a132.196 132.196 0 00-22.546 14.332 149.208 149.208 0 00-15.902 14.344z" fill="url(#prefix__paint2_linear_648_7888)"/><path d="M180.714 236.143c26.933 0 48.767-2.784 48.767-6.219 0-3.434-21.834-6.218-48.767-6.218-26.933 0-48.767 2.784-48.767 6.218 0 3.435 21.834 6.219 48.767 6.219z" fill="url(#prefix__paint3_linear_648_7888)"/><path d="M109.206 54.66a9.742 9.742 0 01-6.022 9.008 9.761 9.761 0 01-3.733.742H50.13a13.932 13.932 0 01-9.597-4.21 13.917 13.917 0 010-19.41 13.933 13.933 0 019.597-4.21c1.682-.005 3.35.3 4.921.899a18.2 18.2 0 017.245-10.74 18.218 18.218 0 0124.066 2.749 18.195 18.195 0 014.633 12.096c0 1.127-.105 2.252-.315 3.359h8.802a9.757 9.757 0 016.898 2.855 9.745 9.745 0 012.857 6.895l-.032-.033z" fill="url(#prefix__paint4_linear_648_7888)"/><path d="M307.665 212.15c-1.344 3.813-14.926 20.171-14.926 20.171s-.347-21.244.997-25.068a7.374 7.374 0 016.562-4.919 7.376 7.376 0 015.331 1.874 7.379 7.379 0 012.036 7.942z" fill="url(#prefix__paint5_linear_648_7888)"/><path d="M293.758 203.905c1.203 4.431-.987 28.416-.987 28.416s-13.961-19.63-15.175-24.061a8.36 8.36 0 015.993-9.92 8.37 8.37 0 0110.158 5.587l.011-.022z" fill="url(#prefix__paint6_linear_648_7888)"/><g filter="url(#prefix__filter0_f_648_7888)"><path d="M292.706 234.282c6.963 0 12.607-.456 12.607-1.018s-5.644-1.018-12.607-1.018c-6.962 0-12.606.456-12.606 1.018s5.644 1.018 12.606 1.018z" fill="url(#prefix__paint7_linear_648_7888)"/></g><path d="M279.682 139.099c-.854 2.463-9.481 13.027-9.481 13.027s-.221-13.719.633-16.189c.204-.59.521-1.134.932-1.6a4.703 4.703 0 011.464-1.115 4.632 4.632 0 015.158.749 4.8 4.8 0 011.552 3.288 4.829 4.829 0 01-.258 1.84z" fill="url(#prefix__paint8_linear_648_7888)"/><path d="M270.848 133.776c.764 2.861-.627 18.35-.627 18.35s-8.868-12.677-9.639-15.538a5.477 5.477 0 01.634-3.982 5.325 5.325 0 013.173-2.424 5.24 5.24 0 013.94.484 5.385 5.385 0 012.512 3.124l.007-.014z" fill="url(#prefix__paint9_linear_648_7888)"/><g filter="url(#prefix__filter1_f_648_7888)"><path d="M270.18 153.393c4.423 0 8.008-.295 8.008-.658 0-.363-3.585-.657-8.008-.657-4.422 0-8.008.294-8.008.657 0 .363 3.586.658 8.008.658z" fill="url(#prefix__paint10_linear_648_7888)"/></g><path d="M82.47 135.03c-1.12 3.238-12.432 17.128-12.432 17.128s-.288-18.038.83-21.285a6.297 6.297 0 011.223-2.104 6.154 6.154 0 011.92-1.466 6.057 6.057 0 014.698-.262 6.13 6.13 0 012.065 1.246 6.26 6.26 0 011.439 1.955 6.363 6.363 0 01.256 4.788z" fill="url(#prefix__paint11_linear_648_7888)"/><path d="M70.887 128.031c1.002 3.762-.822 24.127-.822 24.127s-11.627-16.668-12.638-20.43a7.216 7.216 0 01.832-5.235 6.987 6.987 0 014.159-3.188 6.858 6.858 0 015.167.637 7.077 7.077 0 013.293 4.107l.009-.018z" fill="url(#prefix__paint12_linear_648_7888)"/><g filter="url(#prefix__filter2_f_648_7888)"><path d="M70.011 153.824c5.799 0 10.5-.388 10.5-.865 0-.478-4.701-.865-10.5-.865-5.798 0-10.499.387-10.499.865 0 .477 4.7.865 10.5.865z" fill="url(#prefix__paint13_linear_648_7888)"/></g><g filter="url(#prefix__filter3_i_648_7888)"><path d="M108.022 73.302a6.5 6.5 0 016.499-6.498h59.012a6.499 6.499 0 015.678 3.336l7.296 13.1a6.499 6.499 0 005.678 3.337h47.499a6.5 6.5 0 016.499 6.499v46.321a6.5 6.5 0 01-6.499 6.499H114.521a6.5 6.5 0 01-6.499-6.499V73.303z" fill="#88B6FA"/></g><rect opacity=".5" x="119.535" y="96.837" width="115.134" height="58.568" rx="2.6" fill="#fff"/><rect opacity=".9" x="127.044" y="103.847" width="100.116" height="49.558" rx="1.3" fill="#fff"/><g filter="url(#prefix__filter4_i_648_7888)"><path d="M102.196 135.885c-.621-3.944 2.428-7.51 6.42-7.51h136.972c3.993 0 7.041 3.566 6.42 7.51l-7.965 50.576a6.498 6.498 0 01-6.419 5.488H116.581a6.5 6.5 0 01-6.42-5.488l-7.965-50.576z" fill="#B2CCFA"/></g><rect x="160.582" y="175.929" width="33.038" height="5.006" rx="2.503" fill="#72A7F5"/><path d="M308.006 43.776c-2.436 9.034-8.51 28.534-12.715 35.291-4.828 7.76-10.562 8.297-15.318 6.758-15.984-5.17-10.012-22.276 5.506-18.271 15.519 4.005 20.524 23.277-6.257 39.045-18.13 10.675-45.302 12.765-66.577 10.513" stroke="url(#prefix__paint14_linear_648_7888)" stroke-width=".65" stroke-dasharray="3.47 3.47"/><path d="M205.885 115.364c-3.003 0-6.424 2.67-7.759 4.004 1.335.584 4.606 1.752 7.009 1.752 3.003 0 6.007-1.001 5.756-2.753-.5-2.002-2.753-3.003-5.006-3.003z" fill="#AAC8FB"/><mask id="prefix__a" style="mask-type:alpha" maskUnits="userSpaceOnUse" x="198" y="115" width="13" height="7"><path d="M205.886 115.362c-3.004 0-6.424 2.67-7.759 4.005 1.335.584 4.605 1.752 7.008 1.752 3.004 0 6.007-1.001 5.757-2.753-.501-2.003-2.753-3.004-5.006-3.004z" fill="#AAC8FB"/></mask><g mask="url(#prefix__a)"><path opacity=".4" d="M210.896 117.027c-2.403-.601-5.339.419-6.507 1.087 1.645-.686 3.504-.63 5.256-.534.718.04 1.331.119 1.752.198-.084-.167-.301-.551-.501-.751z" fill="#fff"/></g><defs><linearGradient id="prefix__paint0_linear_648_7888" x1="167.74" y1="142.035" x2="167.74" y2="193.55" gradientUnits="userSpaceOnUse"><stop stop-color="#EEF3FC"/><stop offset="1" stop-color="#F9FBFF" stop-opacity="0"/></linearGradient><linearGradient id="prefix__paint1_linear_648_7888" x1="79.785" y1="164.226" x2="79.785" y2="200.403" gradientUnits="userSpaceOnUse"><stop stop-color="#EEF3FC"/><stop offset="1" stop-color="#F9FBFF" stop-opacity="0"/></linearGradient><linearGradient id="prefix__paint2_linear_648_7888" x1="278.204" y1="161.219" x2="278.204" y2="198.6" gradientUnits="userSpaceOnUse"><stop stop-color="#EEF3FC"/><stop offset="1" stop-color="#F9FBFF" stop-opacity="0"/></linearGradient><linearGradient id="prefix__paint3_linear_648_7888" x1="135.458" y1="227.477" x2="231.207" y2="230.077" gradientUnits="userSpaceOnUse"><stop stop-color="#EEF3FC"/><stop offset="1" stop-color="#DFEAFF" stop-opacity="0"/></linearGradient><linearGradient id="prefix__paint4_linear_648_7888" x1="72.853" y1="31.4" x2="72.887" y2="65.772" gradientUnits="userSpaceOnUse"><stop stop-color="#EEF3FC"/><stop offset="1" stop-color="#E0EAFF" stop-opacity="0"/></linearGradient><linearGradient id="prefix__paint5_linear_648_7888" x1="294.677" y1="229.43" x2="306.808" y2="200.618" gradientUnits="userSpaceOnUse"><stop stop-color="#D5E4FF"/><stop offset="1" stop-color="#8BB1FF" stop-opacity="0"/></linearGradient><linearGradient id="prefix__paint6_linear_648_7888" x1="280.813" y1="199.102" x2="294.244" y2="232.246" gradientUnits="userSpaceOnUse"><stop stop-color="#D0E1FE"/><stop offset="1" stop-color="#9ABFF7"/></linearGradient><linearGradient id="prefix__paint7_linear_648_7888" x1="305.508" y1="233.232" x2="281.03" y2="233.232" gradientUnits="userSpaceOnUse"><stop stop-color="#A4C0ED"/><stop offset="1" stop-color="#EDF4FF"/></linearGradient><linearGradient id="prefix__paint8_linear_648_7888" x1="271.432" y1="150.259" x2="279.356" y2="131.746" gradientUnits="userSpaceOnUse"><stop stop-color="#D5E4FF"/><stop offset="1" stop-color="#8BB1FF" stop-opacity="0"/></linearGradient><linearGradient id="prefix__paint9_linear_648_7888" x1="262.625" y1="130.674" x2="271.401" y2="151.977" gradientUnits="userSpaceOnUse"><stop stop-color="#D0E1FE"/><stop offset="1" stop-color="#9ABFF7"/></linearGradient><linearGradient id="prefix__paint10_linear_648_7888" x1="278.312" y1="152.715" x2="262.763" y2="152.715" gradientUnits="userSpaceOnUse"><stop stop-color="#A4C0ED"/><stop offset="1" stop-color="#EDF4FF"/></linearGradient><linearGradient id="prefix__paint11_linear_648_7888" x1="71.653" y1="149.703" x2="82.092" y2="125.384" gradientUnits="userSpaceOnUse"><stop stop-color="#D5E4FF"/><stop offset="1" stop-color="#8BB1FF" stop-opacity="0"/></linearGradient><linearGradient id="prefix__paint12_linear_648_7888" x1="60.106" y1="123.952" x2="71.668" y2="151.939" gradientUnits="userSpaceOnUse"><stop stop-color="#D0E1FE"/><stop offset="1" stop-color="#9ABFF7"/></linearGradient><linearGradient id="prefix__paint13_linear_648_7888" x1="80.673" y1="152.932" x2="60.286" y2="152.932" gradientUnits="userSpaceOnUse"><stop stop-color="#A4C0ED"/><stop offset="1" stop-color="#EDF4FF"/></linearGradient><linearGradient id="prefix__paint14_linear_648_7888" x1="308.256" y1="43.776" x2="216.149" y2="121.116" gradientUnits="userSpaceOnUse"><stop stop-color="#AAC8FB" stop-opacity=".15"/><stop offset=".545" stop-color="#88B6FA"/><stop offset="1" stop-color="#A9CAFA" stop-opacity=".5"/></linearGradient><filter id="prefix__filter0_f_648_7888" x="277.761" y="229.906" width="29.892" height="6.716" filterUnits="userSpaceOnUse" color-interpolation-filters="sRGB"><feFlood flood-opacity="0" result="BackgroundImageFix"/><feBlend in="SourceGraphic" in2="BackgroundImageFix" result="shape"/><feGaussianBlur stdDeviation="1.17" result="effect1_foregroundBlur_648_7888"/></filter><filter id="prefix__filter1_f_648_7888" x="259.833" y="149.738" width="20.695" height="5.995" filterUnits="userSpaceOnUse" color-interpolation-filters="sRGB"><feFlood flood-opacity="0" result="BackgroundImageFix"/><feBlend in="SourceGraphic" in2="BackgroundImageFix" result="shape"/><feGaussianBlur stdDeviation="1.17" result="effect1_foregroundBlur_648_7888"/></filter><filter id="prefix__filter2_f_648_7888" x="57.173" y="149.755" width="25.677" height="6.409" filterUnits="userSpaceOnUse" color-interpolation-filters="sRGB"><feFlood flood-opacity="0" result="BackgroundImageFix"/><feBlend in="SourceGraphic" in2="BackgroundImageFix" result="shape"/><feGaussianBlur stdDeviation="1.17" result="effect1_foregroundBlur_648_7888"/></filter><filter id="prefix__filter3_i_648_7888" x="108.022" y="66.804" width="138.161" height="79.092" filterUnits="userSpaceOnUse" color-interpolation-filters="sRGB"><feFlood flood-opacity="0" result="BackgroundImageFix"/><feBlend in="SourceGraphic" in2="BackgroundImageFix" result="shape"/><feColorMatrix in="SourceAlpha" values="0 0 0 0 0 0 0 0 0 0 0 0 0 0 0 0 0 0 127 0" result="hardAlpha"/><feOffset dx="1.733" dy="1.733"/><feComposite in2="hardAlpha" operator="arithmetic" k2="-1" k3="1"/><feColorMatrix values="0 0 0 0 0.365858 0 0 0 0 0.603443 0 0 0 0 0.954655 0 0 0 1 0"/><feBlend in2="shape" result="effect1_innerShadow_648_7888"/></filter><filter id="prefix__filter4_i_648_7888" x="102.116" y="128.375" width="149.973" height="63.574" filterUnits="userSpaceOnUse" color-interpolation-filters="sRGB"><feFlood flood-opacity="0" result="BackgroundImageFix"/><feBlend in="SourceGraphic" in2="BackgroundImageFix" result="shape"/><feColorMatrix in="SourceAlpha" values="0 0 0 0 0 0 0 0 0 0 0 0 0 0 0 0 0 0 127 0" result="hardAlpha"/><feOffset dy="1.733"/><feComposite in2="hardAlpha" operator="arithmetic" k2="-1" k3="1"/><feColorMatrix values="0 0 0 0 0.45696 0 0 0 0 0.629354 0 0 0 0 0.934359 0 0 0 1 0"/><feBlend in2="shape" result="effect1_innerShadow_648_7888"/></filter></defs></svg>
