<svg width="40" height="40" fill="none" xmlns="http://www.w3.org/2000/svg"><path d="M20.16 0l7.72 7.684a7.507 7.507 0 012.215 5.313 7.477 7.477 0 01-2.214 5.314l-7.725-7.688a7.506 7.506 0 01-2.21-5.312A7.476 7.476 0 0120.158 0zM12.316 21.693l7.725 7.687a7.49 7.49 0 012.21 5.31 7.491 7.491 0 01-2.21 5.31l-7.736-7.698a7.491 7.491 0 01-2.2-5.307 7.491 7.491 0 012.21-5.302z" fill="currentColor"/><path d="M40 20.142l-7.725 7.688a7.549 7.549 0 01-5.339 2.199 7.578 7.578 0 01-5.337-2.203l7.722-7.684a7.579 7.579 0 0110.68 0z" fill="currentColor"/><path d="M18.4 12.37l-7.72 7.683a7.578 7.578 0 01-10.68 0l7.725-7.687a7.578 7.578 0 0110.676.004z" fill="currentColor"/></svg>
