<svg width="606" height="766" fill="none" xmlns="http://www.w3.org/2000/svg" xmlns:xlink="http://www.w3.org/1999/xlink"><path opacity=".85" fill="#005CE2" d="M0 0h606v766H0z"/><mask id="prefix__a" style="mask-type:alpha" maskUnits="userSpaceOnUse" x="0" y="0" width="606" height="766"><path fill="#3B63D9" d="M0 0h606v766H0z"/></mask><g mask="url(#prefix__a)" fill="#EDEFF7"><path opacity=".1" d="M557.675 73.673c6.281-4.148 13.049-7.352 20.118-9.525l2.949-15.3c.333-1.778 1.207-3.38 2.483-4.548 1.275-1.166 2.875-1.829 4.539-1.879l21.839-.42c1.671-.022 3.3.57 4.625 1.68 1.324 1.11 2.268 2.675 2.678 4.44l3.511 15.3c7.13 1.89 13.992 4.823 20.398 8.722l12.254-8.721c1.346-.982 2.962-1.428 4.574-1.26 1.613.167 3.122.937 4.274 2.178l15.975 16.792c1.188 1.212 1.954 2.836 2.165 4.594a8.208 8.208 0 01-1.007 5.046l-7.583 13.618a92.494 92.494 0 018.707 21.957l15.448 3.48c1.265.287 2.403 1.034 3.226 2.118a6.544 6.544 0 011.304 3.85l.421 26.776a6.507 6.507 0 01-1.246 3.727c-.781 1.058-1.861 1.806-3.073 2.126l-15.308 4.208a94.393 94.393 0 01-8.005 22.224l7.338 12.164c1.075 1.801 1.559 3.945 1.374 6.084-.185 2.139-1.028 4.147-2.392 5.698l-13.728 15.301c-1.362 1.552-3.17 2.55-5.124 2.829-1.955.278-3.937-.18-5.62-1.299l-11.446-7.651c-6.293 4.124-13.057 7.326-20.118 9.525l-3.124 16.334c-.219 1.543-.924 2.956-1.994 3.996-1.069 1.04-2.437 1.642-3.87 1.703l-23.664.459c-1.418.02-2.8-.484-3.921-1.428-1.122-.945-1.918-2.274-2.258-3.774l-3.511-16.219a79.735 79.735 0 01-20.399-8.759l-12.113 8.644c-1.379 1-3.03 1.455-4.679 1.287-1.648-.167-3.194-.945-4.38-2.205l-15.799-16.601c-1.194-1.257-1.96-2.919-2.17-4.713a8.542 8.542 0 011.011-5.156l7.479-13.465a95.502 95.502 0 01-8.743-21.918l-15.975-3.443c-1.184-.268-2.25-.967-3.021-1.982a6.13 6.13 0 01-1.227-3.603l-.457-27.35a6.124 6.124 0 011.107-3.652c.741-1.044 1.788-1.78 2.966-2.086l15.589-4.169a94.843 94.843 0 018.04-22.187l-7.759-13.005a9.089 9.089 0 01-1.228-5.434c.165-1.91.92-3.703 2.141-5.086l14.746-16.64c1.228-1.374 2.845-2.257 4.591-2.507 1.745-.25 3.517.148 5.029 1.13l12.043 7.995zm21.452 45.329c-5.903 5.115-10.187 12.115-12.251 20.019a42.663 42.663 0 00.746 24.047c2.549 7.734 7.257 14.403 13.464 19.072 6.206 4.669 13.6 7.101 21.141 6.957 7.541-.145 14.851-2.859 20.903-7.763 6.052-4.903 10.542-11.749 12.84-19.576a42.677 42.677 0 00-.031-24.06c-2.317-7.82-6.825-14.652-12.889-19.537-6.386-5.145-14.152-7.85-22.093-7.698-7.941.152-15.614 3.153-21.83 8.539zM383.061-42.095a49.131 49.131 0 0112.643-5.986l1.853-9.616a5.154 5.154 0 011.56-2.857 4.422 4.422 0 012.853-1.181L415.694-62a4.433 4.433 0 012.907 1.057c.832.698 1.425 1.68 1.683 2.79l2.206 9.615a48.577 48.577 0 0112.82 5.481l7.7-5.48a4.14 4.14 0 012.875-.793c1.013.105 1.962.59 2.686 1.37l10.039 10.552a4.968 4.968 0 011.361 2.887 5.158 5.158 0 01-.633 3.171l-4.766 8.558a58.09 58.09 0 015.472 13.799l9.709 2.187a3.54 3.54 0 012.027 1.331 4.11 4.11 0 01.819 2.42l.265 16.827a4.087 4.087 0 01-.783 2.342 3.534 3.534 0 01-1.931 1.336l-9.62 2.644a59.325 59.325 0 01-5.031 13.967l4.611 7.644c.676 1.132.98 2.48.864 3.824-.116 1.344-.646 2.606-1.504 3.58l-8.627 9.616c-.856.976-1.992 1.603-3.22 1.778a5.069 5.069 0 01-3.532-.816l-7.193-4.808a50.405 50.405 0 01-12.643 5.986l-1.963 10.264a4.355 4.355 0 01-1.253 2.511 3.718 3.718 0 01-2.432 1.071L403.735 75a3.741 3.741 0 01-2.464-.898 4.352 4.352 0 01-1.419-2.372l-2.207-10.192a50.102 50.102 0 01-12.819-5.505l-7.612 5.433a4.261 4.261 0 01-2.94.808c-1.036-.105-2.008-.594-2.753-1.385l-9.929-10.433a5.182 5.182 0 01-1.364-2.962 5.37 5.37 0 01.636-3.24l4.7-8.462a60.036 60.036 0 01-5.495-13.775l-10.039-2.163a3.319 3.319 0 01-1.899-1.246 3.854 3.854 0 01-.771-2.264l-.287-17.188c-.015-.83.23-1.64.696-2.295a3.319 3.319 0 011.864-1.31l9.797-2.621a59.563 59.563 0 015.052-13.943l-4.876-8.173a5.714 5.714 0 01-.772-3.415 5.566 5.566 0 011.346-3.196l9.267-10.457c.772-.864 1.788-1.419 2.885-1.576a4.59 4.59 0 013.161.71l7.568 5.025zm13.481 28.486c-3.71 3.214-6.402 7.614-7.699 12.58a26.81 26.81 0 00.469 15.113c1.602 4.86 4.561 9.052 8.461 11.986 3.901 2.933 8.547 4.462 13.286 4.372 4.739-.091 9.333-1.797 13.136-4.879 3.804-3.081 6.626-7.383 8.07-12.302a26.824 26.824 0 00-.02-15.12c-1.456-4.915-4.289-9.209-8.1-12.279-4.013-3.232-8.893-4.933-13.884-4.837-4.99.095-9.812 1.982-13.719 5.366z"/></g><path d="M245.95 461.426l28.781-16.149c3.185 11.957 13.173 26.182 24.189 32.688l-23.555 16.993c-1.329.982-2.799 1.989-4.427 1.967-1.741-.002-3.14-1.143-4.308-2.262a76.9 76.9 0 01-20.68-33.237z" fill="#EDEFF7"/><path d="M271.677 456.725c-4.484 2.636-8.969 5.271-13.439 7.94a195.533 195.533 0 00-3.225 1.945c-.49.311-.884-.5-.393-.804 4.877-3.038 9.908-5.915 14.879-8.839l1.782-1.066c.501-.292.893.512.392.803l.004.021zM274.25 460.761l-14.523 8.75-2.095 1.264c-.5.299-.885-.506-.393-.803l14.511-8.777 2.095-1.264c.5-.299.886.513.401.809l.004.021zM276.972 464.893a515.04 515.04 0 01-16.556 10.536c-.493.298-.886-.513-.394-.811a518.188 518.188 0 0016.329-10.384c.482-.317 1.07.362.589.679l.032-.02zM279.573 469.003a525.13 525.13 0 01-16.528 10.531c-.498.306-.885-.506-.399-.802a541.998 541.998 0 0016.329-10.384c.476-.309 1.07.362.588.679l.01-.024zM282.178 473.128a520.72 520.72 0 01-16.559 10.522c-.492.305-.885-.506-.393-.803a539.485 539.485 0 0016.329-10.384c.482-.318 1.077.36.596.677l.027-.012zM285.987 476.741a535.07 535.07 0 01-16.528 10.531c-.498.306-.885-.507-.401-.81a518.188 518.188 0 0016.329-10.384c.475-.316 1.07.362.589.679l.011-.016z" fill="#B5CFFF"/><ellipse opacity=".5" cx="423.5" cy="528.5" rx="132.5" ry="13.5" fill="#023283"/><ellipse opacity=".5" cx="152" cy="528.5" rx="83" ry="10.5" fill="#023283"/><path d="M62.188 64l9.266 9.22a9.007 9.007 0 011.966 2.924 8.97 8.97 0 01-1.966 9.827l-9.27-9.224A8.972 8.972 0 0162.187 64zM52.776 90.032l9.27 9.225a8.987 8.987 0 012.652 6.371A8.99 8.99 0 0162.046 112l-9.283-9.237a8.99 8.99 0 01-2.64-6.368 8.989 8.989 0 012.653-6.363zM86 88.171l-9.27 9.225a9.057 9.057 0 01-2.939 1.954 9.1 9.1 0 01-6.933-.003 9.056 9.056 0 01-2.938-1.955l9.266-9.22a9.093 9.093 0 0112.814 0zM60.08 78.844l-9.265 9.22a9.094 9.094 0 01-12.814 0l9.27-9.224a9.093 9.093 0 0112.81.004zM102.25 76.58h3.72L114.22 98h-3.51l-2.01-5.52h-9.21L97.48 98H94l8.25-21.42zm-1.77 13.2h7.23l-3.54-9.69h-.12l-3.57 9.69zm15.895-13.2h3.24V98h-3.24V76.58zm7.498 0h9.48c2.16 0 3.9.48 5.16 1.47 1.32 1.08 1.98 2.61 1.98 4.65 0 1.14-.3 2.13-.9 3-.69.96-1.62 1.59-2.79 1.89v.06c1.92.42 2.97 1.68 3.21 3.78l.36 3.42c.12 1.32.54 2.37 1.26 3.15h-3.54c-.51-.66-.81-1.62-.93-2.82l-.27-2.67c-.12-1.2-.51-2.04-1.14-2.58-.66-.54-1.59-.78-2.82-.78h-5.79V98h-3.27V76.58zm3.27 2.79v6.99h5.79c1.44 0 2.52-.33 3.24-.93.69-.6 1.05-1.47 1.05-2.61 0-1.2-.36-2.07-1.02-2.61-.72-.57-1.8-.84-3.3-.84h-5.76zm23.652-2.79h3.72l8.25 21.42h-3.51l-2.01-5.52h-9.21l-2.01 5.52h-3.48l8.25-21.42zm-1.77 13.2h7.23l-3.54-9.69h-.12l-3.57 9.69z" fill="#fff"/><path d="M400.61 216.824c1.602-11.764 8.413-19.021 17.242-23.428a2.913 2.913 0 013.123.348 2.922 2.922 0 01.998 2.98 29.275 29.275 0 01-11.117 16.857c-2.827 2.08-6.286 3.667-9.815 3.42M394.678 221.47c-7.719-9.684-7.981-20.085-4.645-29.892a2.315 2.315 0 011.845-1.552 2.31 2.31 0 012.223.935 29.281 29.281 0 015.308 20.801c-.47 3.506-1.687 7.081-4.291 9.476" fill="#00D4B5"/><path d="M393.199 231a68.057 68.057 0 001.225-28.452c-.062-.362-.617-.208-.555.154a67.492 67.492 0 01-1.248 28.167.282.282 0 00.027.218.289.289 0 00.528-.064l.023-.023z" fill="#26244A"/><path d="M397.005 225.561c.223-2.643 2.796-4.438 5.015-5.879a19.584 19.584 0 0117.958-1.54c.624.261 1.318.67 1.403 1.348a2.008 2.008 0 01-.678 1.471c-5.178 5.778-16.31 6.934-23.775 4.815" fill="#00D4B5"/><path d="M393.815 228.249c3.721-3.259 8.382-6.394 13.49-6.548.37 0 .377-.593 0-.578-5.27.162-10.015 3.359-13.867 6.718-.286.239.123.647.408.408h-.031z" fill="#26244A"/><path d="M394.101 227.787a75.573 75.573 0 0118.436-21.995c.285-.239-.124-.64-.409-.409a76.044 76.044 0 00-18.49 22.127.29.29 0 00-.006.205.293.293 0 00.507.087l-.038-.015z" fill="#26244A"/><path d="M262.952 333.27c-9.151-7.564-19.077-8.285-28.556-5.542a2.922 2.922 0 00-1.836 3.994c.227.509.596.941 1.061 1.247a29.273 29.273 0 0019.599 4.86c3.489-.386 7.108-1.564 9.535-4.136M270.462 332.666c-.887-12.352-7.743-20.178-16.843-25.128a2.302 2.302 0 00-2.408.11 2.303 2.303 0 00-1 2.193 29.27 29.27 0 0010.194 18.893c2.721 2.259 6.039 4.063 9.577 4.06" fill="#00D4B5"/><path d="M278.009 338.671a68.026 68.026 0 01-20.183-20.091c-.2-.308.312-.57.512-.262a67.48 67.48 0 0020.007 19.865c.065.04.111.105.128.179a.285.285 0 01-.214.346.292.292 0 01-.218-.036l-.032-.001z" fill="#26244A"/><path d="M271.524 337.251c-1.955-1.792-5.064-1.368-7.672-.923a19.564 19.564 0 00-14.249 11.038c-.281.615-.515 1.385-.117 1.941a2.006 2.006 0 001.495.623c7.723.74 16.692-5.955 20.746-12.572" fill="#00D4B5"/><path d="M275.692 337.066c-4.945.126-10.497.979-14.358 4.328-.272.25-.679-.181-.391-.425 3.984-3.453 9.641-4.318 14.749-4.459.372-.017.348.56-.023.577l.023-.021z" fill="#26244A"/><path d="M275.168 336.92a75.573 75.573 0 00-28.463-3.679c-.371.018-.343-.554.024-.577a76.022 76.022 0 0128.591 3.739.285.285 0 01.144.146.29.29 0 01-.112.368.292.292 0 01-.202.04l.018-.037z" fill="#26244A"/><path d="M301.827 224.785l-5.78 1.558a2.92 2.92 0 00-2.06 3.579l4.578 16.99a2.92 2.92 0 003.579 2.06l5.78-1.558a2.92 2.92 0 002.06-3.579l-4.578-16.99a2.92 2.92 0 00-3.579-2.06z" fill="#0851BD"/><path d="M241.175 255.451C258.717 318 291.413 429.14 300.204 458.947a8.202 8.202 0 009.846 5.647l148.766-36.679-57.295-218.62-156.972 40.301a4.73 4.73 0 00-3.374 5.855z" fill="#0B46A8"/><path d="M358.826 381.937c-6.117-14.638-20.662-23.806-35.1-30.316-14.437-6.51-29.961-11.487-42.064-21.702v5.262a84.207 84.207 0 0033.975 44.46c6.34 4.114 13.305 7.427 18.744 12.689 12.843 12.426 13.413 35.308 1.209 48.366 6.549 2.211 13.983-1.271 18.244-6.718 4.26-5.447 5.947-12.434 7.049-19.26 1.764-10.948 2.219-22.542-2.057-32.781z" fill="#26244A" opacity=".3"/><path d="M478.824 340.504c-6.88-8.829-17.057-16.764-26.263-23.336-18.49-13.189-26.348-24.075-32.674-45.392-6.325-21.318-18.366-62.404-18.366-62.404l-148.343 38.452s13.097 40.516 18.798 62.01c5.701 21.495 18.96 42.804 37.442 55.986 9.245 6.571 20.185 10.662 28.945 17.781 18.952 15.408 23.343 44.992 9.637 64.892l141.402-36.479c13.705-19.892 4.9-51.672-10.578-71.51z" fill="#ECF3FF"/><path d="M292.851 284.153l97.334-26.964M309.851 324.153l97.334-26.964M375.851 400.153l97.334-26.964M348.851 358.153l97.334-26.964M297.851 296.153l57.822-16.018M316.851 336.153l57.822-16.018M377.851 416.153l57.822-16.018M360.851 368.153l57.822-16.018" stroke="#B5CFFF" stroke-width="6" stroke-linecap="round"/><path d="M479.055 340.265a95.928 95.928 0 00-15.192-14.961c-5.316-4.33-11.009-8.128-16.395-12.327-8.536-6.671-15.847-14.537-20.801-24.268-4.853-9.599-7.457-20.177-10.485-30.446-3.028-10.27-6.063-20.67-9.099-31.009-1.15-3.929-2.303-7.861-3.459-11.795-.578-1.965-1.024-4.045-1.749-5.963 0-.093-.053-.193-.077-.285a.302.302 0 00-.354-.201l-14.784 3.853-35.493 9.214-42.904 11.14-36.888 9.584-12.226 3.174c-1.903.493-3.952.832-5.801 1.541l-.247.061a.297.297 0 00-.172.137.295.295 0 00-.028.218 1825.536 1825.536 0 018.359 26.417c2.291 7.396 4.525 14.81 6.703 22.242 2.134 7.326 3.852 14.823 6.432 22.003 6.272 17.373 17.05 33.528 31.587 45.03 7.704 6.11 16.687 10.1 25.039 15.224 7.48 4.622 13.805 10.423 18.151 18.12 7.896 13.983 8.852 31.926 1.54 46.355a46.12 46.12 0 01-2.989 5.039.291.291 0 00.026.316.289.289 0 00.298.108l5.824-1.503 15.408-3.975 21.78-5.616 25.254-6.518 25.547-6.587 22.65-5.848 16.856-4.36 5.247-1.356a19.96 19.96 0 002.612-.678c.57-.231.77-.724 1.109-1.271a37.215 37.215 0 003.783-7.951 48.727 48.727 0 002.257-18.205c-.693-13.05-5.323-25.908-12.103-36.979a83.659 83.659 0 00-5.27-7.643c-.231-.293-.639.116-.408.409a84.042 84.042 0 0116.248 36.155 57.001 57.001 0 01.377 19.476 41.33 41.33 0 01-2.396 8.636 35.037 35.037 0 01-3.158 6.11 4.696 4.696 0 01-.385.685 6.435 6.435 0 01-1.757.455l-4.407 1.14-15.408 3.968-21.648 5.585-24.931 6.433-25.223 6.51-22.535 5.817-16.81 4.322-5.393 1.394c-.964.165-1.912.41-2.835.732-.119.039-.24.07-.362.092l.323.424c8.906-13.035 10.239-30.2 4.754-44.853a48.124 48.124 0 00-13.043-19.207c-7.373-6.517-16.533-10.446-24.9-15.408-16.679-9.969-29.283-25.793-37.126-43.305-3.444-7.704-5.532-15.708-7.812-23.782-2.096-7.396-4.307-14.761-6.556-22.119a2452.954 2452.954 0 00-9.985-31.687c-.054-.177-.115-.354-.169-.531l-.201.354 14.777-3.852 35.493-9.245 42.904-11.148 36.887-9.53 12.227-3.181 3.852-.987a8.179 8.179 0 001.987-.516c.082-.032.168-.055.255-.069l-.393-.2a6887.59 6887.59 0 004.376 14.907c2.999 10.221 6.004 20.442 9.013 30.662 3.005 10.224 5.571 20.801 9.893 30.524a69.794 69.794 0 0018.798 24.861c4.899 4.191 10.246 7.766 15.369 11.657a121.999 121.999 0 0116.556 14.668 73.939 73.939 0 013.375 3.991c.223.323.632-.085.431-.378z" fill="#26244A"/><path d="M351.469 211.407l-51.491 13.874a3.775 3.775 0 00-2.663 4.627l4.133 15.339a3.776 3.776 0 004.627 2.663l51.492-13.875a3.775 3.775 0 002.663-4.627l-4.133-15.338a3.775 3.775 0 00-4.628-2.663z" fill="#FFAD00"/><path d="M336.667 208.04l-25.639 6.887a1.35 1.35 0 00-.609 2.242l11.471 11.664 11.849-2.95 4.553-16.179a1.35 1.35 0 00-.932-1.653 1.346 1.346 0 00-.693-.011z" fill="#FFAD00"/><path d="M301.38 225.056l37.458-10.092 10.785-2.897a.291.291 0 00.18-.352.292.292 0 00-.334-.21l-37.472 10.1-10.786 2.896a.296.296 0 00-.174.136.284.284 0 00-.026.219.286.286 0 00.354.2h.015z" fill="#26244A"/><path d="M440.748 383.996l-33.274 8.966a2.812 2.812 0 00-1.984 3.447l.071.26a2.81 2.81 0 003.446 1.983l33.274-8.965a2.812 2.812 0 001.984-3.447l-.07-.26a2.813 2.813 0 00-3.447-1.984z" fill="#B8C1EA"/><path d="M245.327 250.613l1.703 5.678 4.622 15.462 6.872 22.866 8.382 27.904 9.176 30.562 9.245 30.817 8.69 28.79 7.296 24.306 5.254 17.465c.824 2.759 1.625 5.517 2.481 8.267 0 .116.069.231.107.347a.29.29 0 00.355.2.284.284 0 00.173-.136.282.282 0 00.027-.218l-1.687-5.678-4.623-15.462-6.933-22.866-8.359-27.905-9.183-30.562-9.245-30.816-8.652-28.791-7.311-24.283-5.247-17.488c-.824-2.751-1.633-5.516-2.481-8.267-.038-.115-.069-.231-.107-.346a.289.289 0 00-.528-.065.284.284 0 00-.027.219z" fill="#26244A"/><path d="M345 500.628s5.847-9.245 18.367-4.206l3.228-6.241 26.194 16.51-8.914 16.418L345 500.628z" fill="#D4E3FF"/><path d="M356.856 493.586a44.137 44.137 0 013.899 6.087c.177.323.678 0 .5-.293a44.778 44.778 0 00-3.898-6.086c-.223-.293-.724 0-.501.292zM359.915 494.218l3.259 5.824a.289.289 0 00.175.107c.07.014.142.001.203-.035a.286.286 0 00.129-.159.284.284 0 00-.007-.205 1549.368 1549.368 0 00-3.266-5.825c-.177-.323-.678-.038-.493.293z" fill="#26244A"/><path d="M484.314 490.073s-10.123-3.59-8.066-16.694l-7.211-2.358 8.659-29.275 19.699 6.117-13.081 42.21z" fill="#D4E3FF"/><path d="M475.908 479.157a42.356 42.356 0 014.792-4.885c.285-.246-.123-.654-.408-.408a42.195 42.195 0 00-4.792 4.885c-.239.285.17.693.408.408zM475.838 476.198l4.7-4.245c.277-.254-.139-.655-.409-.408l-4.699 4.245c-.277.254.131.662.408.408z" fill="#26244A"/><path d="M441.733 366.946l-.902 18.352s-36.209 30.377-38.882 41.062c-2.242 9.053-1.341 18.714 14.483 26.41 13.922 6.772 57.065 20.932 57.065 20.932l10.084-30.816-41.247-15.17s29.275-21.109 32.257-26.194c8.474-14.637-2.758-38.459-2.758-38.459l-6.98.309-23.12 3.574z" fill="#2B2B38"/><path d="M425.762 360.413l-5.308 15.224c-17.404 40.061-39.098 82.28-56.787 115.939l28.775 18.698a688.923 688.923 0 0042.996-95.462l10.879-38.182-6.556-12.157-13.999-4.06z" fill="#2B2B38"/><path d="M440.469 385.952c-9.761 8.475-18.49 18.143-28.05 26.818a38.435 38.435 0 00-7.751 9.161 18.96 18.96 0 00-2.819 8.251 32.577 32.577 0 00.654 9.861 15.408 15.408 0 005.671 8.659c3.428 2.566 7.596 4.045 11.448 5.848.331.162.632-.339.293-.501-3.344-1.541-6.834-2.897-10.016-4.846a15.118 15.118 0 01-6.502-7.966c-1.048-3.082-1.117-6.394-1.071-9.622a18.6 18.6 0 012.527-8.945 35.435 35.435 0 017.381-9.014c4.676-4.175 9.121-8.613 13.582-13.004 4.923-4.846 9.8-9.761 15.008-14.291.285-.247-.124-.655-.409-.409h.054z" fill="#EDEFF7"/><path d="M440.731 290.391c0 .354-1.047 12.503-1.047 12.503l15.161 1.279 1.541-18.305-15.655 4.523z" fill="#FCE8CB"/><path d="M439.799 294.497s-9.083-2.196-8.243-12.419c.349-4.582.975-9.138 1.872-13.644 1.333-6.934 6.826-9.376 14.299-8.598l.77.077c7.958 1.271 12.627 6.04 11.156 13.467l-1.503 7.149s-.67 15.84-18.335 13.983" fill="#FCE8CB"/><path d="M434.861 276.284a1.085 1.085 0 00.94 1.202 1.042 1.042 0 001.233-.855 1.09 1.09 0 00-.94-1.202 1.054 1.054 0 00-1.084.468c-.075.118-.126.25-.149.387zM444.937 277.841a1.078 1.078 0 00.986 1.201 1.04 1.04 0 00.797-.167 1.055 1.055 0 00.436-.688 1.094 1.094 0 00-.948-1.202 1.04 1.04 0 00-1.271.856zM450.014 274.813a3.857 3.857 0 00-3.852-.501.292.292 0 00-.137.174.283.283 0 00-.007.112.272.272 0 00.036.107.31.31 0 00.401.108 3.214 3.214 0 013.181.408.31.31 0 00.409 0 .293.293 0 000-.408h-.031zM438.682 273.411a3.851 3.851 0 00-3.852-.501.3.3 0 00-.108.401.3.3 0 00.4.1 3.228 3.228 0 013.182.408.288.288 0 10.408-.408h-.03zM438.759 269.281a9.163 9.163 0 00-3.166-.292 1.04 1.04 0 00-.686.285.96.96 0 00.007 1.356c.18.181.424.283.679.285a8.512 8.512 0 011.826.038l-.262-.038a8.4 8.4 0 011.086.223.964.964 0 10.516-1.857zM450.301 270.707a9.343 9.343 0 00-3.167-.286 1.074 1.074 0 00-.685.278.995.995 0 00-.278.685.972.972 0 00.963.963 8.574 8.574 0 011.826 0h-.262c.365.057.725.136 1.079.239a.963.963 0 10.516-1.856l.008-.023z" fill="#26244A"/><path d="M460.099 279.435a4.394 4.394 0 00-3.929.054l-1.002 6.395a4.501 4.501 0 003.999.477 4.192 4.192 0 002.588-3.197 3.722 3.722 0 00-1.656-3.729z" fill="#FCE8CB"/><path d="M457.226 283.01a1.918 1.918 0 011.025-1.032 1.715 1.715 0 011.656.1c.316.193.609-.308.293-.501a2.314 2.314 0 00-2.204-.115 2.45 2.45 0 00-.807.562 2.458 2.458 0 00-.525.832c-.116.354.439.509.562.154zM440.315 294.782a10.12 10.12 0 008.051-1.849c.293-.223 0-.732-.293-.501a9.543 9.543 0 01-7.604 1.795c-.362-.077-.516.478-.154.555z" fill="#ED796A"/><path d="M440.986 276.392c-.208.771-.408 1.541-.616 2.265a9.36 9.36 0 01-.3 1.094c-.124.27-.501.108-.771.093-.516-.039-1.017.292-.878.87.113.318.277.614.485.878.224.339.447.678.663 1.025.216.347.701 0 .501-.293l-.571-.878c-.1-.162-.208-.323-.315-.485-.108-.162-.208-.278-.201-.401 0-.239.439-.115.593-.1a.84.84 0 001.071-.77l.278-1.017c.2-.717.393-1.433.593-2.15a.293.293 0 00-.562-.154l.03.023z" fill="#26244A"/><path d="M462.103 277.209c.323-.555.686-1.085 1.086-1.587a14.142 14.142 0 002.766-7.003 7.433 7.433 0 00-2.396-6.163c-1.248-1.102-5.393-1.295-5.393-1.295s-2.203-4.522-3.852-6.094a14.84 14.84 0 00-6.641-3.813 8.47 8.47 0 00-7.273 1.541c-.46.471-.978.882-1.54 1.225-1.079.523-2.358.215-3.552.069-2.558-.324-5.393.246-7.149 2.103-1.757 1.857-2.127 5.154-.301 6.934.771.77 1.888 1.371 1.949 2.434a4.58 4.58 0 01-.708 1.942 3.972 3.972 0 00.315 3.69 4.07 4.07 0 003.244 1.649l.477-2.273s.601-5.994 2.312-4.807c3.736 2.588 7.188.94 9.291-.239a6.574 6.574 0 013.798-.57 5.628 5.628 0 015.331 5.886c0 3.312-1.078 7.773-.893 9.63.046.462-.054 1.872 1.54 2.003 0 0 .555.431 1.248-1.009.694-1.441 1.541-2.951 4.715-1.749l1.626-2.504z" fill="#2B2B38"/><path d="M440.931 285.784a3.309 3.309 0 004.022-2.312.294.294 0 00-.211-.334.29.29 0 00-.351.18 2.74 2.74 0 01-3.305 1.934.292.292 0 00-.334.211.292.292 0 00.179.351v-.03z" fill="#ED796A"/><path d="M405.37 336.091s-3.945 9.168-4.191 12.15c-.247 2.981 1.656 7.704 7.773 7.473L419.738 352l1.918-13.158-16.286-2.751z" fill="#FCE8CB"/><path d="M497.496 328.642l-25.047 12.38-8.104-19.337 15.477-14.723a22.747 22.747 0 015.254 4.623c3.105 3.952 12.42 17.057 12.42 17.057zM435.639 302.632s-11.495-1.787-17.881 6.441c-2.651 3.436-14.207 26.564-14.207 26.564l23.706 5.724 8.382-38.729z" fill="#00C1FF"/><path d="M473.389 359.319l1.394-31.587-41.833-6.494c-1.541 5.493-2.381 11.964-3.952 17.457-.709 2.458-1.541 5.1-3.606 6.603l-7.365 22.342c47.527 16.571 57.01-2.419 57.164-4.053.255-3.174-1.802-4.268-1.802-4.268z" fill="#00C1FF"/><path d="M456.147 300.776c-3.251 2.226-9.507 4.214-16.464.254a109.54 109.54 0 00-12.974 3.082l3.406 28.05c1.402 8.814 2.457 15.594 3.212 19.261h38.791l5.508-49.761-21.479-.886z" fill="#00C1FF"/><path d="M476.686 302.725a15.076 15.076 0 00-5.5 11.279c0 .37.562.37.577 0a14.52 14.52 0 015.332-10.871c.285-.239-.124-.647-.409-.408zM425.846 345.552l.347-26.294.046-3.721a.29.29 0 00-.289-.246.292.292 0 00-.289.246l-.346 26.294-.046 3.721a.293.293 0 00.577 0zM440.685 364.543a43.206 43.206 0 0024.915-3.853c.339-.161.046-.662-.293-.5a42.492 42.492 0 01-24.476 3.79c-.362-.054-.516.501-.146.555v.008z" fill="#26244A"/><path d="M406.632 343.726a25.532 25.532 0 0112.72-4.191c.37 0 .37-.593 0-.578a26.034 26.034 0 00-13.005 4.268c-.315.208 0 .709.285.501z" fill="#ED796A"/><path d="M506.909 345.005l-11.279-15.439-16.032 7.673 12.542 10.224 14.769-2.458z" fill="#FCE8CB"/><path d="M509.344 273.033l-3.613 4.9-95.939 119.853-23.667 6.279 2.519-23.251 97.857-125.1 22.843 17.319z" fill="#FFAD00"/><path d="M501.624 266.839l-99.229 125.146-6.541-5.316 98.76-125.138 7.01 5.308z" fill="#2B2B38"/><path d="M388.644 380.814l20.956 17.018-14.168 3.768-8.29-6.949 1.502-13.837z" fill="#FFD2D2"/><path d="M504.29 256.762c-6.402-4.977-13.49-5.185-17.789-1.047l22.843 17.318c2.904-5.616-.393-12.619-5.054-16.271z" fill="#EF6856"/><path d="M482.834 260.406l22.897 17.527 3.613-4.9-22.842-17.319-3.668 4.692z" fill="#FF8000"/><path d="M488.612 337.301l13.136 3.852a9.039 9.039 0 016.302 11.009 6.758 6.758 0 01-.208.632c-1.04 2.789-3.429 5.169-6.356 5.686-2.311.416-4.684-.332-6.934-1.071-12.981-4.268-21.263-6.333-33.436-12.55l11.048-11.557 16.448 3.999z" fill="#FCE8CB"/><path d="M459.021 328.187c-.832-1.441-3.852-2.974-5.146-3.606-1.295-.631-3.082-.708-3.945.432s-.416 2.642.478 3.613c.976.892 2.11 1.595 3.343 2.072a6.167 6.167 0 013.005 2.481c1.186 2.311-.578 5.139-.278 7.704a6.676 6.676 0 003.29 4.669c1.672 1.032 7.527 2.311 9.43 2.85l7.288-14.067c-4.345-1.048-6.387-1.895-6.98-3.706-.593-1.81-.701-4.977-1.148-6.833a11.167 11.167 0 00-9.314-8.252c-1.086-.131-2.311 0-3.012.84a2.011 2.011 0 00-.38 1.597 2.032 2.032 0 00.927 1.354 29.23 29.23 0 003.081 1.425c1.071.408 2.566 1.302 2.62 2.088 0 0-7.157-4.661-9.114-3.197-1.957 1.464-1.079 2.242-.308 3.405.77 1.163 4.406 2.165 5.716 3.528 1.31 1.364.447 1.603.447 1.603z" fill="#FCE8CB"/><path d="M470.985 332.987c8.197 2.403 16.402 4.799 24.561 7.334.878.27 1.764.547 2.642.84.247.077.501.192.771.254.269.062.285.231.192 0 .124.347.686.2.555-.154s-.501-.339-.77-.424c-.632-.231-1.279-.424-1.926-.632-2.242-.708-4.492-1.386-6.741-2.064a6753.879 6753.879 0 00-15.478-4.623l-3.66-1.078a.286.286 0 00-.354.2.289.289 0 00.2.354l.008-.007z" fill="#ED796A"/><path d="M465.878 339.142l5.193-6.225c.239-.285-.17-.701-.409-.416l-5.192 6.233c-.239.277.169.693.408.408z" fill="#ED796A"/><path d="M414.892 347.648a6.641 6.641 0 015.208-7.705c-.416-.554 0-1.44.401-2.003.401-.562.855-.963 1.541-.77a6.109 6.109 0 01.385-2.211c.385-.701.27-.886 1.009-1.202a5.784 5.784 0 014.16-.062c1.457.447 3.02 1.318 3.236 2.828a3.013 3.013 0 01-2.311 3.374 1.97 1.97 0 01-2.504 2.697 3.075 3.075 0 01-1.003 3.001 3.086 3.086 0 01-3.119.535c-1.001-.378-1.795-1.256-2.842-1.441-1.356-.246-2.828 1.456-4.099 2.92" fill="#FCE8CB"/><path d="M420.1 340.252a6.933 6.933 0 015.647 2.588c.247.277.655-.131.409-.416a7.53 7.53 0 00-6.056-2.75c-.37 0-.37.608 0 .578zM421.918 337.301a10.61 10.61 0 013.675.585c.506.21.991.468 1.448.771.465.257.835.657 1.056 1.14a.288.288 0 10.554-.154 2.624 2.624 0 00-1.024-1.271 8.814 8.814 0 00-1.618-.963 11.246 11.246 0 00-4.091-.717c-.378 0-.37.555 0 .578v.031z" fill="#ED796A"/><path d="M419.861 339.72a6.211 6.211 0 00-2.358 1.194 8.41 8.41 0 00-1.541 1.803 7.646 7.646 0 00-1.463 4.43.293.293 0 00.577 0 7.03 7.03 0 011.341-4.068 8.456 8.456 0 011.356-1.649 5.579 5.579 0 012.234-1.155.296.296 0 00.174-.136.306.306 0 00.035-.107.304.304 0 00-.059-.212.295.295 0 00-.192-.108.281.281 0 00-.112.008h.008z" fill="#ED796A"/><path d="M422.134 336.792a2.6 2.6 0 00-1.879 1.007 2.586 2.586 0 00-.486 2.075.29.29 0 00.135.175.282.282 0 00.219.025.289.289 0 00.2-.354 2.06 2.06 0 01.051-.812 2.041 2.041 0 011.76-1.499.292.292 0 00.285-.285c0-.077-.03-.15-.083-.205a.295.295 0 00-.202-.088v-.039z" fill="#ED796A"/><path d="M428.774 339.836a2.73 2.73 0 002.088-2.127 3.626 3.626 0 00-1.094-3.251c-1.656-1.625-4.799-2.188-6.702-.678a3.378 3.378 0 00-1.279 3.267c.077.362.631.208.562-.154a2.85 2.85 0 011.472-2.928 4.623 4.623 0 013.805-.139 3.904 3.904 0 012.658 2.704 2.275 2.275 0 01-.246 1.742 2.263 2.263 0 01-1.418 1.04c-.362.077-.208.631.154.554v-.03z" fill="#ED796A"/><path fill="#003CA0" d="M46 402h166v4H46z"/><path d="M85.53 370.212v-12.848H77.01v12.848c0 .216-.027.432-.08.642l-6.702 27.208a2.669 2.669 0 002.59 3.306H89.72a2.675 2.675 0 002.102-1.023 2.671 2.671 0 00.49-2.286l-6.703-27.205a2.688 2.688 0 01-.078-.642z" fill="#E8F0FC"/><path d="M89.718 401.512H72.815a2.806 2.806 0 01-2.212-1.078 2.819 2.819 0 01-.518-2.406l6.704-27.212c.048-.198.072-.401.072-.604V357.22h8.812v12.992c0 .203.024.406.072.604l6.705 27.212a2.811 2.811 0 01-2.732 3.484zM77.15 357.509v12.703c0 .227-.026.453-.08.673l-6.708 27.211a2.525 2.525 0 002.452 3.127h16.903a2.524 2.524 0 002.453-3.13l-6.704-27.208a2.814 2.814 0 01-.082-.673v-12.703H77.15z" fill="#2E5B9A"/><path d="M85.216 372.812c-.859-.019-4.694 1.286-8.32 1.097l-5.353 22.363c-.326 1.645.675 3.234 2.037 3.234h15.376c1.361 0 2.362-1.587 2.036-3.234l-5.776-23.46z" fill="#9EC8FF"/><path d="M85.623 380.242a1.606 1.606 0 11-3.212 0 1.606 1.606 0 013.212 0z" fill="#fff"/><path d="M80.067 372.089a.713.713 0 01-.855.701.71.71 0 01-.563-.562.715.715 0 111.418-.139zM82.192 365.498a.737.737 0 100-1.474.737.737 0 000 1.474zM81.947 360.738a1.545 1.545 0 11-3.09 0 1.545 1.545 0 013.09 0z" fill="#9EC8FF"/><path d="M80.99 392.528a1.43 1.43 0 100-2.861 1.43 1.43 0 000 2.861zM79.303 375.985a1.052 1.052 0 01-1.793.744 1.051 1.051 0 111.793-.744zM76.75 385.873a.618.618 0 10-.474-1.142.618.618 0 00.474 1.142zM76.516 397.122a1.11 1.11 0 01-1.898.786 1.116 1.116 0 01-.24-1.212 1.112 1.112 0 012.138.426z" fill="#fff"/><path d="M99.097 377.936l-.18-9.562-6.343.12.18 9.561c.003.16-.013.32-.049.477L88.1 398.877a1.984 1.984 0 001.102 2.241c.274.127.572.19.874.185l12.575-.237a1.989 1.989 0 001.883-2.499l-5.37-20.157a1.995 1.995 0 01-.067-.474z" fill="#E8F0FC"/><path d="M102.656 401.21l-12.578.236a2.12 2.12 0 01-1.694-.784 2.135 2.135 0 01-.427-1.818l4.61-20.345a1.85 1.85 0 00.045-.441l-.183-9.706 6.631-.125.183 9.706c.003.148.024.296.062.439l5.37 20.157a2.12 2.12 0 01-.357 1.832 2.137 2.137 0 01-1.662.849zm-9.933-32.575l.177 9.417c.003.172-.014.343-.052.511l-4.608 20.345a1.844 1.844 0 001.833 2.25l12.577-.237a1.842 1.842 0 001.747-2.317l-5.371-20.158a2.125 2.125 0 01-.072-.508l-.177-9.417-6.054.114z" fill="#2E5B9A"/><path d="M100.76 388.227c-.406.426-2.046.529-2.934.474-2.785-.173-3.65-.848-6.228-.931l-2.208 10.142c-.21 1.173.523 2.289 1.49 2.27l10.919-.205c.967-.018 1.656-1.161 1.403-2.325l-2.442-9.425zM99.627 386.179a1.196 1.196 0 11-2.392.046 1.196 1.196 0 012.392-.046zM98.199 382.32a.532.532 0 10-.427-.974.532.532 0 00.427.974zM96.165 373.382a.549.549 0 11-1.098.022.549.549 0 011.098-.022zM96.814 376.087a1.147 1.147 0 01-.69 1.075 1.15 1.15 0 11.69-1.075z" fill="#9BD6E8"/><path d="M95.525 395.175a1.067 1.067 0 01-1.253 1.068 1.064 1.064 0 111.253-1.068zM94.974 389.714a.782.782 0 11-1.564.029.782.782 0 011.564-.029zM98.7 395.576a.46.46 0 11-.921.017.46.46 0 01.92-.017zM92.768 398.087a.83.83 0 01-.974.83.826.826 0 01-.624-1.117.827.827 0 011.598.287zM101.11 398.481a1.241 1.241 0 10-2.426-.528 1.241 1.241 0 002.426.528z" fill="#fff"/><path fill="#003CA0" d="M62 406h4v104h-4zM182 406h4v25h-4zM178.5 444h80v80h-80z"/><path opacity=".7" d="M182.653 471.488c6.078 2.245 12.669-.323 17.392-4.301 5.387-4.57 8.978-10.828 13.71-16.009a27.276 27.276 0 019.311-6.985c.395-.171.054-.754-.341-.584-12.57 5.388-16.234 21.172-28.732 26.559a15.002 15.002 0 01-11.152.638c-.404-.153-.583.503-.179.646l-.009.036zM242.433 444.92c-1.257 11.466-11.457 18.739-20.875 23.632-9.419 4.894-20.31 9.114-26.838 18.146-2.541 3.529-4.633 8.862-1.688 12.786 2.46 3.286 7.093 3.529 10.775 2.694 4.57-1.042 8.745-3.834 12.319-6.77a125.797 125.797 0 0011.268-11.143c7.91-8.368 18.55-18.685 31.174-15.659.422.108.602-.548.18-.646-10.2-2.443-19.52 3.825-26.595 10.514-7.453 7.057-13.666 15.811-22.851 20.786-3.861 2.092-8.979 3.816-13.244 1.795-5.549-2.586-3.942-9.365-1.185-13.468 6.285-9.257 17.293-13.468 26.828-18.406 9.733-4.992 20.113-12.418 21.406-24.261.045-.431-.629-.422-.674 0zM258.756 483.358a33.89 33.89 0 00-14.437.189 30.655 30.655 0 00-12.894 6.644c-8.215 6.932-14.213 16-21.899 23.453a45.4 45.4 0 01-14.698 10.029c-.404.161-.225.808.179.646 9.437-3.717 16.458-11.286 22.923-18.855 6.716-7.83 13.648-17.123 23.803-20.526a32.718 32.718 0 0116.844-.96c.422.081.61-.566.179-.656v.036zM224.663 524.008a43.153 43.153 0 017.04-7.722 40.497 40.497 0 014.291-3.232c1.554-1.033 3.278-2.182 5.181-2.371 3.394-.332 5.316 3.223 4.795 6.222-.521 2.999-2.784 5.037-5.388 6.42-.386.207-.044.781.342.584a10.644 10.644 0 005.118-5.109 6.971 6.971 0 00-.378-6.537c-3.591-5.548-10.873.503-14.195 3.305a44.069 44.069 0 00-7.407 8.08c-.252.351.332.683.574.333l.027.027z" fill="#fff"/><path d="M258.667 523.852h-79.112a3.53 3.53 0 00-1.105 0h-.134l.332.342v-79.103a3.467 3.467 0 000-1.095.866.866 0 010-.144l-.332.341h79.156c.366.059.739.059 1.105 0h.134l-.332-.341v77.064a19.512 19.512 0 000 3.152.693.693 0 010 .144.344.344 0 00.337.286.344.344 0 00.337-.286v-77.083a19.5 19.5 0 000-3.151.693.693 0 010-.144.35.35 0 00-.103-.236.343.343 0 00-.239-.096h-77.1a19.396 19.396 0 00-3.161 0h-.134a.34.34 0 00-.341.332v77.064a19.286 19.286 0 000 3.152.865.865 0 010 .144.34.34 0 00.341.332h77.055c1.052.085 2.109.085 3.161 0h.135a.339.339 0 00.204-.116.34.34 0 00-.204-.558z" fill="#2C2C2C"/><path d="M216.26 350.599c-.108-5.962-.216-11.978-1.536-17.796s-2.397-12.579-9.329-16.485a18.609 18.609 0 00-17.553-.234 21.366 21.366 0 00-10.694 14.151c-.592 2.613-.718 5.306-1.14 7.946a15.65 15.65 0 01-2.873 7.399c-.602.745-1.347 1.526-1.266 2.469a2.858 2.858 0 001.32 1.867 18.85 18.85 0 006.033 2.981c4.624 1.401 9.482 1.509 14.295 1.58 6.213.108 12.426.207 18.639.063 1.293 0 2.766-.161 3.538-1.194a4.347 4.347 0 00.566-2.747z" fill="#2B2B38"/><path d="M200.448 347.411v12.077h-13.809v-16.09l13.809 4.013z" fill="#FCE8CB"/><path d="M201.526 351.245a10.92 10.92 0 008.907-11.205c.033-4.422-.2-8.842-.7-13.235-.719-6.761-5.792-9.544-13.02-9.401h-.718c-7.731.584-12.57 4.777-11.78 12.023l.898 6.976s-.638 15.264 16.431 14.878" fill="#FCE8CB"/><path d="M207.73 334.176a1.047 1.047 0 01-.996 1.078 1.022 1.022 0 01-1.122-.898 1.057 1.057 0 011.005-1.077 1.009 1.009 0 01.744.216 1 1 0 01.369.681zM197.943 334.859a1.047 1.047 0 01-1.006 1.068 1.009 1.009 0 01-.744-.216 1.003 1.003 0 01-.369-.681 1.044 1.044 0 01.997-1.078 1.024 1.024 0 011.122.907z" fill="#2C2C2C"/><path d="M193.49 331.752a3.4 3.4 0 013.43-.152M204.498 331.321a3.401 3.401 0 013.429-.152" stroke="#2C2C2C" stroke-linecap="round" stroke-linejoin="round"/><path d="M204.201 327.469a8.089 8.089 0 012.819 0M193.543 328.493a7.996 7.996 0 012.811 0" stroke="#2C2C2C" stroke-width="3" stroke-linecap="round" stroke-linejoin="round"/><path d="M186.064 336.906c3.762.584 4.678-6.617 11.215-9.787 3.528-1.715 6.428-6.833 7.183-10.774 0 0-8.62-4.777-15.632.161-7.013 4.939-7.444 13.926-7.444 13.926l4.678 6.474z" fill="#2B2B38"/><path d="M187.034 335.55a4.22 4.22 0 00-3.762-.359 3.597 3.597 0 00-1.868 3.448 4.033 4.033 0 002.227 3.268 4.288 4.288 0 003.87-.134l-.467-6.223z" fill="#FCE8CB"/><path d="M186.343 338.684a2.458 2.458 0 00-1.204-1.473 2.312 2.312 0 00-2.19-.044.35.35 0 00-.126.466.34.34 0 00.458.117 1.598 1.598 0 011.544.063c.221.127.417.294.575.494.131.164.226.353.278.557a.339.339 0 00.608.062.338.338 0 00.048-.242h.009zM201.418 351.048a9.145 9.145 0 01-7.12-2.281c-.314-.287-.799.188-.476.476a9.787 9.787 0 007.596 2.469c.431 0 .431-.727 0-.673v.009z" fill="#ED796A"/><path d="M201.247 333.925l.377 2.011.189 1.033c.006.139.042.276.104.401a.999.999 0 00.255.326c.195.125.425.182.655.162.09 0 .494-.081.53.045.036.125-.188.314-.224.368l-.279.35-.646.844c-.26.332.215.817.476.476l.682-.898c.225-.246.421-.517.584-.808a.748.748 0 00-.71-1.069c-.161 0-.556.09-.691 0-.135-.089-.099-.413-.117-.529l-.107-.575-.431-2.307c-.081-.422-.728-.243-.647.179v-.009z" fill="#2C2C2C"/><path d="M197.225 340.884a.978.978 0 01.557-.467c.317-.043.639.037.898.224l2.855 1.58.27.611a3.07 3.07 0 01-2.074 1.311 2.54 2.54 0 01-2.254-.898 2.173 2.173 0 01-.252-2.361z" fill="#ED796A"/><path d="M205.081 407.937a26.276 26.276 0 0114.366 8.817c.27.332.745-.144.476-.476a26.939 26.939 0 00-14.698-8.979c-.422-.089-.602.557-.18.656l.036-.018z" fill="#26244A"/><path d="M146.135 528.126s-1.571-10.478 10.775-14.797l-2.55-8.979 28.651-6.419 6.285 21.791-43.161 8.404z" fill="#D4E3FF"/><path d="M150.383 515.511a43.967 43.967 0 016.725 1.967c.404.152.575-.494.179-.647a44.042 44.042 0 00-6.725-1.975c-.431-.09-.61.565-.179.655zM153.013 514.021l6.106 2.19c.404.144.584-.502.18-.646l-6.106-2.191c-.404-.143-.584.503-.18.647z" fill="#2C2C2C"/><path d="M96.753 508.741s4.489-9.607 17.14-6.357l2.856-8.934 27.43 10.496-6.86 21.612-40.566-16.817z" fill="#D4E3FF"/><path d="M107.267 500.58a43.385 43.385 0 014.49 5.297c.242.35.826 0 .574-.341a44.657 44.657 0 00-4.561-5.387.342.342 0 00-.476.475l-.027-.044zM110.221 500.759l3.87 5.199c.26.341.844 0 .583-.341l-3.87-5.199c-.26-.341-.844 0-.583.341z" fill="#2C2C2C"/><path d="M159.604 455.713l-14.581 52.543c-.539 0-30.627-11.385-30.627-11.385l20.966-65.742 32.323-6.42-8.081 31.004z" fill="#2B2B38"/><path d="M185.113 407.65l.628 10.568s-37.558 2.155-44.104 4.884c-6.545 2.73-8.574 6.375-8.026 16.162.547 9.787 19.537 68.238 19.537 68.238l34.38-5.324-16.934-50.802h39.785a19.331 19.331 0 0016.781-9.365 18.037 18.037 0 002.128-12.525c-1.293-7.524-9.14-21.199-9.14-21.199l-35.035-.637z" fill="#2B2B38"/><path d="M187.78 502.447l-30.16 4.669-4.22.646.413.234-2.828-9.41-6.186-20.534-6.07-20.157c-.835-2.766-1.634-5.54-2.505-8.297a60.994 60.994 0 01-2.038-8.485c-.62-3.771-1.177-8.467.682-11.995a6.156 6.156 0 011.616-1.949c.332-.269-.143-.745-.485-.476-2.873 2.281-3.124 6.555-2.972 9.931.22 3.782.874 7.527 1.949 11.161.727 2.612 1.562 5.198 2.343 7.793l5.765 19.143 6.473 21.549 2.389 7.919a33.86 33.86 0 001.167 3.879c.022.055.04.112.054.17a.35.35 0 00.413.243l30.15-4.669 4.22-.656c.431-.062.252-.709-.17-.646v-.063zM208.206 417.329a407.53 407.53 0 00-41.733 2.496c-.422 0-.431.718 0 .673a407.815 407.815 0 0141.733-2.496.341.341 0 000-.673z" fill="#8C98E9"/><path d="M226.047 405.827c-.198-4.813-2.793-30.276-6.285-39.21-3.493-8.934-18.443-10.065-18.856-10.065-5.656 3.241-12.794 4.327-14.366.897a52.112 52.112 0 00-6.554 1.581c-2.424.924-8.71 3.106-10.505 9.355-1.796 6.25-5.109 26.102-5.109 26.102l-15.946 2.541-4.984 15.497s25.536 1.347 28.346-.063c2.811-1.41 6.6-2.64 8.27-7.183.054-.135.098-.278.152-.431l.898 2.649a3.098 3.098 0 003.071 2.577h18.855c2.918 2.765 8.081 6.797 13.639 7.308 8.602.818 9.544-6.743 9.374-11.555z" fill="#FFAD00"/><path d="M149.898 397.387l-8.88.314s-5.127-1.428-7.973-1.23a12.252 12.252 0 00-5.971 2.029c-1.41.898-4.22 3.592-2.568 4.92 1.122.898 2.092-.179 3.726-1.409s4.759-1.67 4.759-1.67-3.592 4.947-2.406 7.91c0 0 .691 1.796 2.918.332 0 0 1.176 2.775 3.591.979a20.698 20.698 0 011.796-4.876l.7-.808s-.664 4.301.063 5.217c.727.916 1.706 1.49 2.532.638.826-.853.952-2.47 1.796-3.772.837.176 1.66.416 2.46.719 3.367 1.607 3.933 0 3.933 0s0-1.581-.225-4.238c-.197-3.017-.251-5.055-.251-5.055z" fill="#F6C2A1"/><path d="M131.869 402.891a5.137 5.137 0 013.592-3.699.345.345 0 00.184-.165.343.343 0 00-.364-.491 5.842 5.842 0 00-4.058 4.175c-.099.422.547.602.646.18zM134.185 408.529a11.78 11.78 0 013.87-8.332c.323-.287-.153-.763-.476-.476a12.458 12.458 0 00-4.085 8.799.342.342 0 00.336.286.338.338 0 00.337-.286l.018.009zM144.996 400.332a6.185 6.185 0 00-4.75 2.379 6.021 6.021 0 00-1.087 5.163 2.7 2.7 0 001.383 1.796 1.859 1.859 0 001.966-.216c.638-.565.557-1.427.853-2.164.387-.978 1.581-.898 2.407-.556.996.386 1.921 1.077 3.044.978a1.956 1.956 0 001.813-1.23c.135-.413-.52-.592-.655-.179-.243.745-1.176.898-1.796.736a20.738 20.738 0 01-2.254-.898c-1.14-.422-2.612-.278-3.115.979-.243.592-.171 1.463-.683 1.912-.655.584-1.598 0-1.975-.583a4.93 4.93 0 01.287-4.642 5.499 5.499 0 014.624-2.694.338.338 0 00.286-.337.339.339 0 00-.286-.336l-.062-.108z" fill="#ED796A"/><path d="M206.033 393.418c-1.032-7.183-.565-14.518-1.607-21.719-.063-.422-.709-.243-.646.179 1.032 7.183.565 14.519 1.607 21.72.063.431.709.242.646-.18z" fill="#2C2C2C"/><path d="M205.683 393.741l-8.171-3.474s-4.04-3.466-6.698-4.49a12.102 12.102 0 00-6.285-.691c-1.643.162-5.334 1.419-4.418 3.358.629 1.329 1.976.727 3.969.305 1.993-.422 5.028.512 5.028.512s-5.387 2.954-5.54 6.142c0 0-.144 1.93 2.496 1.535 0 0-.108 3.008 2.81 2.397a20.477 20.477 0 013.727-3.591l.969-.431s-2.415 3.591-2.146 4.741c.27 1.149.898 2.074 2.021 1.652 1.122-.422 1.176-2.461 2.523-3.305 0 0 1.185 1.581 1.679 2.254a49.036 49.036 0 003.762 3.34s1.409-3.106 2.37-5.594c1.087-2.783 1.904-4.66 1.904-4.66z" fill="#FCE8CB"/><path d="M187.025 391.066a5.17 5.17 0 014.804-1.85c.422.072.601-.583.179-.655a5.848 5.848 0 00-5.468 2.029c-.269.341.198.817.476.476h.009zM186.711 397.198a11.714 11.714 0 017.013-5.899c.422-.125.242-.781-.171-.655a12.387 12.387 0 00-7.443 6.213c-.198.386.386.727.574.341h.027z" fill="#ED796A"/><path d="M217.885 398.069a42.975 42.975 0 00-12.113-4.651.343.343 0 00-.413.243l-5.674 13.719c-.171.404.485.575.646.18l5.675-13.711-.413.243a42.283 42.283 0 0111.951 4.579.345.345 0 00.425-.143.34.34 0 00-.084-.441v-.018zM182.167 408.52a72.31 72.31 0 01-6.814-37.647c0-.431-.638-.431-.674 0a72.819 72.819 0 006.914 37.98c.188.395.763.053.574-.333z" fill="#2C2C2C"/><path d="M183.532 353.957l.359 4.067c.023.233.094.458.209.662.114.204.269.382.456.523l6.402 4.723a1.663 1.663 0 001.723.153l9.958-4.948a1.642 1.642 0 00.898-1.481v-3.466a1.642 1.642 0 00-1.616-1.652l-16.719-.386a1.657 1.657 0 00-1.586 1.123 1.645 1.645 0 00-.084.682z" fill="#FFAD00"/><path d="M156.704 424.709h-32.278a3.29 3.29 0 01-3.017-1.957l-13.064-29.28a3.306 3.306 0 011.445-4.258 3.32 3.32 0 011.581-.402h32.278a3.297 3.297 0 013.017 1.958l13.064 29.279a3.313 3.313 0 01-3.026 4.66z" fill="#E7A5DD"/><path d="M123.608 424.709h36.661l19.6-6.635c.647-.279.503-1.545-.179-1.553h-37.047l-19.035 8.188z" fill="#E7A5DD"/><path d="M146.881 391.721c4.346 10.461 8.53 21.02 13.1 31.426.171.395.754.054.575-.341-4.544-10.353-8.701-20.813-13.028-31.264-.162-.395-.817-.225-.647.179z" fill="#26244A"/><path d="M133 402.891a3.343 3.343 0 00-2.5.69 3.34 3.34 0 00-1.253 2.273c-.047.41-.032.824.045 1.23a4.16 4.16 0 004.122 3.358 3.433 3.433 0 002.765-4.103c-.287-1.401-1.284-3.215-3.179-3.448z" fill="#fff"/><path d="M528.18 163.68L484.67 149c-1.28 17.17-11.28 39.19-24.67 50.92l36.58 17.18c2.07 1 4.34 2 6.56 1.55 2.38-.45 4-2.37 5.31-4.2a107.001 107.001 0 0019.73-50.77z" fill="#EDEFF7"/><path d="M491.79 163.87c6.81 2.45 13.62 4.9 20.42 7.4 1.64.6 3.28 1.2 4.91 1.83.75.3 1.08-.91.33-1.2-7.45-2.9-15.07-5.54-22.62-8.26l-2.71-1c-.76-.27-1.09.93-.33 1.2v.03zM489.31 170.05l22.11 8.23 3.19 1.19c.76.28 1.08-.92.33-1.2l-22.1-8.27-3.19-1.19c-.76-.28-1.08.93-.34 1.21v.03zM486.65 176.4A714.661 714.661 0 00512 186.55c.75.28 1.08-.93.33-1.21a722.67 722.67 0 01-25-10c-.74-.31-1.37.77-.63 1.08l-.05-.02zM484.15 182.69a733.89 733.89 0 0025.31 10.15c.76.29 1.08-.92.34-1.2a751.888 751.888 0 01-25-10c-.73-.3-1.37.77-.63 1.08l-.02-.03zM481.65 189A725.14 725.14 0 00507 199.13c.75.29 1.08-.92.33-1.2a751.888 751.888 0 01-25-10c-.74-.31-1.38.77-.64 1.08l-.04-.01zM477.37 194.92a745.387 745.387 0 0025.31 10.15c.76.29 1.08-.92.34-1.21a722.67 722.67 0 01-25-10c-.73-.31-1.37.77-.63 1.08l-.02-.02z" fill="#B5CFFF"/><g opacity=".8"><circle cx="114.676" cy="294.676" r="32.941" transform="rotate(-38.94 114.676 294.676)" fill="url(#prefix__paint0_linear_311_9082)" stroke="url(#prefix__paint1_linear_311_9082)" stroke-width=".5"/><mask id="prefix__b" style="mask-type:alpha" maskUnits="userSpaceOnUse" x="95" y="268" width="39" height="54"><path fill="#D9D9D9" d="M95.176 268.177h38v53h-38z"/></mask><g mask="url(#prefix__b)"><path d="M131.842 300.715l-26.064 9.687.861 2.316 26.064-9.687-.861-2.316z" fill="#A1CFFC"/><path d="M132.69 303.008c.303.814-5.287 3.643-12.484 6.319-7.196 2.677-13.277 4.183-13.585 3.372-.307-.81 5.279-3.654 12.476-6.33 7.196-2.677 13.292-4.176 13.593-3.361z" fill="#A1CFFC"/><path d="M131.822 300.65c.301.816-5.282 3.656-12.48 6.334-7.199 2.678-13.288 4.173-13.591 3.359-.303-.814 5.289-3.644 12.486-6.321 7.196-2.676 13.281-4.186 13.585-3.372z" fill="#A1CFFC"/><path d="M132.224 302.13c-1.851.293-3.102 2.071-3.981 3.575-.067.112.118.198.185.086.836-1.431 2.039-3.189 3.811-3.458.128-.019.113-.223-.015-.203zM116.211 305.328c.538 1.767-1.122 3.107-2.44 3.908-1.319.801-2.805 1.612-3.272 3.183-.038.125.161.161.2.036.55-1.882 2.617-2.572 4.055-3.62 1.106-.808 2.085-2.138 1.65-3.575-.039-.124-.23-.057-.193.068zM110.042 307.511a3.301 3.301 0 01-1.385 2.253 3.287 3.287 0 01-2.597.503c-.129-.029-.164.173-.036.2a3.487 3.487 0 004.228-2.927c.016-.129-.183-.166-.199-.036l-.011.007z" fill="#EDEFF7"/><path d="M120.901 276.298l-11.345 4.32-11.412 4.139c.193.502-1.177 5.206 6.966 8.195l5.084 1.691-2.662 4.477c-3.339 6.014-1.451 8.927-.433 10.132a1.42 1.42 0 001.35.477c4.666-.869 13.715-4.107 20.862-7.773a1.858 1.858 0 001.02-1.776c-.119-1.712-1.013-4.792-6.932-6.966l-5.085-1.692 2.663-4.476c4.214-7.575.106-10.242-.076-10.748z" fill="#EDEFF7"/><path d="M122.471 274.976l-26.064 9.687.861 2.316 26.064-9.686-.861-2.317z" fill="#A1CFFC"/><path d="M103.52 290.425c.144.065 4.719 1.672 7.396 2.6a5.53 5.53 0 003.757-.036 3.405 3.405 0 001.85-1.655l3.536-7.056a6.911 6.911 0 00-5.228 3.032c-1.393 2.083-3.375 1.935-5.038 1.871-3.698-.12-6.889 1.111-6.273 1.244zM108.955 307.934c3.731-.074 15.911-4.32 19.034-6.847a.947.947 0 00.348-.88.946.946 0 00-.59-.74 5.414 5.414 0 00-1.514-.371c-2.246-.206-4.489 1.462-6.559 1.416-2.069-.046-2.74-1.396-4.747-1.152-1.868.24-6.118 3.431-6.889 7.435a.938.938 0 00.187.788.943.943 0 00.73.351zM117.635 295.567a1.407 1.407 0 01-1.899 1.77 1.405 1.405 0 111.899-1.77z" fill="#DADEF1"/><path d="M123.317 277.269c.304.814-5.287 3.643-12.475 6.331-7.189 2.688-13.285 4.172-13.589 3.358-.303-.814 5.279-3.654 12.476-6.331 7.196-2.676 13.285-4.171 13.588-3.358z" fill="#A1CFFC"/><path d="M122.447 274.911c.301.816-5.289 3.644-12.48 6.334-7.191 2.689-13.288 4.173-13.58 3.351-.292-.821 5.281-3.655 12.486-6.32 7.204-2.666 13.27-4.179 13.574-3.365z" fill="#A1CFFC"/><path d="M131.694 300.623c.077.24-.414.586-.551.711-.527.405-1.084.769-1.665 1.09a54.451 54.451 0 01-5.879 2.84 106.47 106.47 0 01-7.731 2.922c-2.135.721-4.3 1.396-6.494 1.904-.784.195-1.581.336-2.385.42-.2.016-.96.134-1.076-.128-.05-.12-.241-.053-.191.067.114.273.52.275.759.287a8.912 8.912 0 001.846-.234 53.386 53.386 0 006.346-1.722c2.808-.907 5.584-1.92 8.309-3.052a59.947 59.947 0 006.398-3.036 12.404 12.404 0 001.972-1.289c.207-.176.632-.513.53-.851a.104.104 0 00-.051-.058.105.105 0 00-.078-.004.099.099 0 00-.057.051.1.1 0 00-.005.078l.003.004z" fill="#6086C0"/><path d="M97.343 286.994c1.637-.376 2.645-1.577 3.364-3.026a8.786 8.786 0 011.186-1.881 11.312 11.312 0 011.699-1.522c.107-.074-.011-.245-.115-.167-1.095.84-2.036 1.739-2.691 2.966-.397.735-.729 1.491-1.285 2.124a4.086 4.086 0 01-2.226 1.312c-.126.032-.06.223.068.194zM107.206 279.7a1.08 1.08 0 00-.298 1.03.788.788 0 00.314.427.79.79 0 00.515.128c.65-.045 1.204-.81.806-1.404a.813.813 0 00-.889-.333c-.124.04-.057.231.068.194a.567.567 0 01.591.193.61.61 0 01.105.641.827.827 0 01-.57.474.597.597 0 01-.702-.301.852.852 0 01.225-.925c.089-.095-.068-.227-.156-.13l-.009.006zM112.201 282.82c-.621-1.772 1.023-3.183 2.321-4.046 1.262-.836 2.695-1.71 3.085-3.281.031-.126-.168-.163-.199-.036-.465 1.882-2.459 2.663-3.847 3.749-1.09.856-2.066 2.247-1.551 3.681a.099.099 0 00.051.057.1.1 0 00.078.005.097.097 0 00.057-.052.098.098 0 00.005-.077zM119.054 279.986a3.296 3.296 0 011.209-2.353 3.284 3.284 0 012.551-.7c.128.02.165-.18.036-.199a3.486 3.486 0 00-4.001 3.217c-.009.13.191.167.201.038l.004-.003z" fill="#EDEFF7"/><path d="M122.254 274.979c.077.24-.424.577-.568.686-.535.397-1.101.752-1.691 1.062a59.939 59.939 0 01-5.924 2.784 121.75 121.75 0 01-7.746 2.902c-2.136.718-4.3 1.396-6.493 1.9-.783.197-1.58.338-2.383.422-.202.018-.96.134-1.076-.128-.05-.12-.243-.056-.191.067.115.272.52.275.758.287a9.027 9.027 0 001.853-.219 53.342 53.342 0 006.345-1.725c2.81-.905 5.582-1.918 8.317-3.04a66.07 66.07 0 006.45-2.97 13.023 13.023 0 001.999-1.255c.21-.172.643-.498.539-.838a.104.104 0 00-.051-.058.103.103 0 00-.135.047.1.1 0 00-.005.078l.002-.002z" fill="#6086C0"/></g></g><circle cx="192.046" cy="228.811" r="28.508" transform="rotate(3.39 192.046 228.811)" fill="url(#prefix__paint2_linear_311_9082)" stroke="url(#prefix__paint3_linear_311_9082)" stroke-width=".5"/><path opacity=".6" fill-rule="evenodd" clip-rule="evenodd" d="M241.052 228.497l-15.954-31.847-58.355 29.235a9.432 9.432 0 00-.993-.366c-3.554-1.094-7.096.026-8.224 2.508l-9.81-2.373-.555 2.085 9.745 2.358c-.461 2.69 1.842 5.614 5.4 6.711 2.764.853 5.508.36 7.125-1.063l11.466 22.888 60.155-30.136zm-73.847 2.805l1.659 3.31c-1.686 1.182-3.999 1.816-6.238 1.126a9.37 9.37 0 01-2.353-1.097l1.397-.673c.419.202.862.354 1.321.453.193.039.289-.25.096-.29a5.648 5.648 0 01-1.059-.336l5.177-2.493zm-2.073-4.61l-.189.095.684 1.365-6.344 3.135a5.738 5.738 0 01-.36-.813c-.065-.185-.336-.045-.273.137a6 6 0 00.359.811l-1.136.562.19.507c-.485-.735-.788-1.528-.871-2.325l.076.018.547-2.057c1.412-1.668 4.152-2.39 6.995-1.704-.042.078-.027.183.082.208.08.019.16.04.24.061z" fill="url(#prefix__pattern0)"/><defs><linearGradient id="prefix__paint0_linear_311_9082" x1="97.486" y1="265.9" x2="114.676" y2="327.867" gradientUnits="userSpaceOnUse"><stop stop-color="#fff" stop-opacity=".18"/><stop offset="1" stop-color="#fff" stop-opacity="0"/></linearGradient><linearGradient id="prefix__paint1_linear_311_9082" x1="90.865" y1="273.624" x2="142.176" y2="312.245" gradientUnits="userSpaceOnUse"><stop stop-color="#fff" stop-opacity=".32"/><stop offset="1" stop-color="#fff" stop-opacity="0"/></linearGradient><linearGradient id="prefix__paint2_linear_311_9082" x1="177.151" y1="203.878" x2="192.046" y2="257.569" gradientUnits="userSpaceOnUse"><stop stop-color="#fff" stop-opacity=".18"/><stop offset="1" stop-color="#fff" stop-opacity="0"/></linearGradient><linearGradient id="prefix__paint3_linear_311_9082" x1="118.024" y1="176.657" x2="215.872" y2="244.033" gradientUnits="userSpaceOnUse"><stop stop-color="#fff" stop-opacity=".32"/><stop offset="1" stop-color="#fff" stop-opacity="0"/></linearGradient><pattern id="prefix__pattern0" patternContentUnits="objectBoundingBox" width="1" height="1"><use xlink:href="#prefix__image0_311_9082" transform="matrix(.00116 0 0 .00061 -.194 0)"/></pattern></defs></svg>
