<svg width="385" height="322" fill="none" xmlns="http://www.w3.org/2000/svg">
  <path opacity=".1"
    d="M229.369 135.673a88.719 88.719 0 0121.91-9.524l3.212-15.301a8.033 8.033 0 017.648-6.427l23.785-.42a8.106 8.106 0 017.953 6.12l3.824 15.301a88.304 88.304 0 0122.217 8.721l13.345-8.721a7.644 7.644 0 019.636.918l17.399 16.792a7.656 7.656 0 011.262 9.64l-8.26 13.618a88.146 88.146 0 019.483 21.957l16.825 3.48a6.197 6.197 0 014.933 5.968l.459 26.776a6.16 6.16 0 01-4.703 5.853l-16.672 4.208a89.53 89.53 0 01-8.719 22.224l7.992 12.164a9.531 9.531 0 01-1.109 11.782l-14.951 15.301a9.404 9.404 0 01-11.701 1.53l-12.466-7.651a91.056 91.056 0 01-21.911 9.525l-3.403 16.334a6.734 6.734 0 01-6.386 5.699l-25.773.459a6.842 6.842 0 01-6.73-5.202l-3.824-16.219a91.094 91.094 0 01-22.216-8.759l-13.193 8.644a7.874 7.874 0 01-9.865-.918l-17.208-16.601a7.958 7.958 0 01-1.262-9.869l8.145-13.465a91.132 91.132 0 01-9.521-21.918l-17.399-3.443a5.808 5.808 0 01-4.627-5.585l-.497-27.35a5.778 5.778 0 014.436-5.738l16.978-4.169a89.936 89.936 0 018.757-22.187l-8.451-13.005a8.496 8.496 0 01.994-10.52l16.06-16.639a8.527 8.527 0 0110.478-1.377l13.116 7.994zm23.363 45.329a39.33 39.33 0 002.134 63.138 39.3 39.3 0 0045.79-.806 39.328 39.328 0 00-.087-63.173 39.297 39.297 0 00-47.837.841zM39.195 19.905a55.767 55.767 0 0113.77-5.986l2.018-9.616A5.048 5.048 0 0159.79.265L74.736 0a5.093 5.093 0 014.999 3.847l2.403 9.615A55.5 55.5 0 0196.1 18.943l8.386-5.48a4.805 4.805 0 016.056.576l10.934 10.553a4.808 4.808 0 01.793 6.058l-5.19 8.558a55.46 55.46 0 015.959 13.799l10.574 2.187a3.892 3.892 0 013.1 3.75L137 75.772a3.867 3.867 0 01-2.956 3.678l-10.477 2.644a56.297 56.297 0 01-5.479 13.967l5.022 7.644a5.99 5.99 0 01-.697 7.404l-9.396 9.616a5.907 5.907 0 01-7.353.962l-7.834-4.808a57.251 57.251 0 01-13.77 5.986l-2.139 10.264a4.232 4.232 0 01-4.013 3.582L61.712 137a4.304 4.304 0 01-4.23-3.27l-2.403-10.192a57.222 57.222 0 01-13.962-5.505l-8.29 5.433a4.95 4.95 0 01-6.2-.577l-10.814-10.433a5.004 5.004 0 01-.793-6.202l5.119-8.462a57.269 57.269 0 01-5.984-13.775L3.22 81.854a3.653 3.653 0 01-2.908-3.51L.001 61.156a3.63 3.63 0 012.787-3.606l10.67-2.62a56.525 56.525 0 015.503-13.943l-5.31-8.173a5.339 5.339 0 01.624-6.611l10.093-10.457a5.358 5.358 0 016.584-.865l8.243 5.024zM53.878 48.39a24.713 24.713 0 00-7.875 27.693 24.697 24.697 0 0046.78-.823 24.72 24.72 0 00-8.843-27.399 24.697 24.697 0 00-30.062.53z"
    fill="#EDEFF7" />
</svg>
