<svg width="24" height="24" viewBox="0 0 24 24" fill="none" xmlns="http://www.w3.org/2000/svg">
<path d="M21 11.5V15C21 15.5304 20.7893 16.0391 20.4142 16.4142C20.0391 16.7893 19.5304 17 19 17H11L6.5 21V17H5C4.46957 17 3.96086 16.7893 3.58579 16.4142C3.21071 16.0391 3 15.5304 3 15V5C3 4.46957 3.21071 3.96086 3.58579 3.58579C3.96086 3.21071 4.46957 3 5 3H8.5" stroke="currentColor" stroke-width="2" stroke-linecap="round" stroke-linejoin="round"/>
<path d="M17.7743 7.75188C17.8205 7.86002 17.8447 7.97629 17.8454 8.09388C17.8462 8.21148 17.8235 8.32805 17.7787 8.43678C17.7339 8.5455 17.6679 8.64421 17.5845 8.72713C17.5011 8.81005 17.402 8.87552 17.293 8.91971C17.184 8.9639 17.0673 8.98593 16.9497 8.9845C16.8322 8.98308 16.716 8.95824 16.6081 8.91142C16.5003 8.86461 16.4028 8.79676 16.3214 8.71184C16.2401 8.62693 16.1765 8.52666 16.1343 8.41688L15.7973 7.56688H13.0193L12.7013 8.41888C12.6625 8.52751 12.6023 8.62723 12.5242 8.71209C12.4461 8.79695 12.3517 8.86521 12.2466 8.9128C12.1416 8.96039 12.028 8.98634 11.9127 8.98909C11.7974 8.99184 11.6827 8.97135 11.5755 8.92882C11.4683 8.8863 11.3707 8.82263 11.2887 8.74159C11.2066 8.66055 11.1417 8.56382 11.0978 8.45716C11.0539 8.35049 11.032 8.23608 11.0333 8.12075C11.0345 8.00542 11.059 7.89153 11.1053 7.78588L13.3603 2.40988C13.4366 2.2281 13.5649 2.07292 13.7291 1.96385C13.8934 1.85479 14.0862 1.79669 14.2833 1.79688H14.6343C14.8319 1.79674 15.0252 1.85519 15.1897 1.96483C15.3541 2.07446 15.4824 2.23038 15.5583 2.41288L17.7753 7.75288L17.7743 7.75188ZM14.4283 3.71288L13.5153 6.17788H15.3213L14.4283 3.71288ZM20.6253 8.10388C20.6253 8.33514 20.5334 8.55694 20.3699 8.72047C20.2064 8.884 19.9846 8.97588 19.7533 8.97588C19.522 8.97588 19.3002 8.884 19.1367 8.72047C18.9732 8.55694 18.8813 8.33514 18.8813 8.10388V2.68988C18.8813 2.19688 19.2803 1.79788 19.7723 1.79788C20.2433 1.79788 20.6253 2.17988 20.6253 2.65088V8.10388Z" fill="currentColor"/>
</svg>
