<svg width="36" height="36" viewBox="0 0 36 36" fill="none" xmlns="http://www.w3.org/2000/svg">
<g clip-path="url(#clip0_54_830)">
<mask id="mask0_54_830" style="mask-type:alpha" maskUnits="userSpaceOnUse" x="0" y="0" width="36" height="36">
<path d="M18 36C27.9411 36 36 27.9411 36 18C36 8.05887 27.9411 0 18 0C8.05887 0 0 8.05887 0 18C0 27.9411 8.05887 36 18 36Z" fill="#F5FFF0"/>
</mask>
<g mask="url(#mask0_54_830)">
<path d="M18 36C27.9411 36 36 27.9411 36 18C36 8.05887 27.9411 0 18 0C8.05887 0 0 8.05887 0 18C0 27.9411 8.05887 36 18 36Z" fill="#DFE5EB"/>
<path d="M21.3668 32.7501C21.3364 32.7499 21.3065 32.7422 21.2798 32.7276C21.2531 32.7131 21.2304 32.6921 21.2137 32.6667C21.197 32.6412 21.1869 32.612 21.1843 32.5817C21.1816 32.5514 21.1865 32.5209 21.1985 32.4929C21.1985 32.487 21.4491 31.905 21.4021 31.4112C21.3499 30.8556 21.4572 30.106 21.5844 29.8327C21.9106 29.1331 22.8821 29.125 22.9233 29.125C22.972 29.125 23.0187 29.1444 23.0532 29.1788C23.0877 29.2133 23.107 29.26 23.107 29.3087C23.107 29.3574 23.0877 29.4042 23.0532 29.4386C23.0187 29.4731 22.972 29.4924 22.9233 29.4924C22.9101 29.4924 22.1429 29.5027 21.9173 29.9877C21.8349 30.1648 21.7152 30.8262 21.7703 31.3766C21.8261 31.9645 21.5498 32.612 21.5381 32.6391C21.5236 32.6724 21.4996 32.7007 21.4692 32.7205C21.4387 32.7402 21.4031 32.7505 21.3668 32.7501Z" fill="#314151"/>
<path d="M29.1431 22.1733C29.1586 22.21 29.1218 22.3033 28.9403 22.6406C28.8227 22.8611 28.5824 23.1198 28.4097 23.302C28.3171 23.3983 28.2444 23.471 28.2201 23.5012C28.1511 23.5879 27.8601 23.9127 28.0438 24.3279C28.1694 24.6123 28.2444 24.7637 28.2723 24.8893C28.2849 24.9405 28.2889 24.9934 28.2841 25.0459C28.2841 25.0495 28.2841 25.0532 28.2841 25.0576C28.2628 25.2406 28.1555 25.5522 27.644 25.6624C27.816 25.819 27.8556 26.1452 27.8586 26.304C27.8608 26.3334 27.8595 26.363 27.8549 26.3922C27.8502 26.4173 27.8431 26.4419 27.8336 26.4656C27.785 26.5406 27.7133 26.5977 27.6293 26.628C27.4213 26.728 27.2736 26.8132 27.2325 26.9992C27.227 27.0233 27.2235 27.0479 27.2222 27.0726C27.2068 27.3115 27.3155 28.1911 27.2464 28.5857C27.1774 28.9804 26.635 29.9497 25.3791 30.1628C25.166 30.1988 24.3988 29.9835 23.4119 29.6572C20.9523 28.8488 17.1273 27.3475 17.1273 27.3475L10.9301 26.1004L10.5259 26.6295H10.5112L10.3055 26.6258C10.3055 26.6258 9.84913 25.0216 9.51697 24.3022C9.1848 23.5827 8.86587 22.6693 8.46831 22.2335C8.07074 21.7977 3.71958 14.2874 8.46831 9.30715C8.51019 9.26232 8.55282 9.21823 8.59617 9.17413C8.8333 8.93206 9.08511 8.7048 9.35015 8.49365C14.6317 4.28064 25.7804 5.23597 28.9712 12.6626C28.9704 12.6943 28.9584 12.7248 28.9373 12.7485C28.9161 12.7722 28.8873 12.7876 28.8558 12.7919C28.7474 12.8061 28.6372 12.7898 28.5376 12.7449C28.6111 12.8838 28.7382 13.1211 28.8801 13.4408C28.9793 13.6613 29.0866 13.9265 29.1916 14.2234C29.7656 15.8512 30.255 18.5143 28.8242 21.3208L28.7882 21.6287C28.7882 21.6287 29.1277 22.1373 29.1431 22.1733Z" fill="#ADBFC1"/>
<path d="M29.7599 17.4903C29.754 18.8226 29.4334 20.1347 28.8244 21.3197L28.7884 21.6276C28.7108 21.5687 28.6161 21.5368 28.5187 21.5368C28.4213 21.5368 28.3266 21.5687 28.249 21.6276C27.9631 21.8355 27.5516 22.0876 27.1989 22.4543C26.8461 22.821 26.3347 23.184 24.654 23.4096C22.9734 23.6352 20.0155 22.3228 18.7567 20.1652C18.1063 19.0857 18.2423 17.9033 18.2423 17.7012C18.2423 17.4991 18.6714 14.7837 17.4266 13.1104C16.1817 11.4371 14.3849 10.0806 11.1486 11.7267C9.07329 12.8334 7.76816 18.3596 11.1486 21.0595C11.8162 21.5869 12.5953 21.9551 13.4267 22.1361C13.5369 22.1596 13.6346 22.1773 13.7206 22.1905C13.8301 22.2096 13.9161 22.2221 13.9749 22.2346C14.0484 22.2515 14.1343 22.2654 14.224 22.2846C14.3205 22.304 14.4155 22.33 14.5084 22.3624C14.7751 22.4569 15.0079 22.6279 15.1779 22.8541C15.3391 23.0742 15.4863 23.3041 15.6188 23.5426C15.668 23.6272 15.7165 23.7146 15.7658 23.8013C16.0435 24.3047 16.2949 24.8147 16.3669 24.9668C16.4918 25.2299 17.0172 25.9075 17.9439 26.4821C18.8706 27.0568 20.8209 28.2458 21.7064 28.5772C22.3134 28.82 22.893 29.1262 23.4356 29.4907L23.4121 29.656C20.9525 28.8477 17.1275 27.3463 17.1275 27.3463L15.1227 26.9429L14.8229 26.8826L14.2211 26.7614L13.9161 26.7004L13.4752 26.6122L13.1717 26.5497L11.2845 26.1705L10.9288 26.0971L10.5247 26.6262H10.51L10.4563 26.4285C10.4583 26.1368 10.443 25.8453 10.4108 25.5555C10.3543 25.0444 10.2452 24.5405 10.0852 24.0519C10.0852 24.0519 9.89194 23.2913 9.79494 23.0011C9.69793 22.7108 9.52303 22.0928 9.38488 21.9561C9.00676 21.5228 8.6665 21.0579 8.36782 20.5664C8.06358 20.0403 6.38955 16.7069 7.31695 13.8056C7.93204 11.8773 9.52744 10.0835 12.0076 9.61686C13.2643 9.38097 14.7472 9.48532 16.4448 10.085C19.2806 11.1366 22.0746 13.142 23.2923 13.253L23.5054 13.2721C24.5798 13.3632 25.1221 13.3515 25.4161 13.156C25.6659 12.9899 25.832 12.8363 25.9577 12.7753C25.985 12.761 26.0146 12.7516 26.0451 12.7474C26.1818 12.7342 26.8476 12.6372 26.8476 12.6372L27.8691 12.5394L27.9337 12.5336L28.4481 12.607L28.8567 12.7856C28.7484 12.7998 28.6382 12.7835 28.5385 12.7386C28.8141 13.2574 29.7724 15.1115 29.7599 17.4903Z" fill="#110B19"/>
<path d="M28.9258 16.9025C28.346 16.6674 25.9701 16.3073 25.3616 16.2522C25.1706 15.848 23.9375 13.8705 23.5068 13.2693C24.5812 13.3605 25.1236 13.3487 25.4175 13.1532C25.6674 12.9871 26.4816 12.8144 26.6073 12.7534C26.7234 12.7534 27.3149 12.0921 27.5038 12.4499C27.9381 13.2759 28.9544 16.2022 28.9258 16.9025Z" fill="#303948"/>
<path d="M28.8785 13.4418L27.4492 12.582L28.8558 13.3904L28.8785 13.4418Z" fill="#110B19"/>
<path d="M13.6582 21.1583C15.9688 21.1583 17.8418 19.0207 17.8418 16.3838C17.8418 13.747 15.9688 11.6094 13.6582 11.6094C11.3477 11.6094 9.47461 13.747 9.47461 16.3838C9.47461 19.0207 11.3477 21.1583 13.6582 21.1583Z" fill="#8E9DA2"/>
<path d="M13.584 20.416C15.5699 20.416 17.1797 18.6107 17.1797 16.3838C17.1797 14.1569 15.5699 12.3516 13.584 12.3516C11.5981 12.3516 9.98828 14.1569 9.98828 16.3838C9.98828 18.6107 11.5981 20.416 13.584 20.416Z" fill="#60737C"/>
<path d="M13.6102 19.576C15.0847 19.576 16.28 18.1122 16.28 16.3065C16.28 14.5009 15.0847 13.0371 13.6102 13.0371C12.1357 13.0371 10.9404 14.5009 10.9404 16.3065C10.9404 18.1122 12.1357 19.576 13.6102 19.576Z" fill="#00010D"/>
<path d="M13.4306 18.2724C14.4392 18.2724 15.2568 17.3558 15.2568 16.2251C15.2568 15.0944 14.4392 14.1777 13.4306 14.1777C12.4221 14.1777 11.6045 15.0944 11.6045 16.2251C11.6045 17.3558 12.4221 18.2724 13.4306 18.2724Z" fill="#06131C"/>
<path fill-rule="evenodd" clip-rule="evenodd" d="M12.1377 16.2784C12.1381 16.3181 12.1535 16.3578 12.1826 16.3871C12.3772 16.5829 12.6755 16.7076 13.0093 16.7051C13.1586 16.704 13.301 16.6779 13.4288 16.6308C13.4103 16.623 13.393 16.6139 13.3732 16.6035C13.0893 16.446 12.8781 16.1137 12.8329 15.7129C12.7531 15.8191 12.6521 15.9148 12.5311 15.9948C12.5193 16.0029 12.5075 16.0108 12.4943 16.0175C12.6747 16.2933 12.8941 16.4896 13.1339 16.5789C12.8322 16.5138 12.5745 16.3231 12.414 16.063C12.3702 16.0855 12.3236 16.102 12.2777 16.12C12.2371 16.136 12.1947 16.1498 12.1676 16.1859C12.1478 16.2122 12.138 16.2437 12.1377 16.2752V16.2784Z" fill="#3BFFFF"/>
<path fill-rule="evenodd" clip-rule="evenodd" d="M13.212 17.2695C13.22 17.2813 13.228 17.2931 13.2347 17.3063C13.5108 17.1261 13.7074 16.907 13.7968 16.6675C13.7316 16.9688 13.5406 17.2262 13.2802 17.3864C13.3028 17.4303 13.3192 17.4768 13.3373 17.5226C13.3533 17.5632 13.3671 17.6055 13.4032 17.6325C13.4637 17.6779 13.5513 17.6705 13.6047 17.6176C13.8008 17.4232 13.9256 17.1253 13.9232 16.792C13.9221 16.6429 13.8959 16.5006 13.8488 16.373C13.841 16.3915 13.8318 16.4087 13.8214 16.4286C13.6637 16.7121 13.331 16.9229 12.9297 16.9681C13.036 17.0478 13.1318 17.1487 13.212 17.2695Z" fill="#3BFFFF"/>
<path fill-rule="evenodd" clip-rule="evenodd" d="M13.6465 15.9805C13.9304 16.1381 14.1415 16.4703 14.1867 16.8711C14.2666 16.765 14.3676 16.6692 14.4885 16.5892C14.5003 16.5812 14.5122 16.5732 14.5254 16.5665C14.345 16.2907 14.1256 16.0944 13.8858 16.0051C14.1875 16.0702 14.4452 16.261 14.6056 16.521C14.6495 16.4985 14.6961 16.4821 14.7419 16.464C14.7826 16.448 14.8249 16.4342 14.8521 16.3982C14.8975 16.3378 14.89 16.2502 14.8371 16.197C14.6424 16.0011 14.3442 15.8765 14.0104 15.8789C13.8611 15.88 13.7186 15.9061 13.5908 15.9532C13.6094 15.961 13.6266 15.9701 13.6465 15.9805Z" fill="#3BFFFF"/>
<path fill-rule="evenodd" clip-rule="evenodd" d="M13.0977 15.7923C13.0988 15.9414 13.1249 16.0837 13.1721 16.2113C13.1799 16.1928 13.189 16.1756 13.1994 16.1557C13.3572 15.8722 13.6899 15.6613 14.0912 15.6162C13.9849 15.5365 13.8891 15.4356 13.8089 15.3148C13.8009 15.303 13.7929 15.2911 13.7862 15.278C13.5101 15.4581 13.3135 15.6773 13.2241 15.9167C13.2893 15.6154 13.4803 15.3581 13.7407 15.1979C13.7181 15.154 13.7016 15.1075 13.6836 15.0617C13.6675 15.0211 13.6537 14.9788 13.6176 14.9517C13.5913 14.9319 13.5597 14.9222 13.5281 14.9219H13.525C13.4852 14.9223 13.4455 14.9376 13.4162 14.9667C13.222 15.1592 13.0977 15.4532 13.0977 15.7827C13.0977 15.7859 13.0977 15.7891 13.0977 15.7923Z" fill="#3BFFFF"/>
<path d="M10.2764 14.4702C10.2764 14.4702 11.5389 11.724 14.3101 12.4331C15.2654 12.6962 16.6984 13.8794 16.9468 15.6533C17.0988 15.6394 17.2518 15.6394 17.4039 15.6533C17.3187 14.5492 16.8226 13.5171 16.0135 12.7609C14.654 11.4954 12.0966 10.7966 10.2764 14.2857V14.4702Z" fill="#B6D1DA"/>
<path d="M15.7853 16.3126C15.7853 17.7537 14.8638 18.9222 13.7277 18.9222C13.5828 18.922 13.4385 18.903 13.2985 18.8656C13.3478 18.8693 13.3978 18.8715 13.4455 18.8715C14.6323 18.8715 15.5935 17.7427 15.5935 16.3494C15.5935 14.9561 14.6323 13.8281 13.4455 13.8281C13.2761 13.8282 13.1075 13.8514 12.9443 13.8971C13.1853 13.7705 13.4533 13.7039 13.7255 13.7031C14.8616 13.7031 15.7853 14.8716 15.7853 16.3126Z" fill="#3BFFFF"/>
<path d="M12.248 14.1361C13.5039 13.1293 14.9788 13.5805 15.6703 14.9856C15.868 15.3985 15.9532 15.8563 15.9173 16.3127C15.9267 15.8612 15.8258 15.4142 15.6233 15.0106C14.9061 13.6437 13.5297 13.2263 12.248 14.1361Z" fill="#A9B9AE"/>
<path d="M29.2318 17.3236C29.2855 15.4349 28.3639 13.4603 27.8701 12.5469L27.9348 12.541L28.4492 12.6145L28.8578 12.7931C28.7494 12.8073 28.6392 12.791 28.5396 12.746C28.8174 13.2605 29.7756 15.1101 29.7631 17.4926L29.2318 17.3236Z" fill="#89A5A6"/>
<path d="M27.3545 23.0785C27.6852 22.7846 28.7059 21.8292 29.149 22.1702L29.1446 22.1761C28.8713 22.0416 28.4472 22.3356 28.2011 22.47C27.9071 22.6457 27.6212 22.8867 27.3545 23.0815V23.0785Z" fill="#110B19"/>
<path d="M19.296 24.8642C20.291 25.6491 21.3102 26.4288 22.4052 27.0688C22.6093 27.1878 22.8206 27.2938 23.0379 27.3863C23.4134 27.5127 23.7463 27.1622 23.9808 26.9049C24.1846 26.6622 24.3643 26.4 24.5172 26.1223C24.5921 25.9797 24.6786 25.8436 24.7759 25.7152C24.8714 25.5805 24.9944 25.4675 25.1367 25.3838L25.8216 25.5961L25.1294 25.408C25.007 25.5029 24.8991 25.615 24.809 25.7409C24.7178 25.8704 24.6377 26.0074 24.5694 26.1502C24.425 26.4376 24.2527 26.7101 24.055 26.9637C23.8044 27.2665 23.4333 27.653 22.9953 27.512C22.17 27.1879 21.4249 26.6889 20.6893 26.2068C20.1565 25.8497 19.6347 25.48 19.1189 25.0964C19.1028 25.0849 19.0892 25.0702 19.0789 25.0533C19.0687 25.0364 19.0619 25.0175 19.0591 24.9979C19.0563 24.9783 19.0575 24.9584 19.0626 24.9392C19.0677 24.9201 19.0766 24.9022 19.0888 24.8866C19.1009 24.871 19.1162 24.858 19.1335 24.8484C19.1508 24.8388 19.1699 24.8329 19.1896 24.8308C19.2093 24.8288 19.2292 24.8308 19.2481 24.8367C19.267 24.8425 19.2845 24.8521 19.2996 24.8649L19.296 24.8642Z" fill="#110B19"/>
<path d="M25.133 25.3947L24.8045 24.6245C24.29 24.3856 23.7578 24.1866 23.2128 24.0293C22.1215 23.7045 20.9979 23.4759 19.8787 23.2739C19.3172 23.1754 18.7543 23.0806 18.1885 23.002C20.0991 23.2283 22.0149 23.5531 23.836 24.1858C24.1723 24.307 24.5009 24.4486 24.8199 24.6098C24.8222 24.6112 24.824 24.6133 24.8251 24.6157L25.133 25.3947Z" fill="#110B19"/>
<path opacity="0.33" d="M27.8515 26.3907C27.8468 26.4158 27.8396 26.4404 27.8301 26.4642C27.7816 26.5391 27.7098 26.5962 27.6258 26.6266C27.4179 26.7265 27.2702 26.8118 27.229 26.9977C27.0749 27.0352 26.9173 27.0568 26.7587 27.0623C26.5787 27.0557 26.3178 26.8896 26.7242 26.6611C27.1305 26.4326 27.2496 26.3774 27.2496 26.3774L27.4296 26.2305L27.8551 26.304C27.8572 26.3329 27.856 26.362 27.8515 26.3907Z" fill="#D9E0E2"/>
<path d="M28.2692 24.8855C28.2818 24.9366 28.2858 24.9895 28.281 25.042L28.0524 25.0655L27.743 24.6525C27.6546 24.5352 27.6015 24.395 27.5902 24.2485C27.5789 24.102 27.6097 23.9553 27.6791 23.8258C27.6791 23.8258 27.7313 23.7273 27.7724 23.634C27.8092 23.5524 28.1149 23.2202 28.1913 23.1387C28.1248 23.2134 28.063 23.2922 28.0061 23.3746C27.9437 23.473 27.793 23.9919 27.8555 24.3137C27.8566 24.1346 27.8828 23.9565 27.9334 23.7846C27.9841 23.6244 28.2677 23.4003 28.4066 23.2981C28.314 23.3944 28.2413 23.4672 28.217 23.4973C28.148 23.584 27.857 23.9088 28.0407 24.324C28.1663 24.6099 28.2413 24.7613 28.2692 24.8855Z" fill="url(#paint0_linear_54_830)"/>
<path d="M27.7383 23.2608C27.7912 23.1219 27.9815 22.9514 28.127 23.0771V23.0844C28.0484 23.1035 27.9918 23.105 27.9191 23.1285C27.8514 23.1586 27.7923 23.2051 27.7471 23.2637H27.7405L27.7383 23.2608Z" fill="#110B19"/>
<path d="M28.2807 25.0548C28.2594 25.2378 28.1521 25.5494 27.6407 25.6596C27.8648 25.8632 27.8648 26.3555 27.8516 26.3893C27.8469 26.4145 27.8398 26.4391 27.8303 26.4628C27.6594 26.4422 27.4906 26.4063 27.3261 26.3555C27.0976 26.2725 26.0328 25.9881 25.9461 25.9477C25.8593 25.9072 25.6595 25.6875 25.6595 25.6875L25.209 25.4164C25.209 25.4164 25.6381 25.2562 25.9703 25.1592C26.3025 25.0622 27.7112 24.6543 27.7443 24.6543C27.7649 24.658 27.7443 24.6543 27.7928 24.6543C27.8413 24.6543 28.1352 24.938 28.1352 24.938L28.1801 24.91C28.2087 24.8975 28.2393 24.8898 28.2705 24.8873C28.284 24.942 28.2875 24.9988 28.2807 25.0548Z" fill="#CDDDDD"/>
<path d="M27.3983 25.5545C27.3983 25.5545 26.5473 25.381 25.8213 25.5956C25.7728 25.6375 25.797 25.7029 25.9176 25.686C26.0381 25.6691 26.7377 25.5339 27.3983 25.5545Z" fill="#020814"/>
<path d="M12.8447 21.0652C12.8447 21.0652 14.4298 21.7104 16.2986 20.4648C16.8314 21.6061 17.4009 22.6334 17.5369 22.8899C17.6728 23.1464 18.2842 24.0209 18.2842 24.0209C18.2842 24.0209 18.8023 24.6433 19.1139 24.8924" stroke="#110B19" stroke-width="0.293948" stroke-linecap="round" stroke-linejoin="round"/>
<path d="M28.9715 12.6626C28.9707 12.6943 28.9587 12.7248 28.9376 12.7485C28.9164 12.7722 28.8875 12.7876 28.8561 12.7919L28.446 12.6141L27.9316 12.5406H27.8692L27.4488 12.5781L26.8477 12.631C26.8477 12.631 26.4119 12.6942 26.1731 12.7258C22.7052 8.35182 18.8053 7.71763 16.2802 7.48174C13.1115 7.13121 10.3146 8.23866 8.59277 9.17194C8.83116 8.9305 9.08419 8.70398 9.35042 8.49365C14.6319 4.28065 25.7806 5.23598 28.9715 12.6626Z" fill="#F5FBFB"/>
<path d="M28.9716 12.6626C28.9709 12.6943 28.9589 12.7248 28.9377 12.7485C28.9166 12.7722 28.8877 12.7876 28.8562 12.7919L28.4462 12.6141L27.9318 12.5406H27.8693L27.449 12.5781C24.8865 8.38489 21.6134 7.76393 19.4918 7.17603C15.3324 6.03111 11.6169 7.31566 9.35059 8.49365C14.6321 4.28065 25.7808 5.23598 28.9716 12.6626Z" fill="#FEFEFE"/>
<path d="M26.6033 37.6469L27.0251 38.8L15.6515 34.3613L9.16699 31.9532V31.2587C9.19183 31.1696 9.24063 31.0891 9.30809 31.0258C9.30809 31.0258 9.96947 30.6444 11.4936 30.9111C13.0177 31.1779 13.7592 31.524 13.7592 31.524L21.7693 33.7793C22.6063 34.2526 23.3125 34.6898 23.8703 35.0506C25.2151 35.9207 25.7537 36.3837 26.2152 37.0267C26.3577 37.225 26.4873 37.4321 26.6033 37.6469Z" fill="#110B19"/>
<path d="M29.133 13.3134C29.133 13.3134 29.4027 13.0283 29.05 12.774C28.6972 12.5198 28.0072 12.2346 26.5911 12.6271C26.2972 12.7204 25.9995 12.7005 25.918 12.8218C26.0275 12.8894 26.2068 12.8394 26.4324 12.7924C26.658 12.7454 27.5428 12.5227 28.0976 12.6212C28.6524 12.7196 28.8325 12.907 28.9486 13.0261C29.0256 13.1109 29.088 13.208 29.133 13.3134Z" fill="#110B19"/>
<path d="M15.3916 21.6285L16.0714 21.3691L16.2058 21.6285L15.5364 21.8769L15.3916 21.6285Z" fill="#110B19"/>
<path d="M12.3086 31.3145C12.3086 31.3145 10.2766 30.7883 9.58512 31.1557C8.89361 31.5232 10.3442 31.8553 10.9468 31.9641C11.5494 32.0728 12.8494 32.2477 13.8452 32.563C14.8409 32.8783 16.1137 33.2927 17.1793 33.763C19.2604 34.6816 20.3223 35.0939 21.368 35.8942C22.1444 36.5152 22.9663 37.077 23.8269 37.5748C24.1943 37.7843 24.9439 38.1943 25.7699 38.0062C25.961 37.9621 26.1873 37.9077 26.2549 37.7409C26.3497 37.5065 26.119 37.0736 24.6573 35.9566C23.616 35.1633 22.5167 34.449 21.3688 33.8196L14.0678 31.9655L12.5981 31.3571L12.3086 31.3145Z" fill="#566874"/>
<path d="M12.9447 32.3821C12.9447 32.3821 12.2407 31.4415 11.9085 30.3076C11.5764 29.1737 10.6357 25.395 10.6357 25.395L14.4813 25.334L18.8038 27.992L19.1154 28.5799C19.1154 28.5799 20.4852 30.3333 20.8725 31.0248C21.2598 31.7163 21.7852 33.1001 21.9513 33.7365C22.1174 34.3729 22.6707 35.7838 22.2276 36.3923C21.7845 37.0008 13.4305 34.4816 13.4305 34.4816L12.9447 32.3821Z" fill="#110B19"/>
<path d="M20.05 28.4611C19.8632 28.5126 19.7 28.6274 19.5885 28.7859C19.3952 29.0512 18.7368 30.5496 18.6332 31.0721C18.6282 31.097 18.6147 31.1195 18.595 31.1356C18.5753 31.1517 18.5506 31.1604 18.5251 31.1602H18.5038C18.4752 31.1546 18.45 31.1377 18.4337 31.1135C18.4175 31.0892 18.4115 31.0595 18.4171 31.0309C18.5207 30.5121 19.1836 28.9696 19.4114 28.658C19.5013 28.5325 19.6174 28.4279 19.7516 28.3516L20.05 28.4611Z" fill="#3BFFFF"/>
<path d="M20.7606 35.7614C20.7201 35.7612 20.6807 35.7477 20.6487 35.7228C20.6167 35.698 20.5938 35.6632 20.5835 35.624C20.3124 34.5951 19.6738 33.1768 19.03 32.1767C18.4054 31.2074 16.605 29.8876 16.5873 29.8743C16.5545 29.8436 16.5342 29.8019 16.5301 29.7572C16.526 29.7124 16.5384 29.6678 16.565 29.6316C16.5916 29.5954 16.6305 29.5702 16.6745 29.5607C16.7184 29.5513 16.7642 29.5583 16.8034 29.5804C16.8769 29.6362 18.6773 30.9546 19.3387 31.9812C20.0001 33.0078 20.6614 34.471 20.9385 35.5336C20.9447 35.5569 20.9462 35.5812 20.943 35.6051C20.9398 35.629 20.9318 35.652 20.9197 35.6728C20.9075 35.6937 20.8914 35.7119 20.8722 35.7265C20.8529 35.741 20.831 35.7516 20.8077 35.7577C20.7922 35.7611 20.7764 35.7624 20.7606 35.7614Z" fill="#3BFFFF"/>
<path d="M18.0113 35.0621C17.9828 35.062 17.9547 35.0554 17.9292 35.0426C17.9037 35.0299 17.8815 35.0114 17.8643 34.9886C17.0729 33.8973 16.0206 27.7296 15.9757 27.4672C15.9685 27.4195 15.9802 27.3709 16.0085 27.3319C16.0368 27.2928 16.0793 27.2664 16.1269 27.2584C16.1744 27.2504 16.2232 27.2614 16.2627 27.2891C16.3022 27.3167 16.3293 27.3588 16.338 27.4062C16.7091 29.5961 17.5682 33.9547 18.162 34.7726C18.1822 34.7999 18.1944 34.8323 18.1973 34.8662C18.2002 34.9001 18.1937 34.9341 18.1785 34.9646C18.1633 34.995 18.14 35.0206 18.1111 35.0386C18.0823 35.0566 18.049 35.0662 18.015 35.0665L18.0113 35.0621Z" fill="#314151"/>
<path d="M11.9077 21.5598C12.1091 22.0889 12.7161 23.76 12.7513 24.7705C12.758 24.9593 12.7513 25.1915 12.7513 25.4598C12.7469 25.7537 12.7425 26.0954 12.7513 26.4651C12.7771 27.8929 12.9718 29.7896 14.0359 31.6003L15.6526 34.3598C15.6772 34.4018 15.6842 34.4519 15.6719 34.499C15.6597 34.5461 15.6292 34.5864 15.5872 34.6111C15.5593 34.628 15.5272 34.6369 15.4946 34.6368C15.4625 34.637 15.4308 34.6286 15.403 34.6126C15.3751 34.5966 15.3519 34.5735 15.3359 34.5457L13.7192 31.7863C12.5911 29.8639 12.4023 27.8672 12.3817 26.3909C12.3773 26.0484 12.3817 25.7339 12.3861 25.4546C12.3861 25.1908 12.3927 24.963 12.3861 24.7837C12.3464 23.6601 11.5138 21.5503 11.5043 21.5319C11.4912 21.4993 11.4879 21.4637 11.4946 21.4292C11.5014 21.3948 11.518 21.3631 11.5425 21.3379L11.9077 21.5598Z" fill="#C7644D"/>
<path d="M27.0833 25.7438C27.0422 25.7857 26.954 25.8688 27.1355 25.9569C27.2403 26.0086 27.3498 26.0502 27.4625 26.0811C27.4625 26.0811 27.5 25.7291 27.3986 25.6895C27.2972 25.6498 27.0833 25.7438 27.0833 25.7438Z" fill="#F1F7F7"/>
<path d="M27.4395 25.679C27.4395 25.679 27.5431 25.887 27.5129 26.0391C27.5056 26.0905 27.6753 26.1596 27.7025 26.167C27.7297 26.1743 27.7341 25.956 27.6753 25.8796C27.6166 25.8032 27.4953 25.6445 27.4659 25.6592L27.4395 25.679Z" fill="#F1F7F7"/>
<path d="M15.0622 34.1786C15.044 34.1851 15.0247 34.188 15.0054 34.187C14.9861 34.1861 14.9672 34.1814 14.9497 34.1731C14.9322 34.1649 14.9165 34.1532 14.9036 34.1389C14.8906 34.1246 14.8806 34.1078 14.8741 34.0896C13.7541 30.9569 13.3139 28.4135 13.1714 26.5506C13.1258 25.9531 13.1111 25.4255 13.1148 24.9699C13.1258 23.5325 13.3095 22.5852 13.4227 22.1348C13.5329 22.1583 13.6307 22.1759 13.7167 22.1891C13.5748 22.7601 13.2941 24.2541 13.4778 26.6123C13.6248 28.5186 14.0782 30.9885 15.1519 33.9904C15.1584 34.0087 15.1612 34.028 15.1602 34.0473C15.1593 34.0667 15.1545 34.0856 15.1461 34.1031C15.1378 34.1206 15.1261 34.1363 15.1117 34.1492C15.0973 34.1622 15.0805 34.1721 15.0622 34.1786Z" fill="#314151"/>
<path d="M15.8175 34.4796C15.7993 34.4861 15.78 34.489 15.7607 34.4881C15.7414 34.4871 15.7224 34.4824 15.705 34.4742C15.6875 34.4659 15.6718 34.4543 15.6588 34.4399C15.6459 34.4256 15.6358 34.4089 15.6293 34.3907C14.4793 31.1741 14.0457 28.5801 13.9164 26.7025C13.8803 26.166 13.8686 25.6883 13.8715 25.2709C13.884 23.6469 14.117 22.6497 14.2199 22.2852C14.3163 22.3046 14.4113 22.3306 14.5042 22.3631C14.3837 22.7996 14.0464 24.2906 14.2213 26.7635C14.3573 28.6895 14.8041 31.2102 15.9064 34.2922C15.9194 34.3288 15.9173 34.3691 15.9006 34.4043C15.884 34.4394 15.8541 34.4665 15.8175 34.4796Z" fill="#314151"/>
<path d="M15.7625 23.7997C15.7095 23.8191 15.6586 23.8437 15.6104 23.8732C15.096 24.187 14.949 25.049 15.1232 26.9427C15.1516 27.2617 15.1896 27.611 15.2371 27.9907C15.5177 30.2331 15.9675 32.4512 16.5827 34.6258C16.5905 34.6623 16.5842 34.7004 16.565 34.7324C16.5457 34.7644 16.515 34.7879 16.4791 34.7981C16.4432 34.8083 16.4047 34.8045 16.3715 34.7873C16.3384 34.7702 16.313 34.7411 16.3005 34.7059C15.6807 32.5169 15.2277 30.2841 14.9454 28.0267C14.8939 27.61 14.8528 27.2293 14.8234 26.8825C14.6514 24.8932 14.8395 24.001 15.4568 23.6226C15.508 23.5916 15.5613 23.5644 15.6163 23.541L15.7625 23.7997Z" fill="#314151"/>
<path d="M10.0382 21.5662C10.0382 21.5662 10.2197 21.8337 10.3601 22.0747C10.765 22.7699 10.9112 23.6179 10.948 23.859C11.4513 26.8932 11.9393 30.4206 11.9393 30.4206C11.758 29.7769 11.5799 29.1216 11.405 28.4548C11.2228 27.7611 11.0499 27.0767 10.8862 26.4016C10.8194 25.9563 10.7319 25.4808 10.6165 24.9796C10.5012 24.4785 10.3755 24.0243 10.2425 23.5996C10.1536 23.2311 10.0104 22.878 9.81773 22.5516C9.68951 22.3413 9.54373 22.1422 9.38195 21.9564C9.38195 21.9564 8.99247 21.6522 8.36489 20.5668C8.06065 20.0406 6.38662 16.7072 7.31402 13.8059C7.92911 11.8776 9.52451 10.0838 12.0047 9.61719C11.555 9.79429 8.56624 11.048 7.73364 13.9963C6.78933 17.323 9.23644 20.5322 9.43339 20.7703C9.64895 21.0247 9.85083 21.2904 10.0382 21.5662Z" fill="#3BFFFF"/>
<path d="M27.8521 39.9318L7.98633 33.9632C8.49265 32.6845 9.08863 31.2441 9.08863 31.2441L9.16873 31.2559C9.05924 31.7328 10.1285 32.0385 10.6385 32.0745C12.8034 32.1782 15.1138 33.0703 16.8342 33.6134C18.5545 34.1564 20.6327 35.6431 23.62 37.0959C26.6072 38.5487 26.5668 38.0711 26.6329 37.8425C26.6461 37.7767 26.6384 37.7083 26.6109 37.6471C26.6432 37.7125 27.1686 38.7619 27.4927 39.3784C27.6022 39.5694 27.7222 39.7541 27.8521 39.9318Z" fill="#ADBFBF"/>
<path d="M23.8713 15.8828H20.2793C20.1628 15.8828 20.0684 15.9772 20.0684 16.0937V16.6735C20.0684 16.79 20.1628 16.8844 20.2793 16.8844H23.8713C23.9878 16.8844 24.0822 16.79 24.0822 16.6735V16.0937C24.0822 15.9772 23.9878 15.8828 23.8713 15.8828Z" fill="#3BFFFF"/>
<path opacity="0.6" d="M23.936 17.2422H20.2146C20.1338 17.2422 20.0684 17.3077 20.0684 17.3884V17.5971C20.0684 17.6779 20.1338 17.7434 20.2146 17.7434H23.936C24.0167 17.7434 24.0822 17.6779 24.0822 17.5971V17.3884C24.0822 17.3077 24.0167 17.2422 23.936 17.2422Z" fill="#3BFFFF"/>
</g>
</g>
<defs>
<linearGradient id="paint0_linear_54_830" x1="28.0069" y1="23.5223" x2="27.9451" y2="24.8186" gradientUnits="userSpaceOnUse">
<stop stop-color="#ADBFC1"/>
<stop offset="1" stop-color="#F1F7F7"/>
</linearGradient>
<clipPath id="clip0_54_830">
<rect width="36" height="36" fill="white"/>
</clipPath>
</defs>
</svg>
