<svg width="40" height="40" viewBox="0 0 40 40" fill="none" xmlns="http://www.w3.org/2000/svg"><rect width="40" height="40" rx="4" fill="#EFF1F5"/><path d="M30.942 27.551H10.057V12.075c0-1.146.928-2.075 2.074-2.075h6.385c.919 0 1.76.518 2.174 1.338l.434.863h7.744c1.145 0 2.075.928 2.075 2.075V27.55z" fill="#2896FF"/><path d="M27.857 14.36H12.52c-.575 0-1.041.466-1.041 1.04v6.171c0 .575.466 1.042 1.041 1.042h15.337c.575 0 1.042-.467 1.042-1.042v-6.17c0-.575-.467-1.042-1.042-1.042z" fill="#F3F6FF"/><path d="M28.818 29.302H12.182a2.278 2.278 0 01-2.267-2.057l-.91-9.305a1.127 1.127 0 011.123-1.237h20.744c.666 0 1.187.574 1.123 1.237l-.91 9.305a2.278 2.278 0 01-2.267 2.057z" fill="#77B6FF"/><path d="M21.894 19.855h-2.788a.72.72 0 000 1.44h2.788a.72.72 0 000-1.44z" fill="#3B72FF"/></svg>
