<svg width="32" height="32" fill="none" xmlns="http://www.w3.org/2000/svg" viewBox="0 0 32 32"><path d="M6.667 28c-.734 0-1.361-.26-1.883-.783A2.573 2.573 0 014 25.333V6.667c0-.734.261-1.361.784-1.883A2.574 2.574 0 016.667 4h18.666c.734 0 1.362.261 1.884.784.523.523.784 1.15.783 1.883V16.7c0 .378-.128.689-.384.933a1.321 1.321 0 01-.95.367 1.29 1.29 0 01-.949-.384 1.29 1.29 0 01-.384-.95v-10H6.667v18.667h8c.377 0 .694.128.95.384s.384.573.383.95a1.3 1.3 0 01-.384.95 1.275 1.275 0 01-.95.383h-8zm4-5.333c.377 0 .694-.128.95-.384s.384-.573.383-.95c0-.377-.129-.693-.384-.949a1.287 1.287 0 00-.95-.384c-.377 0-.694.128-.949.384a1.296 1.296 0 00-.384.95c0 .376.127.693.384.95s.574.384.95.383zm0-5.334c.377 0 .694-.128.95-.384s.384-.572.383-.949c0-.377-.129-.693-.384-.95a1.287 1.287 0 00-.95-.383c-.377 0-.694.128-.949.384a1.296 1.296 0 00-.384.949c0 .377.127.694.384.95.257.258.574.385.95.383zm0-5.333c.377 0 .694-.128.95-.384s.384-.572.383-.95c0-.376-.129-.693-.384-.949a1.287 1.287 0 00-.95-.384c-.377 0-.694.128-.949.384a1.297 1.297 0 00-.384.95c0 .377.127.693.384.95s.574.385.95.383zm10.666 5.333c.378 0 .695-.128.951-.384s.384-.572.383-.949c-.001-.377-.13-.693-.384-.95a1.287 1.287 0 00-.95-.383H16c-.378 0-.694.128-.95.384a1.296 1.296 0 00-.383.949c-.001.377.127.694.384.95.257.258.573.385.949.383h5.333zm0-5.333c.378 0 .695-.128.951-.384s.384-.572.383-.95c-.001-.376-.13-.693-.384-.949a1.287 1.287 0 00-.95-.384H16c-.378 0-.694.128-.95.384a1.297 1.297 0 00-.383.95c-.001.377.127.693.384.95s.573.385.949.383h5.333zm-6.666 9.333c0 .378.128.695.384.951s.572.384.949.383h.067c.377 0 .694-.128.95-.384s.384-.573.383-.95c0-.377-.129-.693-.384-.949a1.287 1.287 0 00-.95-.384H16c-.378 0-.694.128-.95.384a1.296 1.296 0 00-.383.95z" fill="currentColor"/><path d="M19 26.43c0 .337.07.671.206.983.135.312.334.595.585.834a2.769 2.769 0 001.908.753h7.198c.531 0 1.043-.19 1.433-.535.389-.344.627-.816.665-1.321a1.935 1.935 0 00-.46-1.398 2.126 2.126 0 00-1.338-.724 3.888 3.888 0 00-1.03-2.646 4.264 4.264 0 00-2.607-1.34 4.367 4.367 0 00-2.887.633 4.013 4.013 0 00-1.73 2.292c-.56.156-1.053.48-1.403.926-.35.445-.54.986-.54 1.543z" stroke="currentColor" stroke-width="2" stroke-linejoin="round"/></svg>
