<svg width="40" height="40" viewBox="0 0 40 40" fill="none" xmlns="http://www.w3.org/2000/svg"><rect width="40" height="40" rx="4" fill="#EFF1F5"/><path d="M29.627 16.094L23.961 10.3c-.42-.429-1.142-.393-1.605.078-.463.471-.498 1.208-.078 1.636l.168.17-12.341 12.34a3.771 3.771 0 105.335 5.334l12.282-12.282.223.23c.42.428 1.143.393 1.605-.079.463-.47.499-1.205.078-1.633h-.001zm-7.21 4.062H17.4s6.158-6.025 6.23-6.1l2.446 2.446-3.659 3.656v-.002zm-5.017 0l-5.984 5.722a1.806 1.806 0 102.573 2.534l8.428-8.257H17.4v.001z" fill="#7BAEFF"/><path d="M17.4 20.154l-5.984 5.722a1.806 1.806 0 102.573 2.533l8.428-8.257H17.4v.002zM26.137 28.615c0 1.48.863 2.085 1.932 2.085 1.068 0 1.932-.602 1.932-2.085s-1.932-4.482-1.932-4.482-1.932 3-1.932 4.482z" fill="#4169F9"/></svg>
