<svg width="184" height="184" viewBox="0 0 184 184" fill="none" xmlns="http://www.w3.org/2000/svg"><path fill-rule="evenodd" clip-rule="evenodd" d="M0 91.045c.026 2.671 1.057 5.331 3.008 7.298 13.05 13.144 33.044 21.512 55.42 21.35 10.007-.074 19.558-1.827 28.127-4.989-1.245-.522-2.4-1.134-3.734-1.833-19.029-10.576-33.185-32.878-36.216-59.778-5.35 7.123-12.121 13.548-20.23 18.922-.794.538-1.587 1.073-2.47 1.524 12.091 18.509 26.802 31.686 42.874 37.68-20.223-4.369-37.499-17.173-48.254-34.63-2.941 1.514-6.066 2.615-9.137 3.828-2.725 1.076-5.565 2-7.385 4.42C.676 86.605.022 88.719 0 90.836v.21z" fill="#3F66FF"/><path fill-rule="evenodd" clip-rule="evenodd" d="M72.014 157.627c.538.791 1.073 1.585 1.524 2.468 18.509-12.092 31.686-26.8 37.68-42.874-4.369 20.225-17.173 37.499-34.63 48.254 1.514 2.942 2.616 6.066 3.829 9.137 1.075 2.727 1.999 5.566 4.42 7.384 4.054 3.047 9.929 2.546 13.505-1.004 13.144-13.051 21.513-33.043 21.35-55.42-.074-10.007-1.827-19.558-4.988-28.125-.523 1.243-1.135 2.4-1.834 3.733-10.576 19.029-32.878 33.185-59.778 36.215 7.124 5.351 13.549 12.123 18.922 20.232z" fill="#1A79FF"/><path fill-rule="evenodd" clip-rule="evenodd" d="M101.18 71.13c19.03 10.576 33.185 32.879 36.216 59.78 5.351-7.124 12.122-13.55 20.231-18.922.792-.539 1.586-1.075 2.468-1.525-12.092-18.51-26.8-31.686-42.874-37.68 20.225 4.369 37.5 17.174 48.254 34.631 2.943-1.514 6.066-2.617 9.138-3.828 2.726-1.077 5.565-2.001 7.383-4.42 3.047-4.055 2.547-9.931-1.003-13.506-13.052-13.144-33.043-21.514-55.421-21.35-10.006.073-19.558 1.825-28.125 4.988 1.244.522 2.4 1.133 3.733 1.832z" fill="#14AEFF"/><path fill-rule="evenodd" clip-rule="evenodd" d="M64.309 58.428c.073 10.007 1.826 19.558 4.988 28.127.522-1.245 1.133-2.4 1.833-3.734 10.576-19.029 32.878-33.185 59.779-36.216-7.124-5.35-13.55-12.121-18.922-20.23-.539-.794-1.074-1.587-1.525-2.47C91.953 35.997 78.776 50.708 72.783 66.78c4.368-20.223 17.173-37.499 34.63-48.253-1.514-2.942-2.617-6.067-3.828-9.138-1.077-2.725-2.001-5.565-4.42-7.384C97.395.675 95.282.02 93.163 0h-.21c-2.67.026-5.33 1.057-7.295 3.008-13.018 12.925-21.352 32.66-21.352 54.775 0 .216 0 .43.002.645z" fill="#09CBFF"/></svg>
