<svg width="684" height="184" viewBox="0 0 684 184" fill="none" xmlns="http://www.w3.org/2000/svg"><path fill-rule="evenodd" clip-rule="evenodd" d="M0 91.045c.026 2.671 1.057 5.331 3.008 7.298 13.05 13.144 33.044 21.512 55.42 21.35 10.007-.074 19.558-1.827 28.127-4.989-1.245-.522-2.4-1.134-3.734-1.833-19.029-10.576-33.185-32.878-36.216-59.778-5.35 7.123-12.121 13.548-20.23 18.922-.794.538-1.587 1.073-2.47 1.524 12.091 18.509 26.802 31.686 42.874 37.68-20.223-4.369-37.499-17.173-48.254-34.63-2.941 1.514-6.066 2.615-9.137 3.828-2.725 1.076-5.565 2-7.385 4.42C.676 86.605.022 88.719 0 90.836v.209z" fill="currentColor"/><path fill-rule="evenodd" clip-rule="evenodd" d="M72.014 157.627c.538.791 1.073 1.585 1.524 2.468 18.509-12.092 31.686-26.8 37.68-42.874-4.369 20.225-17.173 37.499-34.63 48.254 1.514 2.942 2.616 6.066 3.829 9.137 1.075 2.727 1.999 5.566 4.42 7.384 4.054 3.047 9.929 2.546 13.505-1.004 13.144-13.051 21.513-33.043 21.35-55.42-.074-10.007-1.827-19.558-4.988-28.125-.523 1.243-1.135 2.4-1.834 3.733-10.576 19.029-32.878 33.185-59.778 36.215 7.124 5.351 13.549 12.123 18.922 20.232z" fill="currentColor"/><path fill-rule="evenodd" clip-rule="evenodd" d="M101.18 71.13c19.03 10.576 33.185 32.879 36.216 59.78 5.351-7.124 12.122-13.55 20.231-18.922.792-.539 1.586-1.075 2.468-1.525-12.092-18.51-26.8-31.686-42.874-37.68 20.225 4.369 37.5 17.174 48.254 34.631 2.943-1.514 6.066-2.617 9.138-3.828 2.726-1.077 5.565-2.001 7.383-4.42 3.047-4.055 2.547-9.931-1.003-13.506-13.052-13.144-33.043-21.514-55.421-21.35-10.006.073-19.558 1.825-28.125 4.988 1.244.522 2.4 1.133 3.733 1.832z" fill="currentColor"/><path fill-rule="evenodd" clip-rule="evenodd" d="M64.309 58.428c.073 10.007 1.826 19.558 4.988 28.127.522-1.245 1.133-2.4 1.833-3.734 10.576-19.029 32.878-33.185 59.779-36.216-7.124-5.35-13.55-12.121-18.922-20.23-.539-.794-1.074-1.587-1.525-2.47C91.953 35.997 78.776 50.708 72.783 66.78c4.368-20.223 17.173-37.499 34.63-48.253-1.514-2.942-2.617-6.067-3.828-9.138-1.077-2.725-2.001-5.565-4.42-7.384C97.395.675 95.282.02 93.163 0h-.21c-2.67.026-5.33 1.057-7.295 3.008-13.018 12.925-21.352 32.66-21.352 54.775 0 .216.001.43.003.645z" fill="currentColor"/><path fill-rule="evenodd" clip-rule="evenodd" d="M234.544 47L200 136.557h16.119l26.484-68.655L257.302 106h-22.567l-5.339 13.814h33.227l6.465 16.743h16.12L250.664 47h-16.12zm215.243 89.559h13.815V47h-13.815v89.559zM363.303 69.23v13.805c-4.141-1.056-8.444-.731-12.341.974-2.598 1.218-4.954 3.005-6.741 5.278-1.867 2.193-3.167 4.71-3.978 7.552V83.035c1.542-4.304 4.466-7.958 8.202-10.475 4.384-2.923 9.662-4.06 14.858-3.33zm-68.785 67.327h13.817V69.221h-13.817v67.336zm316.998-67.303v65.204a26.198 26.198 0 01-5.116 14.778c-7.876 10.15-21.355 10.637-25.578 10.718-3.329 0-18.432.65-27.039-9.744-2.518-2.923-4.223-6.496-5.035-10.231h14.291a16.138 16.138 0 003.898 4.872c3.898 3.248 8.932 4.791 14.048 4.385 1.461 0 9.175-.975 13.073-5.928 2.03-2.517 3.329-5.603 3.573-8.85v-7.065c-5.279 5.847-12.668 9.501-20.625 9.501-16.402 0-29.638-15.185-29.638-33.942 0-18.757 13.236-33.942 29.638-33.942h13.804v13.804h-13.804c-1.949 0-3.898.487-5.603 1.38a1.75 1.75 0 00-.649.407c-2.112 1.137-3.979 2.842-5.441 5.034a23.28 23.28 0 00-1.948 3.41c-.65 1.219-1.056 2.436-1.381 3.736-.487 1.949-.812 3.979-.812 6.171s.325 4.222.812 6.171c.325 1.299.731 2.517 1.381 3.735a23.194 23.194 0 001.948 3.411c1.462 2.192 3.329 3.897 5.441 5.034.162.162.405.325.649.406 2.436 1.299 5.197 2.111 8.039 2.111 10.069 0 18.189-9.338 18.189-20.868V69.254h13.885zm-126.739 8.977a31.24 31.24 0 00-9.161 22.059v6.19a31.224 31.224 0 0053 21.542 31.222 31.222 0 009.43-21.542v-6.19a31.234 31.234 0 00-9.154-22.05 31.246 31.246 0 00-22.047-9.154 31.256 31.256 0 00-22.068 9.145zm34.361 9.764a17.384 17.384 0 015.092 12.295v6.19a17.42 17.42 0 01-5.316 11.899 17.4 17.4 0 01-12.081 4.878 17.413 17.413 0 01-12.086-4.878 17.402 17.402 0 01-5.312-11.899v-6.19a17.396 17.396 0 015.105-12.296 17.418 17.418 0 0112.305-5.09 17.39 17.39 0 0112.293 5.091zm164.164-18.768l-30.505 79.834-4.038 10.504h-13.815l10.919-28.564v-.018L622.24 69.227h13.813l16.727 43.678v.018l.017-.018 16.691-43.678h13.814zm-388.82-7.037h13.885V47.33h-13.885v14.86z" fill="currentColor"/><path fill-rule="evenodd" clip-rule="evenodd" d="M294.482 136.893h13.885V69.01h-13.885v67.883zm31.977-.034h13.817V69.015h-13.817v67.844zM431.628 69.01v67.883h-13.804v-9.581c-5.278 5.927-12.667 9.581-20.625 9.581-16.402 0-29.638-15.184-29.638-33.941 0-18.757 13.236-33.942 29.638-33.942h13.804v13.804h-13.804c-1.948 0-3.897.487-5.602 1.381a1.752 1.752 0 00-.65.406c-2.111 1.137-3.979 2.842-5.44 5.034a23.195 23.195 0 00-1.949 3.41c-.65 1.22-1.056 2.436-1.38 3.736-.488 1.948-.813 3.978-.813 6.171 0 2.192.325 4.222.813 6.171.324 1.299.73 2.517 1.38 3.735a23.138 23.138 0 001.949 3.41c1.461 2.193 3.329 3.898 5.44 5.035.162.162.406.325.65.406 2.435 1.299 5.196 2.111 8.038 2.111 10.069 0 18.189-9.338 18.189-20.868V69.01h13.804z" fill="currentColor"/></svg>
