<svg width="20" height="20" viewBox="0 0 20 20" fill="none" xmlns="http://www.w3.org/2000/svg"><path d="M9.615 15.071a6.131 6.131 0 01-4.227-.77l-.254-.148-1.444.393a.531.531 0 01-.652-.652l.393-1.442a18.04 18.04 0 01-.293-.51 6.11 6.11 0 1111.436-3.75 4.248 4.248 0 011.506 5.618c-.03.055-.083.148-.16.281l.242.89a.531.531 0 01-.652.652l-.891-.243-.103.06a4.232 4.232 0 01-2.183.603 4.234 4.234 0 01-2.718-.982zm1.326-.399c.434.21.91.32 1.392.319a3.17 3.17 0 001.636-.452l.308-.18a.532.532 0 01.407-.053l.208.057-.057-.209a.531.531 0 01.056-.41c.086-.144.17-.29.253-.437.248-.462.377-.979.376-1.504.001-.832-.325-1.632-.907-2.227a6.114 6.114 0 01-3.672 5.096zm-6.426-2.157l-.208.762.762-.208a.531.531 0 01.407.053l.458.268a5.047 5.047 0 10-1.86-1.95c.052.096.182.32.386.665a.531.531 0 01.055.41zM10.74 7.2a.531.531 0 110 1.063H6.312a.531.531 0 010-1.063h4.427zM8.614 9.855a.531.531 0 110 1.063H6.312a.531.531 0 010-1.063h2.302z" fill="currentColor"/></svg>
