<svg width="24" height="24" viewBox="0 0 24 24" fill="none" xmlns="http://www.w3.org/2000/svg"><path d="M11.143 5.429h-6c-.947 0-1.715.767-1.715 1.714v12c0 .947.768 1.714 1.715 1.714h12c.946 0 1.714-.767 1.714-1.714v-6" stroke="currentColor" stroke-width="2" stroke-linecap="round" stroke-linejoin="round"/><path d="M10.797 14.3a.59.59 0 01-.337-.104.34.34 0 01-.154-.289l-.415-.318.415-.277h1.693c.364 0 .668-.068.912-.202a1.34 1.34 0 00.563-.596c.13-.262.195-.578.195-.948 0-.57-.155-.98-.467-1.23-.312-.255-.745-.382-1.297-.382H10.27l.036-1.012h1.492c.987 0 1.733.21 2.239.63.509.417.763 1.062.763 1.937 0 .377-.057.733-.171 1.069a2.386 2.386 0 01-1.451 1.502c-.38.147-.833.22-1.362.22h-1.019zm-1.045 3.046a.554.554 0 01-.554-.554V9.496c0-.306.248-.554.554-.554h.554v7.85a.554.554 0 01-.554.554z" fill="currentColor"/><path d="M10.306 8.942l-.036 1.012h1.635c.552 0 .985.127 1.297.381.312.25.467.661.467 1.231 0 .37-.065.686-.195.948a1.34 1.34 0 01-.563.596c-.244.134-.548.202-.912.202h-1.693l-.415.277.415.318c0 .12.051.216.154.289a.59.59 0 00.337.104h1.019c.529 0 .983-.073 1.362-.22a2.386 2.386 0 001.451-1.503c.114-.335.171-.69.171-1.069 0-.874-.254-1.52-.763-1.936-.506-.42-1.252-.63-2.239-.63h-1.492zm0 0v7.85a.554.554 0 11-1.108 0V9.496c0-.306.248-.554.554-.554h.554z" stroke="currentColor" stroke-width=".6"/><path d="M17.868 2.788c.02-.1.242-.1.264 0 .153.727.46 1.775 1.025 2.34s1.614.873 2.34 1.026c.1.021.1.243 0 .264-.726.153-1.775.46-2.34 1.025s-.872 1.614-1.025 2.34c-.022.1-.243.1-.264 0-.154-.726-.461-1.775-1.026-2.34s-1.613-.872-2.34-1.025c-.1-.021-.1-.243 0-.264.727-.153 1.775-.46 2.34-1.026.565-.565.872-1.613 1.026-2.34zM14.81 1.564c.01-.046.111-.046.121 0 .07.33.21.808.467 1.065.257.257.735.397 1.066.467.045.01.045.11 0 .12-.331.07-.809.21-1.066.467s-.397.735-.467 1.066c-.01.045-.11.045-.12 0-.07-.331-.21-.809-.467-1.066s-.735-.397-1.066-.467c-.045-.01-.045-.11 0-.12.331-.07.809-.21 1.066-.467s.397-.735.467-1.065z" fill="currentColor"/></svg>
