<svg width="40" height="40" viewBox="0 0 40 40" fill="none" xmlns="http://www.w3.org/2000/svg"><path d="M36 0H4a4 4 0 00-4 4v32a4 4 0 004 4h32a4 4 0 004-4V4a4 4 0 00-4-4z" fill="#EFF1F5"/><path d="M11.436 15.95H27.85c.792 0 1.436.643 1.436 1.436v9.438H10v-9.438c0-.792.643-1.436 1.436-1.436z" fill="#2896FF"/><path d="M12.986 10h13.31c.903 0 1.634.732 1.634 1.634v13.26H11.352v-13.26c0-.902.732-1.634 1.634-1.634z" fill="#fff"/><path d="M13.487 17.317h12.31m-12.31-3.28h12.31m-12.31 6.315h6.44" stroke="#77B6FF" stroke-width=".872" stroke-linecap="round" stroke-linejoin="round"/><path d="M27.05 30.966H12.234c-1.234 0-2.234-1-2.234-2.234v-8.146l9.642 3.818 9.643-3.818v8.146a2.235 2.235 0 01-2.235 2.235z" fill="#77B6FF"/><path d="M12.035 27.887h2.645a.683.683 0 010 1.365h-2.645a.683.683 0 010-1.365z" fill="#3B72FF"/></svg>
