<svg width="40" height="40" fill="none" xmlns="http://www.w3.org/2000/svg"><mask id="prefix__a" style="mask-type:alpha" maskUnits="userSpaceOnUse" x="0" y="0" width="40" height="40"><rect width="40" height="40" rx="4" fill="#D9D9D9"/></mask><g mask="url(#prefix__a)"><path fill="#F2F3F5" d="M0 0h40v40H0z"/><g filter="url(#prefix__filter0_d_1822_20351)"><rect x="9.782" y="8.765" width="19.972" height="22.47" rx="2.497" fill="url(#prefix__paint0_linear_1822_20351)"/><g filter="url(#prefix__filter1_bi_1822_20351)"><rect x="12.458" y="13.58" width="14.979" height="1.4" rx=".7" fill="#fff" fill-opacity=".88"/><rect x="12.536" y="13.658" width="14.823" height="1.244" rx=".622" stroke="url(#prefix__paint1_linear_1822_20351)" stroke-width=".156"/></g><g filter="url(#prefix__filter2_bi_1822_20351)"><rect x="12.458" y="18" width="8" height="1.4" rx=".7" fill="#fff" fill-opacity=".88"/><rect x="12.536" y="18.078" width="7.844" height="1.244" rx=".622" stroke="url(#prefix__paint2_linear_1822_20351)" stroke-width=".156"/></g><g filter="url(#prefix__filter3_bi_1822_20351)"><rect x="12.458" y="22.5" width="8" height="1.4" rx=".7" fill="#fff" fill-opacity=".88"/><rect x="12.536" y="22.578" width="7.844" height="1.244" rx=".622" stroke="url(#prefix__paint3_linear_1822_20351)" stroke-width=".156"/></g><g filter="url(#prefix__filter4_bi_1822_20351)"><mask id="prefix__b" fill="#fff"><path fill-rule="evenodd" clip-rule="evenodd" d="M22.088 18.038c0-.69.559-1.248 1.248-1.248h8.26c.69 0 1.248.558 1.248 1.248V28.45c0 .69-.559 1.248-1.248 1.248h-8.26c-.69 0-1.248-.559-1.248-1.248V18.038zm1.076 2.5c0-.298.24-.538.538-.538h7.53a.538.538 0 010 1.075h-7.53a.538.538 0 01-.538-.538zm.53 2.672a.535.535 0 000 1.07h4.279a.535.535 0 000-1.07h-4.28z"/></mask><path fill-rule="evenodd" clip-rule="evenodd" d="M22.088 18.038c0-.69.559-1.248 1.248-1.248h8.26c.69 0 1.248.558 1.248 1.248V28.45c0 .69-.559 1.248-1.248 1.248h-8.26c-.69 0-1.248-.559-1.248-1.248V18.038zm1.076 2.5c0-.298.24-.538.538-.538h7.53a.538.538 0 010 1.075h-7.53a.538.538 0 01-.538-.538zm.53 2.672a.535.535 0 000 1.07h4.279a.535.535 0 000-1.07h-4.28z" fill="#fff" fill-opacity=".45"/><path d="M23.336 16.634c-.775 0-1.404.628-1.404 1.404h.312c0-.603.489-1.092 1.092-1.092v-.313zm8.26 0h-8.26v.312h8.26v-.313zM33 18.038c0-.776-.628-1.404-1.404-1.404v.312c.603 0 1.092.489 1.092 1.092H33zm0 10.412V18.038h-.312V28.45H33zm-1.404 1.404c.776 0 1.404-.628 1.404-1.404h-.312c0 .603-.489 1.092-1.092 1.092v.312zm-8.26 0h8.26v-.312h-8.26v.312zm-1.404-1.404c0 .776.629 1.404 1.404 1.404v-.312a1.092 1.092 0 01-1.092-1.092h-.312zm0-10.412V28.45h.312V18.038h-.312zm1.77 1.805a.694.694 0 00-.694.694h.312c0-.21.171-.381.382-.381v-.313zm7.53 0h-7.53v.313h7.53v-.313zm.693.694a.694.694 0 00-.694-.694v.313c.211 0 .382.17.382.381h.312zm-.694.694c.384 0 .694-.31.694-.694h-.312c0 .211-.17.382-.382.382v.312zm-7.529 0h7.53v-.312h-7.53v.312zm-.694-.694c0 .384.31.694.694.694v-.312a.382.382 0 01-.382-.382h-.312zm.306 3.208c0-.21.17-.38.38-.38v-.311a.691.691 0 00-.692.69h.312zm.38.378a.379.379 0 01-.38-.378h-.312c0 .381.31.69.691.69v-.311zm4.279 0h-4.28v.313h4.28v-.313zm.379-.378c0 .209-.17.378-.38.378v.313c.382 0 .692-.31.692-.691h-.312zm-.38-.38c.21 0 .38.17.38.38h.312a.691.691 0 00-.691-.692v.313zm-4.279 0h4.28v-.311h-4.28v.312z" fill="url(#prefix__paint4_linear_1822_20351)" mask="url(#prefix__b)"/></g></g></g><defs><linearGradient id="prefix__paint0_linear_1822_20351" x1="19.617" y1="8.765" x2="19.709" y2="27.096" gradientUnits="userSpaceOnUse"><stop stop-color="#15DAC3"/><stop offset="1" stop-color="#00A8EF"/></linearGradient><linearGradient id="prefix__paint1_linear_1822_20351" x1="19.948" y1="13.58" x2="19.948" y2="14.98" gradientUnits="userSpaceOnUse"><stop stop-color="#fff" stop-opacity=".37"/><stop offset="1" stop-color="#fff" stop-opacity="0"/></linearGradient><linearGradient id="prefix__paint2_linear_1822_20351" x1="16.458" y1="18" x2="16.458" y2="19.399" gradientUnits="userSpaceOnUse"><stop stop-color="#fff" stop-opacity=".37"/><stop offset="1" stop-color="#fff" stop-opacity="0"/></linearGradient><linearGradient id="prefix__paint3_linear_1822_20351" x1="16.458" y1="22.5" x2="16.458" y2="23.899" gradientUnits="userSpaceOnUse"><stop stop-color="#fff" stop-opacity=".37"/><stop offset="1" stop-color="#fff" stop-opacity="0"/></linearGradient><linearGradient id="prefix__paint4_linear_1822_20351" x1="27.466" y1="16.79" x2="27.466" y2="29.698" gradientUnits="userSpaceOnUse"><stop stop-color="#fff" stop-opacity=".37"/><stop offset="1" stop-color="#fff" stop-opacity="0"/></linearGradient><filter id="prefix__filter0_d_1822_20351" x="6.789" y="6.703" width="33.048" height="32.456" filterUnits="userSpaceOnUse" color-interpolation-filters="sRGB"><feFlood flood-opacity="0" result="BackgroundImageFix"/><feColorMatrix in="SourceAlpha" values="0 0 0 0 0 0 0 0 0 0 0 0 0 0 0 0 0 0 127 0" result="hardAlpha"/><feOffset dx="2" dy="2.931"/><feGaussianBlur stdDeviation="2.496"/><feComposite in2="hardAlpha" operator="out"/><feColorMatrix values="0 0 0 0 0.536432 0 0 0 0 0.567419 0 0 0 0 0.677279 0 0 0 0.34 0"/><feBlend in2="BackgroundImageFix" result="effect1_dropShadow_1822_20351"/><feBlend in="SourceGraphic" in2="effect1_dropShadow_1822_20351" result="shape"/></filter><filter id="prefix__filter1_bi_1822_20351" x="9.369" y="10.49" width="21.158" height="7.579" filterUnits="userSpaceOnUse" color-interpolation-filters="sRGB"><feFlood flood-opacity="0" result="BackgroundImageFix"/><feGaussianBlur in="BackgroundImageFix" stdDeviation="1.545"/><feComposite in2="SourceAlpha" operator="in" result="effect1_backgroundBlur_1822_20351"/><feBlend in="SourceGraphic" in2="effect1_backgroundBlur_1822_20351" result="shape"/><feColorMatrix in="SourceAlpha" values="0 0 0 0 0 0 0 0 0 0 0 0 0 0 0 0 0 0 127 0" result="hardAlpha"/><feOffset dx=".624" dy=".936"/><feGaussianBlur stdDeviation=".515"/><feComposite in2="hardAlpha" operator="arithmetic" k2="-1" k3="1"/><feColorMatrix values="0 0 0 0 1 0 0 0 0 1 0 0 0 0 1 0 0 0 0.41 0"/><feBlend in2="shape" result="effect2_innerShadow_1822_20351"/></filter><filter id="prefix__filter2_bi_1822_20351" x="9.369" y="14.91" width="14.179" height="7.579" filterUnits="userSpaceOnUse" color-interpolation-filters="sRGB"><feFlood flood-opacity="0" result="BackgroundImageFix"/><feGaussianBlur in="BackgroundImageFix" stdDeviation="1.545"/><feComposite in2="SourceAlpha" operator="in" result="effect1_backgroundBlur_1822_20351"/><feBlend in="SourceGraphic" in2="effect1_backgroundBlur_1822_20351" result="shape"/><feColorMatrix in="SourceAlpha" values="0 0 0 0 0 0 0 0 0 0 0 0 0 0 0 0 0 0 127 0" result="hardAlpha"/><feOffset dx=".624" dy=".936"/><feGaussianBlur stdDeviation=".515"/><feComposite in2="hardAlpha" operator="arithmetic" k2="-1" k3="1"/><feColorMatrix values="0 0 0 0 1 0 0 0 0 1 0 0 0 0 1 0 0 0 0.41 0"/><feBlend in2="shape" result="effect2_innerShadow_1822_20351"/></filter><filter id="prefix__filter3_bi_1822_20351" x="9.369" y="19.41" width="14.179" height="7.579" filterUnits="userSpaceOnUse" color-interpolation-filters="sRGB"><feFlood flood-opacity="0" result="BackgroundImageFix"/><feGaussianBlur in="BackgroundImageFix" stdDeviation="1.545"/><feComposite in2="SourceAlpha" operator="in" result="effect1_backgroundBlur_1822_20351"/><feBlend in="SourceGraphic" in2="effect1_backgroundBlur_1822_20351" result="shape"/><feColorMatrix in="SourceAlpha" values="0 0 0 0 0 0 0 0 0 0 0 0 0 0 0 0 0 0 127 0" result="hardAlpha"/><feOffset dx=".624" dy=".936"/><feGaussianBlur stdDeviation=".515"/><feComposite in2="hardAlpha" operator="arithmetic" k2="-1" k3="1"/><feColorMatrix values="0 0 0 0 1 0 0 0 0 1 0 0 0 0 1 0 0 0 0.41 0"/><feBlend in2="shape" result="effect2_innerShadow_1822_20351"/></filter><filter id="prefix__filter4_bi_1822_20351" x="18.998" y="13.7" width="16.935" height="19.088" filterUnits="userSpaceOnUse" color-interpolation-filters="sRGB"><feFlood flood-opacity="0" result="BackgroundImageFix"/><feGaussianBlur in="BackgroundImageFix" stdDeviation="1.545"/><feComposite in2="SourceAlpha" operator="in" result="effect1_backgroundBlur_1822_20351"/><feBlend in="SourceGraphic" in2="effect1_backgroundBlur_1822_20351" result="shape"/><feColorMatrix in="SourceAlpha" values="0 0 0 0 0 0 0 0 0 0 0 0 0 0 0 0 0 0 127 0" result="hardAlpha"/><feOffset dx=".624" dy=".936"/><feGaussianBlur stdDeviation=".515"/><feComposite in2="hardAlpha" operator="arithmetic" k2="-1" k3="1"/><feColorMatrix values="0 0 0 0 1 0 0 0 0 1 0 0 0 0 1 0 0 0 0.41 0"/><feBlend in2="shape" result="effect2_innerShadow_1822_20351"/></filter></defs></svg>
