<svg width="40" height="40" viewBox="0 0 40 40" fill="none" xmlns="http://www.w3.org/2000/svg"><rect width="40" height="40" rx="4" fill="#EFF1F5"/><path d="M9.873 19.531h13.293V32h-11.77c-.84 0-1.523-.682-1.523-1.522V19.531z" fill="#77B6FF"/><path d="M23.165 19.535H9.872l-1.81-3.774a.619.619 0 01.557-.886h11.414c.547 0 1.047.313 1.283.808l1.848 3.852h.001z" fill="#CCD7F6"/><path d="M23.164 19.531h6.965v10.915c0 .857-.696 1.554-1.555 1.554h-5.41V19.53z" fill="#2896FF"/><path d="M30.129 19.535h-6.965l1.847-3.852a1.425 1.425 0 011.284-.808h5.085c.455 0 .754.474.558.886l-1.81 3.774z" fill="#CCD7F6"/><path d="M20.563 8h-.038a.571.571 0 00-.572.571v3.91c0 .316.256.572.572.572h.038a.571.571 0 00.572-.571v-3.91A.571.571 0 0020.563 8zM24.948 9.638l-.07-.034a.552.552 0 00-.74.25l-1.135 2.295a.55.55 0 00.25.739l.07.034a.552.552 0 00.74-.25l1.135-2.295a.551.551 0 00-.25-.739zM17.56 13.055l.051-.025a.562.562 0 00.255-.752l-1.197-2.42a.563.563 0 00-.754-.255l-.05.025a.562.562 0 00-.255.753l1.197 2.42a.563.563 0 00.753.254z" fill="#3B72FF"/></svg>
