<svg width="180" height="180" viewBox="0 0 180 180" fill="none" xmlns="http://www.w3.org/2000/svg"><path d="M107.12 139.618a.944.944 0 01-.859-1.314c0-.03 1.28-3.002 1.04-5.524-.267-2.838.281-6.666.93-8.062 1.667-3.573 6.628-3.614 6.839-3.614a.938.938 0 110 1.876c-.068 0-3.986.053-5.138 2.53-.421.904-1.033 4.282-.751 7.093.285 3.003-1.126 6.309-1.186 6.448a.94.94 0 01-.875.567z" fill="#314151"/><path d="M146.836 85.6c.079.189-.109.665-1.036 2.388-.6 1.126-1.827 2.447-2.709 3.378-.473.492-.845.863-.969 1.017-.353.443-1.839 2.102-.9 4.222.641 1.453 1.024 2.226 1.167 2.868.064.26.085.531.06.799v.06c-.109.935-.657 2.526-3.269 3.089.878.799 1.081 2.466 1.096 3.276.011.151.005.302-.019.451-.024.128-.06.254-.109.375a2.094 2.094 0 01-1.043.83c-1.062.51-1.817.945-2.027 1.895a2.258 2.258 0 00-.053.375c-.078 1.22.477 5.713.124 7.728-.352 2.016-3.122 6.966-9.536 8.054-1.089.184-5.007-.915-10.048-2.582-12.562-4.128-32.097-11.796-32.097-11.796l-31.65-6.369-2.064 2.702h-.075l-1.051-.019s-2.331-8.193-4.028-11.867c-1.696-3.675-3.325-8.34-5.355-10.565-2.03-2.226-24.253-40.583 0-66.019a42.182 42.182 0 014.504-4.155C72.721-5.78 129.661-.901 145.958 37.028a.684.684 0 01-.589.661 3 3 0 01-1.625-.24c.375.71 1.024 1.921 1.749 3.554A53.195 53.195 0 01147.084 45c2.931 8.313 5.431 21.915-1.877 36.248l-.184 1.573s1.734 2.597 1.813 2.78z" fill="#ADBFC1"/><path d="M149.985 61.691a43.195 43.195 0 01-4.778 19.558l-.183 1.572a2.28 2.28 0 00-2.755 0c-1.46 1.063-3.562 2.35-5.364 4.223-1.801 1.873-4.413 3.727-12.997 4.879-8.583 1.152-23.69-5.551-30.119-16.57-3.322-5.514-2.627-11.553-2.627-12.585s2.192-14.9-4.166-23.446c-6.358-8.546-15.534-15.474-32.063-7.067-10.6 5.652-17.265 33.876 0 47.665a28.58 28.58 0 0011.634 5.499c.563.12 1.063.21 1.502.277.559.098.998.162 1.298.225.376.087.815.158 1.272.256.493.099.979.232 1.453.398a7.341 7.341 0 013.42 2.51 33.338 33.338 0 012.251 3.517c.251.432.5.878.75 1.321a126.72 126.72 0 013.07 5.953c.639 1.343 3.322 4.804 8.055 7.739 4.733 2.935 14.694 9.007 19.216 10.7 3.1 1.24 6.06 2.804 8.831 4.665l-.12.845c-12.562-4.129-32.097-11.796-32.097-11.796l-14.844-2.988-3.809-.762-1.55-.319-9.638-1.937-1.817-.375-2.064 2.702h-.075l-.274-1.009a37.99 37.99 0 00-.233-4.459 38.106 38.106 0 00-1.662-7.679s-.987-3.884-1.483-5.367c-.495-1.482-1.389-4.639-2.094-5.337a51.39 51.39 0 01-5.194-7.097c-1.554-2.687-10.104-19.712-5.367-34.53 3.14-9.848 11.289-19.01 23.956-21.392 6.418-1.205 13.992-.672 22.662 2.39 14.483 5.371 28.753 15.614 34.972 16.18l1.088.098c5.487.465 8.257.405 9.758-.593 1.276-.848 2.125-1.633 2.766-1.944.14-.073.291-.121.447-.143.698-.067 4.098-.563 4.098-.563l5.217-.499.331-.03 2.627.375 2.087.912a3.005 3.005 0 01-1.626-.24c1.408 2.65 6.302 12.12 6.238 24.268z" fill="#110B19"/><path d="M145.726 58.68c-2.962-1.202-15.096-3.04-18.203-3.322-.976-2.064-7.274-12.164-9.473-15.234 5.487.465 8.257.405 9.758-.593 1.276-.849 5.435-1.73 6.076-2.042.593 0 3.615-3.378 4.579-1.55 2.218 4.218 7.409 19.163 7.263 22.74z" fill="#303948"/><path d="M145.485 41.002l-7.299-4.39 7.183 4.128.116.262zm.728 1.716c-.165-.41-.33-.8-.487-1.171.161.371.326.762.487 1.17z" fill="#110B19"/><path d="M67.75 80.415c11.8 0 21.366-10.917 21.366-24.384S79.55 31.647 67.75 31.647c-11.801 0-21.367 10.917-21.367 24.384s9.566 24.384 21.367 24.384z" fill="#8E9DA2"/><path d="M67.37 76.625c10.142 0 18.364-9.22 18.364-20.594 0-11.373-8.222-20.593-18.364-20.593-10.142 0-18.364 9.22-18.364 20.593 0 11.374 8.222 20.594 18.364 20.594z" fill="#60737C"/><path d="M67.505 72.337c7.53 0 13.636-7.476 13.636-16.698 0-9.222-6.105-16.698-13.636-16.698-7.53 0-13.635 7.476-13.635 16.698 0 9.222 6.105 16.698 13.635 16.698z" fill="#00010D"/><path d="M66.59 65.672c5.151 0 9.327-4.681 9.327-10.456 0-5.775-4.176-10.456-9.327-10.456-5.15 0-9.326 4.681-9.326 10.456 0 5.775 4.175 10.456 9.326 10.456z" fill="#06131C"/><path fill-rule="evenodd" clip-rule="evenodd" d="M59.985 55.487a.8.8 0 00.23.555c.994 1 2.517 1.637 4.222 1.625a6.348 6.348 0 002.143-.38 3.544 3.544 0 01-.285-.14c-1.45-.804-2.528-2.5-2.759-4.547a6.2 6.2 0 01-1.73 1.555c.922 1.408 2.043 2.411 3.267 2.867-1.54-.332-2.857-1.306-3.676-2.635-.224.115-.462.2-.696.292-.208.081-.424.152-.563.336a.77.77 0 00-.153.456v.016zm5.487 5.066c.04.06.082.121.116.188 1.41-.92 2.414-2.039 2.87-3.262-.332 1.539-1.308 2.853-2.638 3.672.116.223.2.461.292.695.082.207.152.423.337.562a.8.8 0 001.029-.077c1.001-.993 1.639-2.514 1.626-4.216a6.321 6.321 0 00-.38-2.14c-.04.094-.086.182-.14.284-.805 1.447-2.504 2.525-4.554 2.755a6.198 6.198 0 011.442 1.54zm2.222-6.581c1.45.805 2.528 2.502 2.76 4.549a6.2 6.2 0 011.728-1.556c-.92-1.408-2.041-2.41-3.266-2.867 1.54.333 2.857 1.307 3.676 2.635.225-.115.463-.199.697-.291.207-.082.424-.152.562-.337a.797.797 0 00-.076-1.027c-.995-1-2.518-1.637-4.223-1.625a6.341 6.341 0 00-2.142.38c.094.04.182.086.284.14zm-2.809-.966a6.32 6.32 0 00.38 2.14 3.53 3.53 0 01.14-.284c.805-1.448 2.504-2.525 4.554-2.755a6.198 6.198 0 01-1.558-1.728c-1.41.92-2.414 2.04-2.87 3.263.332-1.54 1.308-2.854 2.637-3.672-.115-.224-.199-.462-.291-.695-.082-.207-.152-.424-.337-.562a.772.772 0 00-.457-.153h-.016a.802.802 0 00-.556.23c-.992.983-1.627 2.484-1.627 4.167v.05z" fill="#3BFFFF"/><path d="M50.481 46.26s6.448-14.025 20.602-10.403c4.879 1.343 12.197 7.386 13.466 16.446a12.802 12.802 0 012.334 0 22.598 22.598 0 00-7.1-14.772c-6.944-6.463-20.005-10.033-29.302 7.787v.942z" fill="#B6D1DA"/><path d="M78.615 55.667c0 7.36-4.706 13.328-10.509 13.328a8.52 8.52 0 01-2.191-.29c.251.02.506.03.75.03 6.061 0 10.97-5.764 10.97-12.88 0-7.116-4.909-12.877-10.97-12.877a9.51 9.51 0 00-2.56.353 8.631 8.631 0 013.99-.991c5.802 0 10.52 5.967 10.52 13.327z" fill="#3BFFFF"/><path d="M60.547 44.55c6.414-5.143 13.947-2.838 17.478 4.338a13.283 13.283 0 011.261 6.778 14.172 14.172 0 00-1.5-6.65c-3.664-6.981-10.694-9.113-17.24-4.467z" fill="#A9B9AE"/><path d="M147.287 60.83c.274-9.646-4.433-19.73-6.955-24.396l.33-.03 2.628.376 2.086.912a3.003 3.003 0 01-1.625-.24c1.419 2.627 6.313 12.073 6.249 24.241l-2.713-.863z" fill="#89A5A6"/><path d="M137.701 90.226c1.689-1.501 6.902-6.38 9.165-4.639l-.022.03c-1.396-.686-3.562.815-4.819 1.502-1.501.897-2.961 2.128-4.324 3.122v-.015zm-41.157 9.12c5.082 4.009 10.288 7.991 15.88 11.26a28.858 28.858 0 003.232 1.621c1.917.646 3.618-1.145 4.815-2.458a24.902 24.902 0 002.74-3.997c.382-.729.824-1.424 1.321-2.08a5.962 5.962 0 011.843-1.692l3.498 1.084-3.536-.96a8.14 8.14 0 00-1.636 1.7 14.475 14.475 0 00-1.224 2.09 25.09 25.09 0 01-2.627 4.155c-1.28 1.546-3.175 3.52-5.412 2.8-4.215-1.655-8.021-4.204-11.778-6.666a201.041 201.041 0 01-8.02-5.671.755.755 0 01-.288-.803.75.75 0 011.211-.379l-.019-.004z" fill="#110B19"/><path d="M126.355 102.054l-1.678-3.933a56.468 56.468 0 00-8.129-3.04c-5.573-1.659-11.312-2.826-17.028-3.858-2.867-.503-5.742-.987-8.632-1.389 9.758 1.156 19.542 2.815 28.843 6.046a44.87 44.87 0 015.025 2.166.07.07 0 01.027.03l1.568 3.978h.004z" fill="#110B19"/><path d="M140.238 107.14c-.024.129-.06.255-.109.376a2.087 2.087 0 01-1.043.829c-1.062.511-1.817.946-2.027 1.896-.787.191-1.592.302-2.402.33-.919-.034-2.252-.882-.176-2.049 2.075-1.168 2.683-1.449 2.683-1.449l.92-.751 2.173.376c.011.147.004.296-.019.442z" fill="#D9E0E2"/><path d="M142.377 99.458c.065.262.085.532.06.8l-1.167.12-1.58-2.11a3.93 3.93 0 01-.327-4.222s.267-.503.477-.98c.188-.416 1.749-2.112 2.139-2.529-.339.382-.655.784-.945 1.205-.32.503-1.089 3.152-.77 4.796.006-.914.14-1.824.398-2.702.259-.818 1.708-1.963 2.417-2.484-.473.491-.844.863-.968 1.017-.353.442-1.839 2.101-.901 4.222.642 1.46 1.025 2.233 1.167 2.867z" fill="url(#prefix__prefix__paint0_linear_54_939)"/><path d="M139.664 91.16c.27-.709 1.242-1.58 1.985-.938v.038c-.401.097-.69.105-1.062.225a2.285 2.285 0 00-.878.69h-.034l-.011-.015z" fill="#110B19"/><path d="M142.43 100.325c-.108.934-.656 2.526-3.269 3.089 1.145 1.039 1.145 3.554 1.077 3.726-.024.129-.06.255-.109.376a14.78 14.78 0 01-2.574-.548c-1.167-.424-6.606-1.877-7.048-2.083-.443-.207-1.464-1.329-1.464-1.329l-2.301-1.385s2.192-.818 3.888-1.313c1.697-.496 8.892-2.579 9.061-2.579.105.02 0 0 .247 0 .248 0 1.749 1.449 1.749 1.449l.229-.143a1.48 1.48 0 01.462-.116c.069.28.087.57.052.856z" fill="#CDDDDD"/><path d="M137.927 102.869s-4.346-.885-8.054.21c-.248.214-.124.548.491.462.616-.086 4.189-.777 7.563-.672z" fill="#020814"/><path d="M145.958 37.027a.684.684 0 01-.589.661l-2.095-.908-2.627-.376h-.319l-2.147.192-3.07.27s-2.225.323-3.445.484c-17.711-22.339-37.63-25.578-50.525-26.782-16.184-1.79-30.468 3.865-39.262 8.632a42.193 42.193 0 013.87-3.464C72.721-5.781 129.661-.902 145.958 37.027z" fill="#F5FBFB"/><path d="M145.958 37.027a.684.684 0 01-.589.661l-2.095-.908-2.627-.376h-.319l-2.147.192c-13.087-21.416-29.803-24.587-40.638-27.59-21.243-5.847-40.22.713-51.795 6.73C72.722-5.781 129.662-.902 145.958 37.027z" fill="#FEFEFE"/><path d="M133.866 164.626l2.154 5.888-58.088-22.669-33.117-12.299v-3.547c.126-.455.376-.866.72-1.19 0 0 3.378-1.947 11.162-.585 7.784 1.362 11.571 3.13 11.571 3.13l40.91 11.519a210.862 210.862 0 0110.73 6.493c6.868 4.443 9.619 6.808 11.976 10.092a28.959 28.959 0 011.982 3.168zm12.918-124.273s1.378-1.456-.424-2.755c-1.801-1.299-5.326-2.755-12.558-.75-1.501.476-3.021.375-3.438.994.559.345 1.475.09 2.627-.15 1.153-.24 5.671-1.377 8.505-.875 2.834.503 3.753 1.46 4.346 2.068.394.434.712.93.942 1.468zM76.603 82.825l3.472-1.325.687 1.325-3.42 1.268-.739-1.268z" fill="#110B19"/><path d="M60.86 132.287s-10.378-2.687-13.91-.811c-3.532 1.877 3.877 3.573 6.955 4.129 3.077.555 9.717 1.448 14.802 3.058 5.086 1.611 11.586 3.727 17.028 6.129 10.63 4.692 16.053 6.797 21.393 10.885a101.364 101.364 0 0012.558 8.583c1.877 1.07 5.705 3.164 9.924 2.203.976-.225 2.132-.503 2.477-1.355.484-1.197-.694-3.408-8.159-9.112a134.17 134.17 0 00-16.796-10.915l-37.288-9.469-7.506-3.107-1.479-.218z" fill="#566874"/><path d="M64.109 137.741s-3.596-4.804-5.292-10.595c-1.697-5.792-6.5-25.09-6.5-25.09l19.64-.312 22.076 13.575 1.591 3.003s6.996 8.955 8.974 12.487c1.978 3.531 4.661 10.599 5.51 13.849.848 3.25 3.674 10.456 1.411 13.564-2.263 3.107-44.93-9.758-44.93-9.758l-2.48-10.723z" fill="#110B19"/><path d="M100.395 117.71a4.27 4.27 0 00-2.357 1.658c-.987 1.355-4.35 9.008-4.88 11.677a.56.56 0 01-.55.45h-.11a.563.563 0 01-.443-.661c.53-2.649 3.915-10.527 5.078-12.119a5.46 5.46 0 011.738-1.565l1.524.56z" fill="#3BFFFF"/><path d="M104.024 155.006a.941.941 0 01-.905-.702c-1.385-5.255-4.646-12.498-7.934-17.606-3.19-4.951-12.386-11.691-12.476-11.759a.939.939 0 011.104-1.501c.375.285 9.57 7.018 12.948 12.261 3.378 5.243 6.756 12.716 8.171 18.143a.936.936 0 01-.668 1.145.882.882 0 01-.24.019z" fill="#3BFFFF"/><path d="M89.987 151.425a.94.94 0 01-.75-.375c-4.043-5.574-9.417-37.074-9.646-38.414a.937.937 0 011.85-.311c1.895 11.184 6.283 33.444 9.315 37.621a.945.945 0 01-.26 1.359.947.947 0 01-.49.143l-.019-.023z" fill="#314151"/><path d="M58.81 82.471c1.028 2.703 4.128 11.237 4.308 16.398.034.965 0 2.15 0 3.52a129.812 129.812 0 000 5.135c.132 7.292 1.126 16.979 6.56 26.227l8.258 14.093a.938.938 0 01-1.618.95L68.061 134.7c-5.76-9.818-6.725-20.015-6.83-27.555-.023-1.749 0-3.356.022-4.782 0-1.347.034-2.51 0-3.427-.203-5.738-4.455-16.513-4.504-16.607a.927.927 0 01.195-.991l1.866 1.133z" fill="#C7644D"/><path d="M136.316 103.832c-.21.213-.66.638.267 1.088a9.41 9.41 0 001.67.634s.191-1.798-.326-2c-.518-.203-1.611.278-1.611.278z" fill="#F1F7F7"/><path d="M138.137 103.505s.529 1.062.375 1.839c-.038.262.829.615.968.653.139.037.162-1.077-.139-1.468-.3-.39-.919-1.201-1.069-1.126l-.135.102z" fill="#F1F7F7"/><path d="M74.922 146.917a.753.753 0 01-.96-.454c-5.72-16-7.969-28.99-8.697-38.504a96.086 96.086 0 01-.289-8.073c.057-7.341.995-12.18 1.573-14.48a27.1 27.1 0 001.501.278c-.724 2.916-2.158 10.546-1.22 22.59.751 9.736 3.067 22.35 8.55 37.682a.751.751 0 01-.458.961z" fill="#314151"/><path d="M78.776 148.444a.753.753 0 01-.96-.454c-5.874-16.428-8.088-29.676-8.749-39.266a98.833 98.833 0 01-.229-7.311c.064-8.294 1.254-13.387 1.78-15.249.492.1.977.232 1.452.398-.616 2.23-2.339 9.844-1.445 22.474.694 9.837 2.976 22.71 8.606 38.451a.75.75 0 01-.454.957z" fill="#314151"/><path d="M78.495 93.911c-.27.1-.53.225-.777.375-2.627 1.603-3.378 6.005-2.488 15.677.145 1.629.339 3.413.582 5.352a228.93 228.93 0 006.872 33.888.75.75 0 01-1.078.825.755.755 0 01-.364-.416 230.06 230.06 0 01-6.92-34.113 154.966 154.966 0 01-.623-5.843c-.879-10.16.082-14.717 3.235-16.65.261-.158.533-.297.814-.416l.747 1.321z" fill="#314151"/><path d="M49.262 82.505s.927 1.366 1.644 2.597c2.068 3.55 2.815 7.882 3.002 9.113 2.571 15.497 5.063 33.512 5.063 33.512a579.064 579.064 0 01-2.728-10.04 565.674 565.674 0 01-2.65-10.486 95.617 95.617 0 00-1.377-7.262 93.973 93.973 0 00-1.91-7.049 19.545 19.545 0 00-2.17-5.352 22.323 22.323 0 00-2.226-3.04s-1.989-1.554-5.194-7.097c-1.554-2.688-10.104-19.712-5.367-34.53 3.141-9.848 11.29-19.01 23.956-21.393-2.297.905-17.56 7.308-21.813 22.366-4.823 16.99 7.675 33.38 8.681 34.596 1.1 1.3 2.132 2.656 3.089 4.065z" fill="#3BFFFF"/><path d="M140.243 176.3l-101.46-30.484c2.586-6.53 5.63-13.886 5.63-13.886l.409.06c-.56 2.436 4.902 3.997 7.506 4.181 11.057.529 22.857 5.085 31.643 7.859 8.786 2.773 19.4 10.366 34.657 17.786 15.257 7.42 15.05 4.981 15.388 3.813a1.646 1.646 0 00-.113-.998c.166.334 2.849 5.694 4.504 8.842a30.301 30.301 0 001.836 2.827z" fill="#ADBFBF"/><path d="M119.911 53.47h-18.346c-.594 0-1.077.483-1.077 1.078v2.961c0 .595.483 1.077 1.077 1.077h18.346c.595 0 1.077-.482 1.077-1.077v-2.961c0-.595-.482-1.077-1.077-1.077zm.33 6.944h-19.006a.747.747 0 00-.747.747v1.066c0 .412.335.747.747.747h19.006a.747.747 0 00.747-.747V61.16a.747.747 0 00-.747-.747z" fill="#3BFFFF"/><defs><linearGradient id="prefix__prefix__paint0_linear_54_939" x1="91.408" y1="37.501" x2="87.996" y2="154.257" gradientUnits="userSpaceOnUse"><stop stop-color="#ADBFC1"/><stop offset="1" stop-color="#F1F7F7"/></linearGradient></defs></svg>
