<svg width="40" height="40" viewBox="0 0 40 40" fill="none" xmlns="http://www.w3.org/2000/svg"><rect width="40" height="40" rx="4" fill="#EFF1F5"/><path d="M16.977 20.38a8.167 8.167 0 00-1.734 2.802 8.165 8.165 0 00-.504 2.833v.975c0 .06.003.121.006.183H10.42A2.42 2.42 0 018 24.752v-.684a4.568 4.568 0 014.568-4.569h1.715a4.535 4.535 0 012.694.88z" fill="#7BAEFF"/><path d="M31 25.718v.876a3.873 3.873 0 01-3.868 3.869h-7.706a3.871 3.871 0 01-3.867-3.869v-.876a6.651 6.651 0 01.127-1.295c.604-3.035 3.286-5.33 6.494-5.33h2.197a6.594 6.594 0 014.502 1.773c.498.462.926 1 1.264 1.596a6.57 6.57 0 01.858 3.256z" fill="#508AFF"/><circle cx="13.5" cy="15" r="3" fill="#7BAEFF"/><circle cx="23.301" cy="14" r="4" fill="#508AFF"/></svg>
