<svg width="20" height="20" viewBox="0 0 20 20"  fill="none" xmlns="http://www.w3.org/2000/svg"><path clip-rule="evenodd" d="M8.25 8.667c1.354 0 2.45-1.045 2.45-2.334C10.7 5.045 9.605 4 8.25 4 6.899 4 5.8 5.045 5.8 6.333c0 1.289 1.098 2.334 2.45 2.334z" stroke="currentColor" stroke-width="1.2" stroke-linecap="round" stroke-linejoin="round"/><path d="M13.014 4.332c.711.408 1.187 1.151 1.187 2s-.476 1.592-1.187 2" stroke="currentColor" stroke-width="1.2" stroke-linecap="round" stroke-linejoin="round"/><path clip-rule="evenodd" d="M3 15.599v.4h10.5v-.4c0-1.494 0-2.24-.305-2.81a2.737 2.737 0 00-1.224-1.166c-.599-.291-1.383-.291-2.951-.291H7.48c-1.568 0-2.352 0-2.951.29a2.737 2.737 0 00-1.224 1.166C3 13.358 3 14.105 3 15.598z" stroke="currentColor" stroke-width="1.2" stroke-linecap="round" stroke-linejoin="round"/><path d="M17 16.001v-.4c0-1.494 0-2.24-.306-2.81a2.737 2.737 0 00-1.223-1.166" stroke="currentColor" stroke-width="1.2" stroke-linecap="round" stroke-linejoin="round"/></svg>
