<svg width="20" height="20" fill="none" viewBox="0 0 20 20" xmlns="http://www.w3.org/2000/svg">
  <path
    d="M8.797 12.3a.59.59 0 01-.337-.104.34.34 0 01-.154-.289l-.415-.318.415-.277h1.693c.364 0 .668-.068.912-.202a1.34 1.34 0 00.563-.596c.13-.262.195-.578.195-.948 0-.57-.155-.98-.467-1.23-.312-.255-.745-.382-1.297-.382H8.27l.036-1.012h1.492c.987 0 1.733.21 2.239.63.509.417.763 1.062.763 1.936 0 .378-.057.735-.171 1.07a2.386 2.386 0 01-1.451 1.502c-.38.147-.833.22-1.362.22H8.797zm-1.045 3.046a.554.554 0 01-.554-.554V7.496c0-.306.248-.554.554-.554h.554v7.85a.554.554 0 01-.554.554z"
    fill="currentColor" />
  <path
    d="M8.306 6.942L8.27 7.954h1.635c.552 0 .985.127 1.297.381.312.25.467.661.467 1.231 0 .37-.065.686-.195.948a1.34 1.34 0 01-.563.596c-.244.134-.548.202-.912.202H8.306l-.415.277.415.318c0 .12.051.216.154.289a.59.59 0 00.337.104h1.019c.529 0 .983-.073 1.362-.22a2.386 2.386 0 001.451-1.503c.114-.335.171-.69.171-1.069 0-.874-.254-1.52-.763-1.936-.506-.42-1.252-.63-2.239-.63H8.306zm0 0v7.85a.554.554 0 11-1.108 0V7.496c0-.306.248-.554.554-.554h.554z"
    stroke="currentColor" stroke-width=".6" />
</svg>
