<svg width="48" height="48" viewBox="0 0 48 48" fill="none" xmlns="http://www.w3.org/2000/svg"><path d="M35.462 15.393a32.264 32.264 0 00-2.265-.58c.272-2.492-.13-4.277-1.116-4.847-.255-.149-.565-.22-.917-.22-.998 0-2.341.582-3.836 1.674a28.99 28.99 0 00-1.64-1.672c1.981-1.494 3.882-2.31 5.514-2.314.742 0 1.425.17 2.038.525 1.91 1.101 2.693 3.728 2.22 7.431l.002.003zM11.472 27.356a30.115 30.115 0 00-.631 2.256C7.516 28.2 5.516 26.223 5.516 23.97c0-2.253 2-4.233 5.325-5.642.175.738.385 1.49.63 2.256-2.293 1.007-3.638 2.25-3.638 3.388s1.345 2.379 3.639 3.389v-.005zM42.484 23.97c0 2.258-2.002 4.238-5.334 5.644a31.707 31.707 0 00-.631-2.255c2.298-1.008 3.648-2.254 3.648-3.391s-1.35-2.381-3.648-3.393c-.22-.097-.45-.192-.686-.284-.109-.045-.222-.085-.336-.128a24.271 24.271 0 00-2.488-.754 19.7 19.7 0 00-.276-.485c-.092-.16-.187-.321-.284-.48a38.99 38.99 0 00-.79-1.286c-.096-.158-.198-.314-.3-.47.135.02.265.047.395.068.367.071.726.144 1.074.222.785.173 1.534.372 2.244.591.36.11.707.225 1.045.35.36.128.702.263 1.036.402 3.331 1.412 5.334 3.391 5.334 5.647l-.003.002zM30.668 31.364c-.255.042-.518.078-.778.11-.475.065-.962.121-1.457.169-.95.092-1.929.156-2.939.186l-.061-.068a.75.75 0 01-.057.07c-.435.013-.875.02-1.317.02A.56.56 0 0124 31.78a.885.885 0 01-.061.07c-.445 0-.882-.006-1.315-.018-.02-.024-.04-.047-.057-.071l-.061.068a43.076 43.076 0 01-4.398-.355c-.26-.032-.52-.073-.776-.11a23.978 23.978 0 01.634-2.258c.929.141 1.894.245 2.882.316.459.033.92.062 1.388.078h.002a37.812 37.812 0 001.76.036c.127 0 .253 0 .378-.003a37.68 37.68 0 001.378-.033c.471-.016.934-.045 1.393-.078a36.44 36.44 0 002.883-.317c.009.029.018.06.028.088a26.171 26.171 0 01.605 2.17h.005z" fill="#508AFF"/><path d="M22.306 38.19c-1.982 1.492-3.883 2.307-5.512 2.307-.742 0-1.428-.168-2.038-.522-1.956-1.128-2.667-3.85-2.225-7.432.042-.36.097-.726.165-1.097.062-.355.135-.714.22-1.08a27.75 27.75 0 01.613-2.25c.106-.342.224-.688.35-1.04.042-.128.087-.253.137-.38a27.968 27.968 0 01.536-1.384 43.878 43.878 0 011.89-3.984c.028-.007.061-.014.092-.019a1.335 1.335 0 01-.033-.087c.205-.381.418-.764.638-1.147.029-.007.062-.012.092-.017-.011-.028-.02-.061-.03-.09.22-.383.444-.756.671-1.125a.432.432 0 01.095-.012.665.665 0 01-.029-.09 43.159 43.159 0 011.627-2.45 45.243 45.243 0 011.362-1.799c.194.177.386.364.577.553a25.569 25.569 0 011.064 1.126 39.459 39.459 0 00-2.48 3.507 47.18 47.18 0 00-.721 1.177l-.192.326c-.064.11-.128.22-.187.33-.23.401-.449.808-.66 1.21a39.28 39.28 0 00-1.797 3.9 1.03 1.03 0 01-.09-.02c.017.033.036.07.057.104a36.85 36.85 0 00-.357.955c-.05.137-.097.272-.144.405-.073.215-.144.43-.213.64a26.357 26.357 0 00-.612 2.246c-.083.367-.156.729-.215 1.079-.02.118-.04.227-.057.338-.04.255-.073.506-.1.747-.274 2.492.13 4.278 1.117 4.847.255.147.565.22.917.22.996 0 2.341-.584 3.833-1.678.54.596 1.088 1.156 1.641 1.678l-.002.008z" fill="#508AFF"/><path d="M24.554 34.047a25.407 25.407 0 001.908 1.79l.268.215c.203.163.404.32.602.464 1.492 1.092 2.836 1.674 3.833 1.674.353 0 .663-.073.918-.22.986-.57 1.386-2.358 1.116-4.847-.026-.242-.062-.49-.1-.748a21.913 21.913 0 00-.272-1.416c-.106-.48-.233-.97-.378-1.468a28.541 28.541 0 00-.236-.778c-.069-.21-.137-.426-.21-.636-.05-.138-.095-.275-.147-.41a22.7 22.7 0 00-.357-.952c.016-.033.035-.071.057-.104-.029.004-.06.011-.09.016a39.869 39.869 0 00-1.795-3.899 37.87 37.87 0 00-.66-1.21l-.186-.33-.192-.325c-.234-.398-.475-.79-.719-1.178a38.008 38.008 0 00-.761-1.163 38.416 38.416 0 00-1.72-2.344l.062-.068c-.04 0-.078-.003-.118-.003a32.054 32.054 0 00-.932-1.113c-.146-.17-.297-.338-.447-.506-.184-.204-.37-.4-.553-.594-.362-.373-.726-.73-1.085-1.062a20.683 20.683 0 00-1.095-.945 13.543 13.543 0 00-.6-.459c-1.492-1.092-2.835-1.676-3.833-1.676-.355 0-.662.07-.918.22-.986.567-1.388 2.354-1.116 4.847.026.24.062.49.1.747a19.328 19.328 0 00.272 1.416c.106.48.233.97.375 1.469l-.555.964a45.882 45.882 0 00-.975 1.83 31.688 31.688 0 01-.487-1.421c-.243-.77-.449-1.522-.612-2.248a19.783 19.783 0 01-.22-1.08c-.069-.374-.125-.74-.165-1.098-.443-3.582.271-6.304 2.225-7.432.61-.354 1.295-.522 2.038-.525 1.627 0 3.53.819 5.514 2.31.286.218.575.447.863.693.274.23.549.473.828.733a28.664 28.664 0 012.369 2.478c.09.1.175.204.262.308a36.172 36.172 0 01.927 1.156c.296.38.587.773.877 1.18a44.946 44.946 0 011.627 2.45c-.01.028-.019.061-.028.09a.41.41 0 01.092.011c.227.37.452.745.674 1.128-.01.028-.019.06-.03.088l.089.014c.22.38.435.764.64 1.147-.009.028-.02.061-.032.09.03.004.061.011.09.016.47.882.905 1.762 1.302 2.639a43.782 43.782 0 01.87 2.08c.088.223.17.445.249.665a28.3 28.3 0 01.48 1.412 27.155 27.155 0 01.837 3.327 22.706 22.706 0 01.17 1.097c.47 3.7-.31 6.327-2.22 7.431-.61.355-1.296.523-2.038.523-1.63 0-3.533-.818-5.514-2.31a17.368 17.368 0 01-.864-.693c-.276-.23-.55-.473-.827-.73a30.287 30.287 0 01-1.643-1.656 36.983 36.983 0 01-.726-.825c-.09-.1-.175-.203-.26-.305.184.012.37.019.555.028.502.02 1.005.031 1.516.04h1.114l-.003-.009z" fill="#7BAEFF"/><path d="M24.016 26.978a2.98 2.98 0 100-5.958 2.98 2.98 0 000 5.958z" fill="#4169F9"/></svg>
