<svg width="94" height="22" fill="none" xmlns="http://www.w3.org/2000/svg"><path d="M16.612 17.456H13.47l-1.257-3.263-1.04-2.693-2.196-5.696v-.005l1.571-4.067 6.064 15.724zM0 17.457h3.142L9.875 0H6.733L0 17.457zM50.23 0h-2.694v17.456h2.694V0zM21.1 0h-2.694v2.693h2.693V0zM31.827 7.025a3.735 3.735 0 00-2.406.184 3.914 3.914 0 00-2.087 2.509V7.025c.3-.837.86-1.555 1.598-2.052a4.237 4.237 0 012.895-.641v2.693zM21.132 4.33H18.44v13.126h2.693V4.33zM93.403 4.332L88.802 16.37l-1.347 3.524-.785 2.046h-2.693l2.132-5.57 1.346-3.524 3.255-8.514h2.693z" fill="#fff"/><path d="M27.347 4.331h-2.694v13.125h2.694V4.331zM44.78 4.892h-2.692v12.12h2.693V4.892z" fill="#fff"/><path d="M38.011 4.386c-3.205 0-5.808 2.94-5.808 6.562 0 3.622 2.603 6.567 5.808 6.567 3.205 0 5.835-2.94 5.835-6.567 0-3.627-2.617-6.562-5.835-6.562zm.449 10.463c-1.984 0-3.59-1.796-3.59-3.955s1.606-3.954 3.59-3.954c1.984 0 3.59 1.773 3.59 3.954 0 2.182-1.58 3.955-3.563 3.955h-.027zM79.27 4.892h-2.693v12.12h2.693V4.891z" fill="#fff"/><path d="M72.527 4.386c-3.205 0-5.809 2.94-5.809 6.562 0 3.622 2.604 6.567 5.809 6.567 3.204 0 5.808-2.94 5.808-6.567 0-3.627-2.613-6.562-5.808-6.562zm.448 10.463c-1.983 0-3.59-1.796-3.59-3.955s1.606-3.954 3.59-3.954c1.984 0 3.591 1.773 3.591 3.954 0 2.182-1.589 3.955-3.573 3.955h-.018zM58.618 6.998a3.389 3.389 0 013.388 3.389v1.13a3.393 3.393 0 01-6.782 0v-1.13a3.393 3.393 0 013.394-3.39zm0-2.693a6.091 6.091 0 00-6.087 6.082v1.13a6.087 6.087 0 0012.169 0v-1.13a6.092 6.092 0 00-6.082-6.082zM88.796 16.37l-1.346 3.523-1.347-3.524-4.605-12.038h2.693l3.259 8.515 1.346 3.523z" fill="#fff"/><path d="M67.046 18.102h2.787c.193.357.447.677.75.947.768.63 1.752.935 2.742.849.292 0 1.796-.189 2.559-1.15.393-.498.635-1.1.695-1.732h2.693a4.938 4.938 0 01-.996 2.882c-1.53 1.984-4.156 2.073-4.978 2.1-.65 0-3.59.122-5.274-1.907a4.707 4.707 0 01-.978-1.989zM12.676 11.5v2.693H5.727L6.77 11.5h5.907z" fill="#fff"/></svg>
