<svg width="20" height="20" viewBox="0 0 20 20" fill="none" xmlns="http://www.w3.org/2000/svg"><path d="M5 9.944V4.5a1 1 0 011-1h8a1 1 0 011 1v5.444" stroke="currentColor" stroke-width="1.2" stroke-linejoin="round"/><path clip-rule="evenodd" d="M4.267 9.68L10 11.306l5.774-1.627a.5.5 0 01.635.481v6.34H3.631V10.16a.5.5 0 01.636-.48z" stroke="currentColor" stroke-width="1.2" stroke-linejoin="round"/><path d="M12.4 5.5H7.6a.6.6 0 000 1.2h4.8a.6.6 0 100-1.2zM12.4 7.5H7.6a.6.6 0 000 1.2h4.8a.6.6 0 100-1.2z" fill="currentColor"/></svg>
