<svg width="24" height="24" viewBox="0 0 24 24" fill="none" xmlns="http://www.w3.org/2000/svg">
  <path
    d="M12 22C17.5228 22 22 17.5228 22 12C22 6.47715 17.5228 2 12 2C6.47715 2 2 6.47715 2 12C2 17.5228 6.47715 22 12 22Z"
    stroke="currentColor" stroke-width="1.5" />
  <path
    d="M8 12C8 10.114 8 9.172 8.586 8.586C9.172 8 10.114 8 12 8C13.886 8 14.828 8 15.414 8.586C16 9.172 16 10.114 16 12C16 13.886 16 14.828 15.414 15.414C14.828 16 13.886 16 12 16C10.114 16 9.172 16 8.586 15.414C8 14.828 8 13.886 8 12Z"
    stroke="currentColor" stroke-width="1.5" />
</svg>
